<?xml version="1.0" encoding="utf-8"?>
<!DOCTYPE svg PUBLIC "-//W3C//DTD SVG 1.1//EN" "http://www.w3.org/Graphics/SVG/1.1/DTD/svg11.dtd">
<svg xmlns="http://www.w3.org/2000/svg" xmlns:xlink="http://www.w3.org/1999/xlink" version="1.1" baseProfile="full" width="333.885" height="143.535" viewBox="0 0 333.89 143.54" enable-background="new 0 0 333.89 143.54" xml:space="preserve">
	<path fill="none" stroke-width="0.640004" stroke-linejoin="round" stroke="#000000" stroke-opacity="1" d="M 18.4984,29.1397L 183.827,12.4922L 183.827,112.871L 18.4984,129.519L 18.4984,29.1397 Z "/>
	<path fill="#000000" fill-opacity="1" stroke-width="0.640004" stroke-linejoin="round" stroke="#000000" stroke-opacity="1" d="M 18.484,28.0018C 19.0723,28.0018 19.5492,28.4787 19.5492,29.067C 19.5492,29.6553 19.0723,30.1322 18.484,30.1322C 17.8956,30.1322 17.4187,29.6553 17.4187,29.067C 17.4187,28.4787 17.8956,28.0018 18.484,28.0018 Z "/>
	<path fill="#D9D9D9" fill-opacity="1" stroke-width="0.319997" stroke-linejoin="round" stroke="#000000" stroke-opacity="1" d="M 67.6759,77.2801L 78.941,58.216L 102.028,50.5307L 127.734,61.3402L 124.615,84.4769L 80.161,96.4352L 67.6759,77.2801 Z "/>
	<path fill="#000000" fill-opacity="1" stroke-width="0.640004" stroke-linejoin="round" stroke="#000000" stroke-opacity="1" d="M 18.5978,128.373C 19.1861,128.373 19.663,128.85 19.663,129.438C 19.663,130.027 19.1861,130.504 18.5978,130.504C 18.0094,130.504 17.5325,130.027 17.5325,129.438C 17.5325,128.85 18.0094,128.373 18.5978,128.373 Z "/>
	<text transform="matrix(1.0000000000000000 0.0000000000000000 0.0000000000000000 1.0000000000000000 0.00 32.00)" xml:space="preserve">
		<tspan style=" font-family:Segoe UI; font-size:8.123852pt;" letter-spacing="0.00em" fill="#000000" fill-opacity="1" stroke-width="0.2" stroke-linejoin="round">V1</tspan>
	</text>
	<text transform="matrix(1.0000000000000000 0.0000000000000000 0.0000000000000000 1.0000000000000000 0.00 131.00)" xml:space="preserve">
		<tspan style=" font-family:Segoe UI; font-size:8.123852pt;" letter-spacing="0.00em" fill="#000000" fill-opacity="1" stroke-width="0.2" stroke-linejoin="round">V4</tspan>
	</text>
	<text transform="matrix(1.0000000000000000 0.0000000000000000 0.0000000000000000 1.0000000000000000 189.00 12.00)" xml:space="preserve">
		<tspan style=" font-family:Segoe UI; font-size:8.123852pt;" letter-spacing="0.00em" fill="#000000" fill-opacity="1" stroke-width="0.2" stroke-linejoin="round">V4</tspan>
	</text>
	<text transform="matrix(1.0000000000000000 0.0000000000000000 0.0000000000000000 1.0000000000000000 190.00 114.00)" xml:space="preserve">
		<tspan style=" font-family:Segoe UI; font-size:8.123852pt;" letter-spacing="0.00em" fill="#000000" fill-opacity="1" stroke-width="0.2" stroke-linejoin="round">V3</tspan>
	</text>
	<text transform="matrix(1.0000000000000000 0.0000000000000000 0.0000000000000000 1.0000000000000000 50.00 73.00)" xml:space="preserve">
		<tspan style=" font-family:Segoe UI; font-size:8.123851pt;" letter-spacing="0.00em" fill="#000000" fill-opacity="1" stroke-width="0.2" stroke-linejoin="round">o11</tspan>
	</text>
	<text transform="matrix(1.0000000000000000 0.0000000000000000 0.0000000000000000 1.0000000000000000 64.00 55.00)" xml:space="preserve">
		<tspan style=" font-family:Segoe UI; font-size:8.123851pt;" letter-spacing="0.00em" fill="#000000" fill-opacity="1" stroke-width="0.2" stroke-linejoin="round">o12</tspan>
	</text>
	<text transform="matrix(1.0000000000000000 0.0000000000000000 0.0000000000000000 1.0000000000000000 94.00 48.00)" xml:space="preserve">
		<tspan style=" font-family:Segoe UI; font-size:8.123851pt;" letter-spacing="0.00em" fill="#000000" fill-opacity="1" stroke-width="0.2" stroke-linejoin="round">o13</tspan>
	</text>
	<text transform="matrix(1.0000000000000000 0.0000000000000000 0.0000000000000000 1.0000000000000000 131.00 64.00)" xml:space="preserve">
		<tspan style=" font-family:Segoe UI; font-size:8.123851pt;" letter-spacing="0.00em" fill="#000000" fill-opacity="1" stroke-width="0.2" stroke-linejoin="round">o14</tspan>
	</text>
	<text transform="matrix(1.0000000000000000 0.0000000000000000 0.0000000000000000 1.0000000000000000 128.00 88.00)" xml:space="preserve">
		<tspan style=" font-family:Segoe UI; font-size:8.123851pt;" letter-spacing="0.00em" fill="#000000" fill-opacity="1" stroke-width="0.2" stroke-linejoin="round">o15</tspan>
	</text>
	<text transform="matrix(1.0000000000000000 0.0000000000000000 0.0000000000000000 1.0000000000000000 69.00 106.00)" xml:space="preserve">
		<tspan style=" font-family:Segoe UI; font-size:8.123851pt;" letter-spacing="0.00em" fill="#000000" fill-opacity="1" stroke-width="0.2" stroke-linejoin="round">o16</tspan>
	</text>
	<line fill="none" stroke-width="0.640004" stroke-linejoin="round" stroke="#000000" stroke-opacity="1" x1="183.827" y1="0.0533752" x2="183.827" y2="142.949"/>
	<path fill="#000000" fill-opacity="1" stroke-width="0.32" stroke-linejoin="round" d="M 184.147,10.7201L 184.147,16.0534L 183.507,16.0534L 183.507,10.7201L 184.147,10.7201 Z M 184.147,21.3867L 184.147,26.7201L 183.507,26.7201L 183.507,21.3867L 184.147,21.3867 Z M 184.147,32.0534L 184.147,37.3867L 183.507,37.3867L 183.507,32.0534L 184.147,32.0534 Z M 184.147,42.7201L 184.147,48.0534L 183.507,48.0534L 183.507,42.7201L 184.147,42.7201 Z M 184.147,53.3867L 184.147,58.7201L 183.507,58.7201L 183.507,53.3867L 184.147,53.3867 Z M 184.147,64.0534L 184.147,69.3867L 183.507,69.3867L 183.507,64.0534L 184.147,64.0534 Z M 184.147,74.7201L 184.147,80.0534L 183.507,80.0534L 183.507,74.7201L 184.147,74.7201 Z M 184.147,85.3867L 184.147,90.7201L 183.507,90.7201L 183.507,85.3867L 184.147,85.3867 Z M 184.147,96.0534L 184.147,101.387L 183.507,101.387L 183.507,96.0534L 184.147,96.0534 Z M 184.147,106.72L 184.147,112.053L 183.507,112.053L 183.507,106.72L 184.147,106.72 Z M 184.147,117.387L 184.147,122.72L 183.507,122.72L 183.507,117.387L 184.147,117.387 Z M 184.147,128.053L 184.147,133.387L 183.507,133.387L 183.507,128.053L 184.147,128.053 Z M 184.147,138.72L 184.147,142.949L 183.507,142.949L 183.507,138.72L 184.147,138.72 Z M 184.147,0.0533752L 184.147,5.38672L 183.507,5.38672L 183.507,0.0533752L 184.147,0.0533752 Z "/>
	<line fill="none" stroke-width="0.319997" stroke-linejoin="round" stroke="#000000" stroke-opacity="1" x1="67.6314" y1="24.1996" x2="67.6314" y2="124.581"/>
	<path fill="#000000" fill-opacity="1" stroke-width="0.32" stroke-linejoin="round" d="M 67.7914,29.5329L 67.7914,32.1996L 67.4714,32.1996L 67.4714,29.5329L 67.7914,29.5329 Z M 67.7914,34.8662L 67.7914,37.5329L 67.4714,37.5329L 67.4714,34.8662L 67.7914,34.8662 Z M 67.7914,40.1996L 67.7914,42.8662L 67.4714,42.8662L 67.4714,40.1996L 67.7914,40.1996 Z M 67.7914,45.5329L 67.7914,48.1996L 67.4714,48.1996L 67.4714,45.5329L 67.7914,45.5329 Z M 67.7914,50.8662L 67.7914,53.5329L 67.4714,53.5329L 67.4714,50.8662L 67.7914,50.8662 Z M 67.7914,56.1996L 67.7914,58.8662L 67.4714,58.8662L 67.4714,56.1996L 67.7914,56.1996 Z M 67.7914,61.5329L 67.7914,64.1996L 67.4714,64.1996L 67.4714,61.5329L 67.7914,61.5329 Z M 67.7914,66.8662L 67.7914,69.5329L 67.4714,69.5329L 67.4714,66.8662L 67.7914,66.8662 Z M 67.7914,72.1996L 67.7914,74.8662L 67.4714,74.8662L 67.4714,72.1996L 67.7914,72.1996 Z M 67.7914,77.5329L 67.7914,80.1996L 67.4714,80.1996L 67.4714,77.5329L 67.7914,77.5329 Z M 67.7914,82.8662L 67.7914,85.5329L 67.4714,85.5329L 67.4714,82.8662L 67.7914,82.8662 Z M 67.7914,88.1996L 67.7914,90.8662L 67.4714,90.8662L 67.4714,88.1996L 67.7914,88.1996 Z M 67.7914,93.5329L 67.7914,96.1996L 67.4714,96.1996L 67.4714,93.5329L 67.7914,93.5329 Z M 67.7914,98.8662L 67.7914,101.533L 67.4714,101.533L 67.4714,98.8662L 67.7914,98.8662 Z M 67.7914,104.2L 67.7914,106.866L 67.4714,106.866L 67.4714,104.2L 67.7914,104.2 Z M 67.7914,109.533L 67.7914,112.2L 67.4714,112.2L 67.4714,109.533L 67.7914,109.533 Z M 67.7914,114.866L 67.7914,117.533L 67.4714,117.533L 67.4714,114.866L 67.7914,114.866 Z M 67.7914,120.2L 67.7914,122.866L 67.4714,122.866L 67.4714,120.2L 67.7914,120.2 Z M 67.7914,24.1996L 67.7914,26.8662L 67.4714,26.8662L 67.4714,24.1996L 67.7914,24.1996 Z "/>
	<path fill="#000000" fill-opacity="1" stroke-width="0.640004" stroke-linejoin="round" stroke="#000000" stroke-opacity="1" d="M 67.5596,76.2456C 68.1479,76.2456 68.6249,76.7225 68.6249,77.3108C 68.6249,77.8991 68.1479,78.3761 67.5596,78.3761C 66.9713,78.3761 66.4944,77.8991 66.4944,77.3108C 66.4944,76.7225 66.9713,76.2456 67.5596,76.2456 Z "/>
	<line fill="none" stroke-width="0.319997" stroke-linejoin="round" stroke="#000000" stroke-opacity="1" x1="127.837" y1="18.0664" x2="127.837" y2="118.448"/>
	<path fill="#000000" fill-opacity="1" stroke-width="0.32" stroke-linejoin="round" d="M 127.997,23.3997L 127.997,26.0664L 127.677,26.0664L 127.677,23.3997L 127.997,23.3997 Z M 127.997,28.733L 127.997,31.3997L 127.677,31.3997L 127.677,28.733L 127.997,28.733 Z M 127.997,34.0664L 127.997,36.733L 127.677,36.733L 127.677,34.0664L 127.997,34.0664 Z M 127.997,39.3997L 127.997,42.0664L 127.677,42.0664L 127.677,39.3997L 127.997,39.3997 Z M 127.997,44.733L 127.997,47.3997L 127.677,47.3997L 127.677,44.733L 127.997,44.733 Z M 127.997,50.0664L 127.997,52.733L 127.677,52.733L 127.677,50.0664L 127.997,50.0664 Z M 127.997,55.3997L 127.997,58.0664L 127.677,58.0664L 127.677,55.3997L 127.997,55.3997 Z M 127.997,60.733L 127.997,63.3997L 127.677,63.3997L 127.677,60.733L 127.997,60.733 Z M 127.997,66.0664L 127.997,68.733L 127.677,68.733L 127.677,66.0664L 127.997,66.0664 Z M 127.997,71.3997L 127.997,74.0664L 127.677,74.0664L 127.677,71.3997L 127.997,71.3997 Z M 127.997,76.733L 127.997,79.3997L 127.677,79.3997L 127.677,76.733L 127.997,76.733 Z M 127.997,82.0664L 127.997,84.733L 127.677,84.733L 127.677,82.0664L 127.997,82.0664 Z M 127.997,87.3997L 127.997,90.0664L 127.677,90.0664L 127.677,87.3997L 127.997,87.3997 Z M 127.997,92.733L 127.997,95.3997L 127.677,95.3997L 127.677,92.733L 127.997,92.733 Z M 127.997,98.0664L 127.997,100.733L 127.677,100.733L 127.677,98.0664L 127.997,98.0664 Z M 127.997,103.4L 127.997,106.066L 127.677,106.066L 127.677,103.4L 127.997,103.4 Z M 127.997,108.733L 127.997,111.4L 127.677,111.4L 127.677,108.733L 127.997,108.733 Z M 127.997,114.066L 127.997,116.733L 127.677,116.733L 127.677,114.066L 127.997,114.066 Z M 127.997,18.0664L 127.997,20.733L 127.677,20.733L 127.677,18.0664L 127.997,18.0664 Z "/>
	<path fill="#000000" fill-opacity="1" stroke-width="0.640004" stroke-linejoin="round" stroke="#000000" stroke-opacity="1" d="M 127.765,60.3637C 128.353,60.3637 128.83,60.8407 128.83,61.4289C 128.83,62.0173 128.353,62.4942 127.765,62.4942C 127.177,62.4942 126.7,62.0173 126.7,61.4289C 126.7,60.8407 127.177,60.3637 127.765,60.3637 Z "/>
	<text transform="matrix(1.0000000000000000 0.0000000000000000 0.0000000000000000 1.0000000000000000 188.00 137.00)" xml:space="preserve">
		<tspan style=" font-family:Segoe UI; font-size:8.123852pt;" letter-spacing="0.00em" fill="#000000" fill-opacity="1" stroke-width="0.2" stroke-linejoin="round">S</tspan>
	</text>
	<text transform="matrix(1.0000000000000000 0.0000000000000000 0.0000000000000000 1.0000000000000000 62.00 17.00)" xml:space="preserve">
		<tspan style=" font-family:Segoe UI; font-size:8.123851pt;" letter-spacing="0.00em" fill="#000000" fill-opacity="1" stroke-width="0.2" stroke-linejoin="round">V1&apos;</tspan>
	</text>
	<text transform="matrix(1.0000000000000000 0.0000000000000000 0.0000000000000000 1.0000000000000000 61.00 138.00)" xml:space="preserve">
		<tspan style=" font-family:Segoe UI; font-size:8.123851pt;" letter-spacing="0.00em" fill="#000000" fill-opacity="1" stroke-width="0.2" stroke-linejoin="round">V4&apos;</tspan>
	</text>
	<text transform="matrix(1.0000000000000000 0.0000000000000000 0.0000000000000000 1.0000000000000000 123.00 12.00)" xml:space="preserve">
		<tspan style=" font-family:Segoe UI; font-size:8.123851pt;" letter-spacing="0.00em" fill="#000000" fill-opacity="1" stroke-width="0.2" stroke-linejoin="round">V1&apos;</tspan>
	</text>
	<text transform="matrix(1.0000000000000000 0.0000000000000000 0.0000000000000000 1.0000000000000000 122.00 133.00)" xml:space="preserve">
		<tspan style=" font-family:Segoe UI; font-size:8.123851pt;" letter-spacing="0.00em" fill="#000000" fill-opacity="1" stroke-width="0.2" stroke-linejoin="round">V4&apos;</tspan>
	</text>
	<path fill="none" stroke-width="0.319997" stroke-linejoin="round" stroke="#000000" stroke-opacity="1" d="M 323.614,21.5916C 329.022,21.5916 333.405,25.9532 333.405,31.3333C 333.405,36.7136 329.022,41.075 323.614,41.075C 318.206,41.075 313.822,36.7136 313.822,31.3333C 313.822,25.9532 318.206,21.5916 323.614,21.5916 Z "/>
	<text transform="matrix(1.0000000000000000 0.0000000000000000 0.0000000000000000 1.0000000000000000 319.00 35.00)" xml:space="preserve">
		<tspan style=" font-family:Segoe UI; font-size:8.123852pt;" letter-spacing="0.00em" fill="#000000" fill-opacity="1" stroke-width="0.2" stroke-linejoin="round">c4</tspan>
	</text>
	<text transform="matrix(1.0000000000000000 0.0000000000000000 0.0000000000000000 1.0000000000000000 30.00 116.00)" xml:space="preserve">
		<tspan style=" font-family:Segoe UI; font-size:8.123852pt;" letter-spacing="0.00em" fill="#000000" fill-opacity="1" stroke-width="0.2" stroke-linejoin="round">c1</tspan>
	</text>
	<text transform="matrix(1.0000000000000000 0.0000000000000000 0.0000000000000000 1.0000000000000000 76.00 36.00)" xml:space="preserve">
		<tspan style=" font-family:Segoe UI; font-size:8.123852pt;" letter-spacing="0.00em" fill="#000000" fill-opacity="1" stroke-width="0.2" stroke-linejoin="round">c2</tspan>
	</text>
	<text transform="matrix(1.0000000000000000 0.0000000000000000 0.0000000000000000 1.0000000000000000 164.00 28.00)" xml:space="preserve">
		<tspan style=" font-family:Segoe UI; font-size:8.123852pt;" letter-spacing="0.00em" fill="#000000" fill-opacity="1" stroke-width="0.2" stroke-linejoin="round">c3</tspan>
	</text>
	<text transform="matrix(1.0000000000000000 0.0000000000000000 0.0000000000000000 1.0000000000000000 103.00 115.00)" xml:space="preserve">
		<tspan style=" font-family:Segoe UI; font-size:8.123852pt;" letter-spacing="0.00em" fill="#000000" fill-opacity="1" stroke-width="0.2" stroke-linejoin="round">c3</tspan>
	</text>
	<path fill="none" stroke-width="0.319997" stroke-linejoin="round" stroke="#000000" stroke-opacity="1" d="M 246.455,53.2032C 251.863,53.2032 256.246,57.5648 256.246,62.9449C 256.246,68.3252 251.863,72.6866 246.455,72.6866C 241.047,72.6866 236.663,68.3252 236.663,62.9449C 236.663,57.5648 241.047,53.2032 246.455,53.2032 Z "/>
	<text transform="matrix(1.0000000000000000 0.0000000000000000 0.0000000000000000 1.0000000000000000 242.00 66.00)" xml:space="preserve">
		<tspan style=" font-family:Segoe UI; font-size:8.123852pt;" letter-spacing="0.00em" fill="#000000" fill-opacity="1" stroke-width="0.2" stroke-linejoin="round">c1</tspan>
	</text>
	<path fill="none" stroke-width="0.319997" stroke-linejoin="round" stroke="#000000" stroke-opacity="1" d="M 290.292,79.5683C 295.699,79.5683 300.083,83.9298 300.083,89.31C 300.083,94.6902 295.699,99.0517 290.292,99.0517C 284.884,99.0517 280.5,94.6902 280.5,89.31C 280.5,83.9298 284.884,79.5683 290.292,79.5683 Z "/>
	<text transform="matrix(1.0000000000000000 0.0000000000000000 0.0000000000000000 1.0000000000000000 286.00 93.00)" xml:space="preserve">
		<tspan style=" font-family:Segoe UI; font-size:8.123852pt;" letter-spacing="0.00em" fill="#000000" fill-opacity="1" stroke-width="0.2" stroke-linejoin="round">c3</tspan>
	</text>
	<path fill="none" stroke-width="0.319997" stroke-linejoin="round" stroke="#000000" stroke-opacity="1" d="M 282.864,29.9127C 288.272,29.9127 292.656,34.2741 292.656,39.6544C 292.656,45.0345 288.272,49.3961 282.864,49.3961C 277.456,49.3961 273.073,45.0345 273.073,39.6544C 273.073,34.2741 277.456,29.9127 282.864,29.9127 Z "/>
	<text transform="matrix(1.0000000000000000 0.0000000000000000 0.0000000000000000 1.0000000000000000 278.00 43.00)" xml:space="preserve">
		<tspan style=" font-family:Segoe UI; font-size:8.123852pt;" letter-spacing="0.00em" fill="#000000" fill-opacity="1" stroke-width="0.2" stroke-linejoin="round">c2</tspan>
	</text>
	<line fill="none" stroke-width="0.319997" stroke-linejoin="round" stroke="#000000" stroke-opacity="1" x1="254.412" y1="68.8745" x2="282.945" y2="83.0344"/>
	<line fill="none" stroke-width="0.319997" stroke-linejoin="round" stroke="#000000" stroke-opacity="1" x1="253.931" y1="56.5029" x2="273.611" y2="42.7163"/>
	<line fill="none" stroke-width="0.319997" stroke-linejoin="round" stroke="#000000" stroke-opacity="1" x1="291.945" y1="36.1987" x2="313.893" y2="31.2033"/>
</svg>
