<?xml version="1.0" encoding="utf-8"?>
<!DOCTYPE svg PUBLIC "-//W3C//DTD SVG 1.1//EN" "http://www.w3.org/Graphics/SVG/1.1/DTD/svg11.dtd">
<svg xmlns="http://www.w3.org/2000/svg" xmlns:xlink="http://www.w3.org/1999/xlink" version="1.1" baseProfile="full" width="326.153" height="143.535" viewBox="0 0 326.15 143.54" enable-background="new 0 0 326.15 143.54" xml:space="preserve">
	<path fill="none" stroke-width="0.64" stroke-linejoin="round" stroke="#000000" stroke-opacity="1" d="M 18.6584,29.4063L 183.987,12.7587L 183.987,113.138L 18.6584,129.785L 18.6584,29.4063 Z "/>
	<path fill="#000000" fill-opacity="1" stroke-width="0.64" stroke-linejoin="round" stroke="#000000" stroke-opacity="1" d="M 18.644,28.2683C 19.2323,28.2683 19.7092,28.7452 19.7092,29.3336C 19.7092,29.9218 19.2323,30.3988 18.644,30.3988C 18.0557,30.3988 17.5787,29.9218 17.5787,29.3336C 17.5787,28.7452 18.0557,28.2683 18.644,28.2683 Z "/>
	<path fill="#D9D9D9" fill-opacity="1" stroke-width="0.32" stroke-linejoin="round" stroke="#000000" stroke-opacity="1" d="M 67.8359,77.5466L 79.101,58.4826L 102.188,50.7973L 127.894,61.6068L 124.775,84.7435L 80.321,96.7018L 67.8359,77.5466 Z "/>
	<path fill="#000000" fill-opacity="1" stroke-width="0.64" stroke-linejoin="round" stroke="#000000" stroke-opacity="1" d="M 18.7577,128.64C 19.346,128.64 19.823,129.117 19.823,129.705C 19.823,130.293 19.346,130.77 18.7577,130.77C 18.1694,130.77 17.6925,130.293 17.6925,129.705C 17.6925,129.117 18.1694,128.64 18.7577,128.64 Z "/>
	<text transform="matrix(1.0000000000000000 0.0000000000000000 0.0000000000000000 1.0000000000000000 0.00 32.00)" xml:space="preserve">
		<tspan style=" font-family:Segoe UI; font-size:8.123852pt;" letter-spacing="0.00em" fill="#000000" fill-opacity="1" stroke-width="0.2" stroke-linejoin="round">V1</tspan>
	</text>
	<text transform="matrix(1.0000000000000000 0.0000000000000000 0.0000000000000000 1.0000000000000000 0.00 132.00)" xml:space="preserve">
		<tspan style=" font-family:Segoe UI; font-size:8.123852pt;" letter-spacing="0.00em" fill="#000000" fill-opacity="1" stroke-width="0.2" stroke-linejoin="round">V4</tspan>
	</text>
	<text transform="matrix(1.0000000000000000 0.0000000000000000 0.0000000000000000 1.0000000000000000 190.00 12.00)" xml:space="preserve">
		<tspan style=" font-family:Segoe UI; font-size:8.123852pt;" letter-spacing="0.00em" fill="#000000" fill-opacity="1" stroke-width="0.2" stroke-linejoin="round">V2</tspan>
	</text>
	<text transform="matrix(1.0000000000000000 0.0000000000000000 0.0000000000000000 1.0000000000000000 190.00 114.00)" xml:space="preserve">
		<tspan style=" font-family:Segoe UI; font-size:8.123852pt;" letter-spacing="0.00em" fill="#000000" fill-opacity="1" stroke-width="0.2" stroke-linejoin="round">V3</tspan>
	</text>
	<text transform="matrix(1.0000000000000000 0.0000000000000000 0.0000000000000000 1.0000000000000000 50.00 73.00)" xml:space="preserve">
		<tspan style=" font-family:Segoe UI; font-size:8.123851pt;" letter-spacing="0.00em" fill="#000000" fill-opacity="1" stroke-width="0.2" stroke-linejoin="round">o11</tspan>
	</text>
	<text transform="matrix(1.0000000000000000 0.0000000000000000 0.0000000000000000 1.0000000000000000 64.00 56.00)" xml:space="preserve">
		<tspan style=" font-family:Segoe UI; font-size:8.123851pt;" letter-spacing="0.00em" fill="#000000" fill-opacity="1" stroke-width="0.2" stroke-linejoin="round">o12</tspan>
	</text>
	<text transform="matrix(1.0000000000000000 0.0000000000000000 0.0000000000000000 1.0000000000000000 94.00 48.00)" xml:space="preserve">
		<tspan style=" font-family:Segoe UI; font-size:8.123851pt;" letter-spacing="0.00em" fill="#000000" fill-opacity="1" stroke-width="0.2" stroke-linejoin="round">o13</tspan>
	</text>
	<text transform="matrix(1.0000000000000000 0.0000000000000000 0.0000000000000000 1.0000000000000000 131.00 64.00)" xml:space="preserve">
		<tspan style=" font-family:Segoe UI; font-size:8.123851pt;" letter-spacing="0.00em" fill="#000000" fill-opacity="1" stroke-width="0.2" stroke-linejoin="round">o14</tspan>
	</text>
	<text transform="matrix(1.0000000000000000 0.0000000000000000 0.0000000000000000 1.0000000000000000 128.00 88.00)" xml:space="preserve">
		<tspan style=" font-family:Segoe UI; font-size:8.123851pt;" letter-spacing="0.00em" fill="#000000" fill-opacity="1" stroke-width="0.2" stroke-linejoin="round">o15</tspan>
	</text>
	<text transform="matrix(1.0000000000000000 0.0000000000000000 0.0000000000000000 1.0000000000000000 70.00 106.00)" xml:space="preserve">
		<tspan style=" font-family:Segoe UI; font-size:8.123851pt;" letter-spacing="0.00em" fill="#000000" fill-opacity="1" stroke-width="0.2" stroke-linejoin="round">o16</tspan>
	</text>
	<line fill="none" stroke-width="0.64" stroke-linejoin="round" stroke="#000000" stroke-opacity="1" x1="128.076" y1="0.319946" x2="128.076" y2="143.215"/>
	<path fill="#000000" fill-opacity="1" stroke-width="0.32" stroke-linejoin="round" d="M 128.396,10.9866L 128.396,16.3199L 127.756,16.3199L 127.756,10.9866L 128.396,10.9866 Z M 128.396,21.6533L 128.396,26.9866L 127.756,26.9866L 127.756,21.6533L 128.396,21.6533 Z M 128.396,32.3199L 128.396,37.6533L 127.756,37.6533L 127.756,32.3199L 128.396,32.3199 Z M 128.396,42.9866L 128.396,48.3199L 127.756,48.3199L 127.756,42.9866L 128.396,42.9866 Z M 128.396,53.6533L 128.396,58.9866L 127.756,58.9866L 127.756,53.6533L 128.396,53.6533 Z M 128.396,64.3199L 128.396,69.6533L 127.756,69.6533L 127.756,64.3199L 128.396,64.3199 Z M 128.396,74.9866L 128.396,80.3199L 127.756,80.3199L 127.756,74.9866L 128.396,74.9866 Z M 128.396,85.6533L 128.396,90.9866L 127.756,90.9866L 127.756,85.6533L 128.396,85.6533 Z M 128.396,96.3199L 128.396,101.653L 127.756,101.653L 127.756,96.3199L 128.396,96.3199 Z M 128.396,106.987L 128.396,112.32L 127.756,112.32L 127.756,106.987L 128.396,106.987 Z M 128.396,117.653L 128.396,122.987L 127.756,122.987L 127.756,117.653L 128.396,117.653 Z M 128.396,128.32L 128.396,133.653L 127.756,133.653L 127.756,128.32L 128.396,128.32 Z M 128.396,138.987L 128.396,143.215L 127.756,143.215L 127.756,138.987L 128.396,138.987 Z M 128.396,0.319946L 128.396,5.65329L 127.756,5.65329L 127.756,0.319946L 128.396,0.319946 Z "/>
	<line fill="none" stroke-width="0.32" stroke-linejoin="round" stroke="#000000" stroke-opacity="1" x1="67.7914" y1="24.4662" x2="67.7914" y2="124.847"/>
	<path fill="#000000" fill-opacity="1" stroke-width="0.32" stroke-linejoin="round" d="M 67.9513,29.7995L 67.9513,32.4662L 67.6313,32.4662L 67.6313,29.7995L 67.9513,29.7995 Z M 67.9513,35.1329L 67.9513,37.7995L 67.6313,37.7995L 67.6313,35.1329L 67.9513,35.1329 Z M 67.9513,40.4662L 67.9513,43.1329L 67.6313,43.1329L 67.6313,40.4662L 67.9513,40.4662 Z M 67.9513,45.7995L 67.9513,48.4662L 67.6313,48.4662L 67.6313,45.7995L 67.9513,45.7995 Z M 67.9513,51.1329L 67.9513,53.7995L 67.6313,53.7995L 67.6313,51.1329L 67.9513,51.1329 Z M 67.9513,56.4662L 67.9513,59.1329L 67.6313,59.1329L 67.6313,56.4662L 67.9513,56.4662 Z M 67.9513,61.7995L 67.9513,64.4662L 67.6313,64.4662L 67.6313,61.7995L 67.9513,61.7995 Z M 67.9513,67.1329L 67.9513,69.7995L 67.6313,69.7995L 67.6313,67.1329L 67.9513,67.1329 Z M 67.9513,72.4662L 67.9513,75.1329L 67.6313,75.1329L 67.6313,72.4662L 67.9513,72.4662 Z M 67.9513,77.7995L 67.9513,80.4662L 67.6313,80.4662L 67.6313,77.7995L 67.9513,77.7995 Z M 67.9513,83.1329L 67.9513,85.7995L 67.6313,85.7995L 67.6313,83.1329L 67.9513,83.1329 Z M 67.9513,88.4662L 67.9513,91.1329L 67.6313,91.1329L 67.6313,88.4662L 67.9513,88.4662 Z M 67.9513,93.7995L 67.9513,96.4662L 67.6313,96.4662L 67.6313,93.7995L 67.9513,93.7995 Z M 67.9513,99.1329L 67.9513,101.8L 67.6313,101.8L 67.6313,99.1329L 67.9513,99.1329 Z M 67.9513,104.466L 67.9513,107.133L 67.6313,107.133L 67.6313,104.466L 67.9513,104.466 Z M 67.9513,109.8L 67.9513,112.466L 67.6313,112.466L 67.6313,109.8L 67.9513,109.8 Z M 67.9513,115.133L 67.9513,117.8L 67.6313,117.8L 67.6313,115.133L 67.9513,115.133 Z M 67.9513,120.466L 67.9513,123.133L 67.6313,123.133L 67.6313,120.466L 67.9513,120.466 Z M 67.9513,24.4662L 67.9513,27.1329L 67.6313,27.1329L 67.6313,24.4662L 67.9513,24.4662 Z "/>
	<path fill="#000000" fill-opacity="1" stroke-width="0.64" stroke-linejoin="round" stroke="#000000" stroke-opacity="1" d="M 67.7196,76.5121C 68.3079,76.5121 68.7848,76.989 68.7848,77.5774C 68.7848,78.1656 68.3079,78.6426 67.7196,78.6426C 67.1313,78.6426 66.6544,78.1656 66.6544,77.5774C 66.6544,76.989 67.1313,76.5121 67.7196,76.5121 Z "/>
	<text transform="matrix(1.0000000000000000 0.0000000000000000 0.0000000000000000 1.0000000000000000 134.00 136.00)" xml:space="preserve">
		<tspan style=" font-family:Segoe UI; font-size:8.123852pt;" letter-spacing="0.00em" fill="#000000" fill-opacity="1" stroke-width="0.32" stroke-linejoin="round">S</tspan>
	</text>
	<text transform="matrix(1.0000000000000000 0.0000000000000000 0.0000000000000000 1.0000000000000000 60.00 17.00)" xml:space="preserve">
		<tspan style=" font-family:Segoe UI; font-size:8.123851pt;" letter-spacing="0.00em" fill="#000000" fill-opacity="1" stroke-width="0.2" stroke-linejoin="round">V1&apos;</tspan>
	</text>
	<text transform="matrix(1.0000000000000000 0.0000000000000000 0.0000000000000000 1.0000000000000000 59.00 138.00)" xml:space="preserve">
		<tspan style=" font-family:Segoe UI; font-size:8.123851pt;" letter-spacing="0.00em" fill="#000000" fill-opacity="1" stroke-width="0.2" stroke-linejoin="round">V4&apos;</tspan>
	</text>
	<path fill="none" stroke-width="0.32" stroke-linejoin="round" stroke="#000000" stroke-opacity="1" d="M 260.033,45.9693C 265.441,45.9693 269.825,50.3308 269.825,55.711C 269.825,61.0912 265.441,65.4527 260.033,65.4527C 254.625,65.4527 250.241,61.0912 250.241,55.711C 250.241,50.3308 254.625,45.9693 260.033,45.9693 Z "/>
	<text transform="matrix(0.9999999403953552 0.0000000000000000 0.0000000000000000 0.9999999403953552 255.00 59.00)" xml:space="preserve">
		<tspan style=" font-family:Segoe UI; font-size:8.123852pt;" letter-spacing="0.00em" fill="#000000" fill-opacity="1" stroke-width="0.32" stroke-linejoin="round">c1</tspan>
	</text>
	<ellipse fill="none" stroke-width="0.32" stroke-linejoin="round" stroke="#000000" stroke-opacity="1" cx="303.87" cy="82.076" rx="9.79166" ry="9.7417"/>
	<text transform="matrix(0.9999999403953552 0.0000000000000000 0.0000000000000000 0.9999999403953552 299.00 85.00)" xml:space="preserve">
		<tspan style=" font-family:Segoe UI; font-size:8.123852pt;" letter-spacing="0.00em" fill="#000000" fill-opacity="1" stroke-width="0.32" stroke-linejoin="round">c3</tspan>
	</text>
	<path fill="none" stroke-width="0.32" stroke-linejoin="round" stroke="#000000" stroke-opacity="1" d="M 296.443,22.6787C 301.85,22.6787 306.234,27.0402 306.234,32.4204C 306.234,37.8006 301.85,42.1621 296.443,42.1621C 291.035,42.1621 286.651,37.8006 286.651,32.4204C 286.651,27.0402 291.035,22.6787 296.443,22.6787 Z "/>
	<text transform="matrix(0.9999999403953552 0.0000000000000000 0.0000000000000000 0.9999999403953552 292.00 36.00)" xml:space="preserve">
		<tspan style=" font-family:Segoe UI; font-size:8.123852pt;" letter-spacing="0.00em" fill="#000000" fill-opacity="1" stroke-width="0.32" stroke-linejoin="round">c2</tspan>
	</text>
	<line fill="none" stroke-width="0.32" stroke-linejoin="round" stroke="#000000" stroke-opacity="1" x1="267.99" y1="61.6406" x2="296.523" y2="75.8005"/>
	<line fill="none" stroke-width="0.32" stroke-linejoin="round" stroke="#000000" stroke-opacity="1" x1="267.51" y1="49.269" x2="287.19" y2="35.4824"/>
</svg>
