<?xml version="1.0" encoding="utf-8"?>
<!DOCTYPE svg PUBLIC "-//W3C//DTD SVG 1.1//EN" "http://www.w3.org/Graphics/SVG/1.1/DTD/svg11.dtd">
<svg xmlns="http://www.w3.org/2000/svg" xmlns:xlink="http://www.w3.org/1999/xlink" version="1.1" baseProfile="full" width="328.717" height="143.535" viewBox="0 0 328.72 143.54" enable-background="new 0 0 328.72 143.54" xml:space="preserve">
	<path fill="none" stroke-width="0.640004" stroke-linejoin="round" stroke="#000000" stroke-opacity="1" d="M 18.6584,29.4064L 183.987,12.7589L 183.987,113.138L 18.6584,129.785L 18.6584,29.4064 Z "/>
	<path fill="#000000" fill-opacity="1" stroke-width="0.640004" stroke-linejoin="round" stroke="#000000" stroke-opacity="1" d="M 18.644,28.2684C 19.2323,28.2684 19.7092,28.7453 19.7092,29.3337C 19.7092,29.922 19.2323,30.3989 18.644,30.3989C 18.0556,30.3989 17.5787,29.922 17.5787,29.3337C 17.5787,28.7453 18.0556,28.2684 18.644,28.2684 Z "/>
	<path fill="#D9D9D9" fill-opacity="1" stroke-width="0.319997" stroke-linejoin="round" stroke="#000000" stroke-opacity="1" d="M 67.8359,77.5468L 79.101,58.4828L 102.188,50.7974L 127.894,61.6069L 124.775,84.7436L 80.321,96.702L 67.8359,77.5468 Z "/>
	<path fill="#000000" fill-opacity="1" stroke-width="0.640004" stroke-linejoin="round" stroke="#000000" stroke-opacity="1" d="M 18.7577,128.64C 19.346,128.64 19.8229,129.117 19.8229,129.705C 19.8229,130.293 19.346,130.77 18.7577,130.77C 18.1694,130.77 17.6925,130.293 17.6925,129.705C 17.6925,129.117 18.1694,128.64 18.7577,128.64 Z "/>
	<line fill="none" stroke-width="0.640004" stroke-linejoin="round" stroke="#000000" stroke-opacity="1" x1="18.6584" y1="0.320023" x2="18.6584" y2="143.215"/>
	<path fill="#000000" fill-opacity="1" stroke-width="0.32" stroke-linejoin="round" d="M 18.9784,10.9867L 18.9784,16.32L 18.3384,16.32L 18.3384,10.9867L 18.9784,10.9867 Z M 18.9784,21.6534L 18.9784,26.9867L 18.3384,26.9867L 18.3384,21.6534L 18.9784,21.6534 Z M 18.9784,32.32L 18.9784,37.6534L 18.3384,37.6534L 18.3384,32.32L 18.9784,32.32 Z M 18.9784,42.9867L 18.9784,48.32L 18.3384,48.32L 18.3384,42.9867L 18.9784,42.9867 Z M 18.9784,53.6534L 18.9784,58.9867L 18.3384,58.9867L 18.3384,53.6534L 18.9784,53.6534 Z M 18.9784,64.32L 18.9784,69.6534L 18.3384,69.6534L 18.3384,64.32L 18.9784,64.32 Z M 18.9784,74.9867L 18.9784,80.32L 18.3384,80.32L 18.3384,74.9867L 18.9784,74.9867 Z M 18.9784,85.6534L 18.9784,90.9867L 18.3384,90.9867L 18.3384,85.6534L 18.9784,85.6534 Z M 18.9784,96.32L 18.9784,101.653L 18.3384,101.653L 18.3384,96.32L 18.9784,96.32 Z M 18.9784,106.987L 18.9784,112.32L 18.3384,112.32L 18.3384,106.987L 18.9784,106.987 Z M 18.9784,117.653L 18.9784,122.987L 18.3384,122.987L 18.3384,117.653L 18.9784,117.653 Z M 18.9784,128.32L 18.9784,133.653L 18.3384,133.653L 18.3384,128.32L 18.9784,128.32 Z M 18.9784,138.987L 18.9784,143.215L 18.3384,143.215L 18.3384,138.987L 18.9784,138.987 Z M 18.9784,0.320023L 18.9784,5.6534L 18.3384,5.6534L 18.3384,0.320023L 18.9784,0.320023 Z "/>
	<text transform="matrix(1.0000000000000000 0.0000000000000000 0.0000000000000000 1.0000000000000000 0.00 32.00)" xml:space="preserve">
		<tspan style=" font-family:Segoe UI; font-size:8.123852pt;" letter-spacing="0.00em" fill="#000000" fill-opacity="1" stroke-width="0.2" stroke-linejoin="round">V1</tspan>
	</text>
	<text transform="matrix(1.0000000000000000 0.0000000000000000 0.0000000000000000 1.0000000000000000 0.00 132.00)" xml:space="preserve">
		<tspan style=" font-family:Segoe UI; font-size:8.123852pt;" letter-spacing="0.00em" fill="#000000" fill-opacity="1" stroke-width="0.2" stroke-linejoin="round">V4</tspan>
	</text>
	<text transform="matrix(1.0000000000000000 0.0000000000000000 0.0000000000000000 1.0000000000000000 190.00 12.00)" xml:space="preserve">
		<tspan style=" font-family:Segoe UI; font-size:8.123852pt;" letter-spacing="0.00em" fill="#000000" fill-opacity="1" stroke-width="0.2" stroke-linejoin="round">V2</tspan>
	</text>
	<text transform="matrix(1.0000000000000000 0.0000000000000000 0.0000000000000000 1.0000000000000000 190.00 114.00)" xml:space="preserve">
		<tspan style=" font-family:Segoe UI; font-size:8.123852pt;" letter-spacing="0.00em" fill="#000000" fill-opacity="1" stroke-width="0.2" stroke-linejoin="round">V3</tspan>
	</text>
	<text transform="matrix(1.0000000000000000 0.0000000000000000 0.0000000000000000 1.0000000000000000 50.00 73.00)" xml:space="preserve">
		<tspan style=" font-family:Segoe UI; font-size:8.123851pt;" letter-spacing="0.00em" fill="#000000" fill-opacity="1" stroke-width="0.2" stroke-linejoin="round">o11</tspan>
	</text>
	<text transform="matrix(1.0000000000000000 0.0000000000000000 0.0000000000000000 1.0000000000000000 64.00 56.00)" xml:space="preserve">
		<tspan style=" font-family:Segoe UI; font-size:8.123851pt;" letter-spacing="0.00em" fill="#000000" fill-opacity="1" stroke-width="0.2" stroke-linejoin="round">o12</tspan>
	</text>
	<text transform="matrix(1.0000000000000000 0.0000000000000000 0.0000000000000000 1.0000000000000000 94.00 48.00)" xml:space="preserve">
		<tspan style=" font-family:Segoe UI; font-size:8.123851pt;" letter-spacing="0.00em" fill="#000000" fill-opacity="1" stroke-width="0.2" stroke-linejoin="round">o13</tspan>
	</text>
	<text transform="matrix(1.0000000000000000 0.0000000000000000 0.0000000000000000 1.0000000000000000 131.00 64.00)" xml:space="preserve">
		<tspan style=" font-family:Segoe UI; font-size:8.123851pt;" letter-spacing="0.00em" fill="#000000" fill-opacity="1" stroke-width="0.2" stroke-linejoin="round">o14</tspan>
	</text>
	<text transform="matrix(1.0000000000000000 0.0000000000000000 0.0000000000000000 1.0000000000000000 128.00 88.00)" xml:space="preserve">
		<tspan style=" font-family:Segoe UI; font-size:8.123851pt;" letter-spacing="0.00em" fill="#000000" fill-opacity="1" stroke-width="0.2" stroke-linejoin="round">o15</tspan>
	</text>
	<text transform="matrix(1.0000000000000000 0.0000000000000000 0.0000000000000000 1.0000000000000000 70.00 106.00)" xml:space="preserve">
		<tspan style=" font-family:Segoe UI; font-size:8.123851pt;" letter-spacing="0.00em" fill="#000000" fill-opacity="1" stroke-width="0.2" stroke-linejoin="round">o16</tspan>
	</text>
	<text transform="matrix(1.0000000000000000 0.0000000000000000 0.0000000000000000 1.0000000000000000 25.00 19.00)" xml:space="preserve">
		<tspan style=" font-family:Segoe UI; font-size:8.123852pt;" letter-spacing="0.00em" fill="#000000" fill-opacity="1" stroke-width="0.2" stroke-linejoin="round">S</tspan>
	</text>
	<ellipse fill="none" stroke-width="0.319997" stroke-linejoin="round" stroke="#000000" stroke-opacity="1" cx="265.976" cy="60.302" rx="9.79164" ry="9.7417"/>
	<text transform="matrix(1.0000000000000000 0.0000000000000000 0.0000000000000000 1.0000000000000000 261.00 64.00)" xml:space="preserve">
		<tspan style=" font-family:Segoe UI; font-size:8.123852pt;" letter-spacing="0.00em" fill="#000000" fill-opacity="1" stroke-width="0.2" stroke-linejoin="round">c1</tspan>
	</text>
	<text transform="matrix(1.0000000000000000 0.0000000000000000 0.0000000000000000 1.0000000000000000 37.00 116.00)" xml:space="preserve">
		<tspan style=" font-family:Segoe UI; font-size:8.123852pt;" letter-spacing="0.00em" fill="#000000" fill-opacity="1" stroke-width="0.2" stroke-linejoin="round">c1</tspan>
	</text>
</svg>
