<?xml version="1.0" encoding="utf-8"?>
<!DOCTYPE svg PUBLIC "-//W3C//DTD SVG 1.1//EN" "http://www.w3.org/Graphics/SVG/1.1/DTD/svg11.dtd">
<svg xmlns="http://www.w3.org/2000/svg" xmlns:xlink="http://www.w3.org/1999/xlink" version="1.1" baseProfile="full" width="330.825" height="358.586" viewBox="0 0 330.82 358.59" enable-background="new 0 0 330.82 358.59" xml:space="preserve">
	<line fill="none" stroke-width="0.640004" stroke-linejoin="round" stroke="#000000" stroke-opacity="1" x1="2.89491" y1="290.356" x2="47.1372" y2="297.297"/>
	<line fill="none" stroke-width="0.640004" stroke-linejoin="round" stroke="#989898" stroke-opacity="1" x1="173.288" y1="327.684" x2="173.297" y2="290.369"/>
	<line fill="none" stroke-width="0.640004" stroke-linejoin="round" stroke="#989898" stroke-opacity="1" x1="173.297" y1="288.289" x2="173.315" y2="213.611"/>
	<line fill="none" stroke-width="0.640004" stroke-linejoin="round" stroke="#989898" stroke-opacity="1" x1="173.316" y1="211.231" x2="173.339" y2="113.417"/>
	<line fill="none" stroke-width="0.640004" stroke-linejoin="round" stroke="#000000" stroke-opacity="1" x1="47.3201" y1="297.357" x2="324.836" y2="340.894"/>
	<line fill="none" stroke-width="0.640004" stroke-linejoin="round" stroke="#000000" stroke-opacity="1" x1="47.3393" y1="297.785" x2="47.3804" y2="127.315"/>
	<line fill="none" stroke-width="0.640004" stroke-linejoin="round" stroke="#000000" stroke-opacity="1" x1="47.3257" y1="337.857" x2="47.3354" y2="297.768"/>
	<line fill="none" stroke-width="0.640004" stroke-linejoin="round" stroke="#000000" stroke-opacity="1" x1="47.2678" y1="297.632" x2="83.2534" y2="245.92"/>
	<line fill="none" stroke-width="0.640004" stroke-linejoin="round" stroke="#000000" stroke-opacity="1" x1="92.4553" y1="232.697" x2="105.411" y2="214.08"/>
	<line fill="none" stroke-width="0.640004" stroke-linejoin="round" stroke="#989898" stroke-opacity="1" x1="107.507" y1="211.067" x2="113.976" y2="201.771"/>
	<line fill="none" stroke-width="0.640004" stroke-linejoin="round" stroke="#989898" stroke-opacity="1" x1="116.005" y1="198.856" x2="127.767" y2="181.954"/>
	<path fill="#000000" fill-opacity="1" stroke-width="0.2" stroke-linejoin="round" d="M 45.1337,132.113L 47.4067,130.108L 49.4902,132.104L 47.3042,126.336L 45.1337,132.113 Z "/>
	<path fill="#000000" fill-opacity="1" stroke-width="0.2" stroke-linejoin="round" d="M 320.495,337.673L 322.007,340.299L 319.636,341.944L 325.724,340.95L 320.495,337.673 Z "/>
	<text transform="matrix(1.0000000000000000 0.0000000000000000 0.0000000000000000 1.0000000000000000 323.00 358.00)" xml:space="preserve">
		<tspan style=" font-family:Arial; font-size:11.000000pt;" letter-spacing="0.00em" fill="#000000" fill-opacity="1" stroke-width="0.2" stroke-linejoin="round">x</tspan>
	</text>
	<text transform="matrix(1.0000000000000000 0.0000000000000000 0.0000000000000000 1.0000000000000000 33.00 128.00)" xml:space="preserve">
		<tspan style=" font-family:Arial; font-size:11.000000pt;" letter-spacing="0.00em" fill="#000000" fill-opacity="1" stroke-width="0.2" stroke-linejoin="round">z</tspan>
	</text>
	<text transform="matrix(1.0000000000000000 0.0000000000000000 0.0000000000000000 1.0000000000000000 133.00 184.00)" xml:space="preserve">
		<tspan style=" font-family:Arial; font-size:11.000000pt;" letter-spacing="0.00em" fill="#000000" fill-opacity="1" stroke-width="0.2" stroke-linejoin="round">y</tspan>
	</text>
	<path fill="#989898" fill-opacity="1" stroke-width="0.2" stroke-linejoin="round" stroke="#989898" stroke-opacity="1" d="M 123.409,184.772L 126.392,184.235L 127.139,187.021L 128.259,180.955L 123.409,184.772 Z "/>
	<line fill="none" stroke-width="0.640004" stroke-linejoin="round" stroke="#000000" stroke-opacity="1" x1="33.8411" y1="316.919" x2="47.2875" y2="297.602"/>
	<path fill="none" stroke-width="0.640004" stroke-linejoin="round" stroke="#989898" stroke-opacity="1" d="M 219.34,268.13C 219.402,267.722 219.435,267.312 219.435,266.902C 219.435,246.04 175.968,244.518 175.968,244.518"/>
	<path fill="none" stroke-width="0.640004" stroke-linejoin="round" stroke="#989898" stroke-opacity="1" d="M 170.909,244.655C 159.135,245.281 130.667,248.684 127.575,266.902C 127.391,267.982 127.366,269.027 127.487,270.036"/>
	<path fill="none" stroke-width="0.640004" stroke-linejoin="round" stroke="#989898" stroke-opacity="1" d="M 127.487,270.036C 127.593,270.923 127.812,271.781 128.135,272.612"/>
	<path fill="none" stroke-width="0.640004" stroke-linejoin="round" stroke="#000000" stroke-opacity="1" d="M 128.135,272.612C 135.283,291.008 193.486,295.578 210.977,280.088C 210.977,280.088 217.397,275.051 219.051,269.422"/>
	<path fill="none" stroke-width="0.640004" stroke-linejoin="round" stroke="#989898" stroke-opacity="1" d="M 219.051,269.422C 219.176,268.994 219.275,268.563 219.34,268.13"/>
	<path fill="#FFC800" fill-opacity="1" stroke-width="0.2" stroke-linejoin="round" d="M 84.9343,148.97L 86.9687,145.207L 90.8356,147.302L 85.2988,139.702L 84.9343,148.97 Z "/>
	<path fill="none" stroke-width="0.640004" stroke-linejoin="round" stroke="#989898" stroke-opacity="1" d="M 246.188,179.747C 246.288,179.087 246.341,178.425 246.341,177.763C 246.341,144.043 176.087,141.584 176.087,141.584C 176.087,141.584 175.891,141.581 175.517,141.581"/>
	<path fill="none" stroke-width="0.640004" stroke-linejoin="round" stroke="#989898" stroke-opacity="1" d="M 171.784,141.643C 156.187,142.114 103.251,146.057 97.8694,177.763C 97.5732,179.509 97.5329,181.197 97.7282,182.828"/>
	<path fill="#FFC800" fill-opacity="1" stroke-width="0.2" stroke-linejoin="round" d="M 98.2177,183.909C 99.0719,183.909 99.7643,184.602 99.7643,185.456C 99.7643,186.31 99.0719,187.003 98.2177,187.003C 97.3635,187.003 96.671,186.31 96.671,185.456C 96.671,184.602 97.3635,183.909 98.2177,183.909 Z "/>
	<line fill="none" stroke-width="0.640004" stroke-linejoin="round" stroke="#000000" stroke-opacity="1" x1="44.808" y1="210.484" x2="47.5576" y2="210.491"/>
	<text transform="matrix(1.0000000000000000 0.0000000000000000 0.0000000000000000 1.0000000000000000 1.00 215.00)" xml:space="preserve">
		<tspan style=" font-family:Arial; font-size:11.000000pt;" letter-spacing="0.00em" fill="#000000" fill-opacity="1" stroke-width="0.2" stroke-linejoin="round">f(p)=d</tspan>
	</text>
	<path fill="#FFC800" fill-opacity="1" stroke-width="0.32" stroke-linejoin="round" d="M 88.6971,190.536L 83.9057,192.879L 83.6246,192.304L 88.416,189.961L 88.6971,190.536 Z M 79.1143,195.221L 74.323,197.564L 74.0419,196.989L 78.8333,194.646L 79.1143,195.221 Z M 69.5316,199.906L 64.7402,202.249L 64.4592,201.674L 69.2505,199.331L 69.5316,199.906 Z M 59.9489,204.591L 55.1575,206.934L 54.8764,206.359L 59.6678,204.016L 59.9489,204.591 Z M 50.3661,209.276L 47.4761,210.689L 47.195,210.114L 50.0851,208.701L 50.3661,209.276 Z M 98.2798,185.851L 93.4884,188.194L 93.2073,187.619L 97.9987,185.276L 98.2798,185.851 Z "/>
	<text transform="matrix(0.9999998807907103 0.0000000000000000 0.0000000000000000 0.9999998807907103 209.00 244.00)" xml:space="preserve">
		<tspan style=" font-family:Arial; font-size:11.000000pt;" letter-spacing="0.00em" fill="#000000" fill-opacity="1" stroke-width="0.2" stroke-linejoin="round">by-ax=0</tspan>
	</text>
	<path fill="#FFC800" fill-opacity="1" stroke-width="0.2" stroke-linejoin="round" stroke="#FFC800" stroke-opacity="1" d="M 111.516,222.633L 109.689,226.564L 105.767,224.576L 111.509,232.02L 111.516,222.633 Z "/>
	<line fill="none" stroke-width="1.6" stroke-linejoin="round" stroke="#FFC800" stroke-opacity="1" x1="98.2124" y1="185.397" x2="109.674" y2="227.09"/>
	<path fill="#FFC800" fill-opacity="1" stroke-width="0.2" stroke-linejoin="round" d="M 173.254,325.758C 174.108,325.758 174.8,326.451 174.8,327.305C 174.8,328.159 174.108,328.852 173.254,328.852C 172.4,328.852 171.707,328.159 171.707,327.305C 171.707,326.451 172.4,325.758 173.254,325.758 Z "/>
	<text transform="matrix(0.9999999403953552 0.0000000000000000 0.0000000000000000 0.9999999403953552 63.00 148.00)" xml:space="preserve">
		<tspan style=" font-family:Arial; font-size:11.000000pt;" letter-spacing="0.00em" fill="#000000" fill-opacity="1" stroke-width="0.2" stroke-linejoin="round">Nv</tspan>
	</text>
	<text transform="matrix(0.9999998807907103 0.0000000000000000 0.0000000000000000 0.9999998807907103 81.00 243.00)" xml:space="preserve">
		<tspan style=" font-family:Arial; font-size:11.000000pt;" letter-spacing="0.00em" fill="#000000" fill-opacity="1" stroke-width="0.2" stroke-linejoin="round">Nw</tspan>
	</text>
	<text transform="matrix(0.9999998807907103 0.0000000000000000 0.0000000000000000 0.9999998807907103 166.00 344.00)" xml:space="preserve">
		<tspan style=" font-family:Arial; font-size:11.000000pt;" letter-spacing="0.00em" fill="#000000" fill-opacity="1" stroke-width="0.2" stroke-linejoin="round">Nu</tspan>
	</text>
	<path fill="none" stroke-width="0.640004" stroke-linejoin="round" stroke="#FFC800" stroke-opacity="1" d="M 98.5146,184.942C 110.123,214.815 204.636,222.235 233.037,197.082C 233.037,197.082 243.463,188.902 246.148,179.762"/>
	<path fill="#989898" fill-opacity="1" stroke-width="0.2" stroke-linejoin="round" d="M 173.313,266.041C 174.167,266.041 174.859,266.734 174.859,267.588C 174.859,268.442 174.167,269.134 173.313,269.134C 172.458,269.134 171.766,268.442 171.766,267.588C 171.766,266.734 172.458,266.041 173.313,266.041 Z "/>
	<path fill="#989898" fill-opacity="1" stroke-width="0.2" stroke-linejoin="round" d="M 173.213,176.338C 174.067,176.338 174.759,177.03 174.759,177.884C 174.759,178.739 174.067,179.431 173.213,179.431C 172.359,179.431 171.666,178.739 171.666,177.884C 171.666,177.03 172.359,176.338 173.213,176.338 Z "/>
	<line fill="none" stroke-width="1.6" stroke-linejoin="round" stroke="#FFC800" stroke-opacity="1" x1="86.6208" y1="143.811" x2="98.0827" y2="185.504"/>
</svg>
