<?xml version="1.0" encoding="utf-8"?>
<!DOCTYPE svg PUBLIC "-//W3C//DTD SVG 1.1//EN" "http://www.w3.org/Graphics/SVG/1.1/DTD/svg11.dtd">
<svg xmlns="http://www.w3.org/2000/svg" xmlns:xlink="http://www.w3.org/1999/xlink" version="1.1" baseProfile="full" width="116.246" height="47.661" viewBox="0 0 116.25 47.66" enable-background="new 0 0 116.25 47.66" xml:space="preserve">
	<g>
		<path fill="#FFFFFF" fill-opacity="1" stroke-width="0.2" stroke-linejoin="round" d="M 11.3333,40.6924L 9.52838,40.8687L 5.4263,33.9414L 0.318008,30.8456L 4.61361,39.0498L 9.82507,43.8354C 14.8817,48.2341 18.9709,47.2925 18.9709,47.2925L 19.703,47.2194L 98.1775,39.9521L 103.955,42.2097L 109.315,43.6996C 110.205,43.8738 112.759,43.9124 113.92,43.835C 115.081,43.7576 116.622,42.7932 115.867,41.0903C 115.113,39.3876 113.03,37.7593 113.03,37.7593C 113.03,37.7593 110.636,35.5317 107.337,33.713L 115.52,13.1396C 115.52,13.1396 115.849,12.501 115.471,11.8044L 110.141,1.7334L 104.426,0.282349L 106.245,7.22876C 106.245,7.22876 106.381,8.75732 105.781,9.1637L 88.786,21.0031L 84.2307,19.781L 82.4505,24.8506L 78.0518,24.5151L 74.1351,22.9027L 74.0416,22.8673C 74.3652,22.8308 75.5351,21.5586 75.5351,21.5586C 75.5351,21.5586 74.1093,21.9772 71.5842,22.2095C 71.5842,22.2095 69.3525,21.703 67.6692,22.1481L 67.3596,22.6318L 67.9723,23.2769C 67.9723,23.2769 64.2959,23.4944 63.1607,25.1456C 63.1607,25.1456 63.9024,24.7651 67.295,24.3458L 68.4044,23.9105C 70.3494,25.1172 71.3911,25.7913 71.3911,25.7913L 68.9317,25.157L 70.0653,29.2123L 67.1629,30.3345L 11.3333,40.6924 Z "/>
		<path fill="none" fill-rule="evenodd" stroke-width="0.640004" stroke-linejoin="round" stroke="#000000" stroke-opacity="1" d="M 9.57378,40.9067L 11.3431,40.7113L 67.1498,30.3279L 70.1296,29.2635L 68.9687,25.1421L 74.8767,26.761L 80.4236,31.3533L 70.1228,29.2766"/>
		<path fill="none" stroke-width="0.640004" stroke-linejoin="round" stroke="#000000" stroke-opacity="1" d="M 93.7088,26.8801L 89.5293,21.23L 84.2275,19.7788L 82.5408,24.8618L 93.7055,26.8547C 93.7055,26.8549 96.8512,27.9868 100.463,29.8444"/>
		<path fill="none" stroke-width="0.640004" stroke-linejoin="round" stroke="#000000" stroke-opacity="1" d="M 107.357,33.7556C 107.357,33.7556 96.766,25.6029 78.1131,24.5194L 74.2709,22.9594C 74.2709,22.9594 70.8848,21.4951 67.6857,22.166L 67.4245,22.6207L 68.0242,23.2676"/>
		<path fill="none" stroke-width="0.640004" stroke-linejoin="round" stroke="#000000" stroke-opacity="1" d="M 71.4362,25.8153C 71.4362,25.8153 70.3945,25.1414 68.4337,23.9546"/>
		<path fill="none" stroke-width="0.640004" stroke-linejoin="round" stroke="#000000" stroke-opacity="1" d="M 75.5802,21.5826C 75.5802,21.5826 74.4103,22.8549 74.0491,22.8678"/>
		<path fill="none" stroke-width="0.640004" stroke-linejoin="round" stroke="#000000" stroke-opacity="1" d="M 75.5632,21.5536C 75.5632,21.5536 75.04,21.8278 71.5055,22.1632"/>
		<path fill="none" stroke-width="0.640004" stroke-linejoin="round" stroke="#000000" stroke-opacity="1" d="M 68.9467,23.2673L 68.908,23.7188L 67.36,24.3896C 67.36,24.3896 63.9287,24.7766 63.3482,25.1249C 62.7677,25.4731 63.89,23.3834 68.9467,23.2673 Z "/>
		<path fill="none" stroke-width="0.640004" stroke-linejoin="round" stroke="#000000" stroke-opacity="1" d="M 13.2297,46.171C 13.2297,46.171 11.0396,45.4229 4.65425,39.115L 0.320007,30.8335L 5.37667,33.981C 5.36637,34.0995 9.46846,40.833 11.584,44.4966C 13.6995,48.16 19.7616,47.2571 19.7616,47.2571L 98.2361,39.9897L 104.014,42.2473L 109.373,43.7373C 110.264,43.9114 112.818,43.9501 113.979,43.8727C 115.14,43.7953 116.68,42.8308 115.926,41.1281C 115.171,39.4253 113.089,37.7969 113.089,37.7969C 113.089,37.797 110.694,35.5695 107.395,33.7507L 115.578,13.1772C 115.578,13.1772 115.907,12.5387 115.53,11.8422L 110.199,1.77112L 104.485,0.319946L 106.304,7.26636C 106.304,7.26636 106.439,8.79492 105.839,9.20142L 88.8445,21.0408"/>
		<path fill="none" stroke-width="0.640004" stroke-linejoin="round" stroke="#000000" stroke-opacity="1" d="M 113.032,37.7454L 112.645,37.9775L 113.109,38.4032C 113.109,38.4032 113.631,38.7836 111.89,38.9771L 111.136,38.5193C 111.136,38.5193 108.671,40.546 109.174,43.642"/>
		<path fill="none" stroke-width="0.640004" stroke-linejoin="round" stroke="#000000" stroke-opacity="1" d="M 111.458,36.9326C 111.458,36.9326 110.736,37.9387 109.755,38.1194L 106.35,35.5652C 106.35,35.5652 107.047,34.688 108.104,34.3784L 111.458,36.9326 Z "/>
		<path fill="none" stroke-width="0.640004" stroke-linejoin="round" stroke="#000000" stroke-opacity="1" d="M 111.443,36.9711L 108.071,35.907L 108.076,34.4219"/>
		<line fill="none" stroke-width="0.640004" stroke-linejoin="round" stroke="#000000" stroke-opacity="1" x1="108.047" y1="35.9214" x2="107.438" y2="36.3488"/>
		<path fill="none" stroke-width="0.640004" stroke-linejoin="round" stroke="#000000" stroke-opacity="1" d="M 104.46,31.963L 103.944,32.7241C 103.944,32.7241 101.474,34.0688 99.2036,33.9657C 96.9332,33.8625 93.6309,32.7273 93.6309,32.7273C 93.6309,32.7273 81.1956,28.2898 80.7313,28.0835C 80.7313,28.0835 79.1381,27.5223 78.261,26.0776C 78.261,26.0776 77.6611,24.8198 79.3833,24.7039L 80.5249,24.7039"/>
		<path fill="none" stroke-width="0.640004" stroke-linejoin="round" stroke="#000000" stroke-opacity="1" d="M 104.616,10.0729L 107.748,10.2913L 99.4925,16.9731L 95.038,16.7209"/>
		<path fill="none" stroke-width="0.640004" stroke-linejoin="round" stroke="#000000" stroke-opacity="1" d="M 44.1663,34.6226L 47.2106,36.2738L 17.3866,42.0012L 14.9615,40.0341"/>
		<path fill="none" stroke-width="0.640004" stroke-linejoin="round" stroke="#000000" stroke-opacity="1" d="M 94.4497,40.267C 94.4497,40.267 94.9915,40.0348 94.8883,39.8542C 94.7851,39.6736 94.7851,38.5383 88.5933,35.4939C 82.4014,32.4497 80.4923,31.4177 80.4923,31.4177L 80.3956,31.3549"/>
		<path fill="none" stroke-width="0.640004" stroke-linejoin="round" stroke="#000000" stroke-opacity="1" d="M 94.4265,40.3354C 94.4265,40.3354 94.8009,40.0518 94.8038,39.8438C 94.8063,39.6752 94.7006,38.5278 88.5088,35.4836C 82.317,32.4393 80.4079,31.4073 80.4079,31.4073L 80.3111,31.3445"/>
		<line fill="none" stroke-width="0.640004" stroke-linejoin="round" stroke="#000000" stroke-opacity="1" x1="115.855" y1="12.7502" x2="115.7" y2="12.6987"/>
		<path fill="none" stroke-width="0.640004" stroke-linejoin="round" stroke="#000000" stroke-opacity="1" d="M 105.422,9.48352C 105.422,9.48352 111.775,9.99463 112.975,10.5493C 114.175,11.104 114.832,11.6846 114.832,11.6846L 115.426,12.3037C 115.426,12.3037 115.632,12.4843 115.632,12.8068"/>
		<path fill="none" stroke-width="0.640004" stroke-linejoin="round" stroke="#000000" stroke-opacity="1" d="M 19.8635,47.1423C 19.8635,47.1423 18.7799,45.2848 17.0772,44.1239C 15.3744,42.9629 11.3497,40.8732 11.3497,40.8732L 11.1369,40.7618"/>
		<line fill="none" stroke-width="0.640004" stroke-linejoin="round" stroke="#000000" stroke-opacity="1" x1="113.571" y1="11.642" x2="106.554" y2="22.2712"/>
		<line fill="none" stroke-width="0.640004" stroke-linejoin="round" stroke="#000000" stroke-opacity="1" x1="18.9394" y1="44.3555" x2="63.211" y2="38.886"/>
	</g>
</svg>
