<?xml version="1.0" encoding="utf-8"?>
<!DOCTYPE svg PUBLIC "-//W3C//DTD SVG 1.1//EN" "http://www.w3.org/Graphics/SVG/1.1/DTD/svg11.dtd">
<svg xmlns="http://www.w3.org/2000/svg" xmlns:xlink="http://www.w3.org/1999/xlink" version="1.1" baseProfile="full" width="399.72" height="410.854" viewBox="0 0 399.72 410.85" enable-background="new 0 0 399.72 410.85" xml:space="preserve">
	<path fill="#CCD3DA" fill-opacity="1" stroke-width="0.2" stroke-linejoin="round" d="M 60.2057,401.158C 60.2057,401.158 71.6748,407.155 73.029,407.275C 82.5084,408.119 114.131,413.315 126.274,406.616C 126.274,406.616 140.591,403.743 155.85,394.305C 171.11,384.866 148.104,341.576 148.104,341.576C 148.104,341.576 143.793,335.733 134.063,325.387C 114.29,304.359 89.4283,301.524 89.4283,301.524C 89.4283,301.524 27.9072,275.691 18.7837,289.226C 18.7836,289.226 -27.3487,307.517 34.8713,383.876L 60.2057,401.158 Z "/>
	<path fill="#E6E8E9" fill-opacity="1" stroke-width="0.2" stroke-linejoin="round" d="M 135.599,284.826C 135.599,284.826 142.161,265.397 166.475,258.965C 190.79,252.533 239.419,255.671 288.048,241.945C 336.677,228.219 377.063,258.965 377.063,258.965C 377.063,258.965 414.993,306.888 344.481,349.792C 273.969,392.695 197.575,350.243 190.79,344.298C 184.005,338.352 146.088,340.442 137.798,325.477C 129.507,310.512 129.439,297.794 135.599,284.826 Z "/>
	<path fill="#6884A1" fill-opacity="1" stroke-width="0.2" stroke-linejoin="round" d="M 183.353,211.196C 183.353,211.196 176.509,214.222 232.641,219.676C 232.641,219.676 249.19,220.265 261.35,208.745C 299.903,172.22 292.575,171.672 299.103,158.185C 304.92,146.165 312.438,132.727 312.438,132.727C 312.438,132.727 320.363,104.414 309.664,87.2872C 275.211,32.1296 226.592,48.4205 226.592,48.4205C 226.592,48.4205 197.259,50.0204 184.352,66.1271C 184.352,66.1272 167.561,83.0403 166.889,129.825C 166.889,129.825 164.324,167.57 166.713,172.318C 169.019,176.902 183.111,211.009 183.353,211.196 Z "/>
	<path fill="#FFC800" fill-opacity="1" stroke-width="0.2" stroke-linejoin="round" d="M 369.563,323.958C 370.757,323.958 371.725,324.926 371.725,326.12C 371.725,327.314 370.757,328.282 369.563,328.282C 368.369,328.282 367.401,327.314 367.401,326.12C 367.401,324.926 368.369,323.958 369.563,323.958 Z "/>
	<path fill="#FFC800" fill-opacity="1" stroke-width="0.2" stroke-linejoin="round" d="M 330.09,290.138C 331.284,290.138 332.252,291.106 332.252,292.3C 332.252,293.494 331.284,294.462 330.09,294.462C 328.896,294.462 327.928,293.494 327.928,292.3C 327.928,291.106 328.896,290.138 330.09,290.138 Z "/>
	<path fill="#FFC800" fill-opacity="1" stroke-width="0.2" stroke-linejoin="round" d="M 262.507,299.998C 263.701,299.998 264.669,300.966 264.669,302.16C 264.669,303.354 263.701,304.322 262.507,304.322C 261.313,304.322 260.345,303.354 260.345,302.16C 260.345,300.966 261.313,299.998 262.507,299.998 Z "/>
	<path fill="#FFC800" fill-opacity="1" stroke-width="0.2" stroke-linejoin="round" d="M 189.749,299.998C 190.944,299.998 191.911,300.966 191.911,302.16C 191.911,303.354 190.944,304.322 189.749,304.322C 188.555,304.322 187.587,303.354 187.587,302.16C 187.587,300.966 188.555,299.998 189.749,299.998 Z "/>
	<path fill="#FFFFFF" fill-opacity="1" stroke-width="0.2" stroke-linejoin="round" d="M 288.452,142.03C 289.646,142.03 290.614,142.998 290.614,144.192C 290.614,145.386 289.646,146.354 288.452,146.354C 287.258,146.354 286.29,145.386 286.29,144.192C 286.29,142.998 287.258,142.03 288.452,142.03 Z "/>
	<path fill="#FFFFFF" fill-opacity="1" stroke-width="0.2" stroke-linejoin="round" d="M 208.758,61.6665C 209.952,61.6665 210.92,62.6345 210.92,63.8286C 210.92,65.0226 209.952,65.9906 208.758,65.9906C 207.564,65.9906 206.596,65.0226 206.596,63.8286C 206.596,62.6345 207.564,61.6665 208.758,61.6665 Z "/>
	<path fill="#FF5000" fill-opacity="1" stroke-width="0.2" stroke-linejoin="round" d="M 204.229,211.466C 205.423,211.466 206.391,212.434 206.391,213.628C 206.391,214.822 205.423,215.79 204.229,215.79C 203.035,215.79 202.067,214.822 202.067,213.628C 202.067,212.434 203.035,211.466 204.229,211.466 Z "/>
	<path fill="#FFFFFF" fill-opacity="1" stroke-width="0.2" stroke-linejoin="round" d="M 207.035,181.153C 208.23,181.153 209.198,182.121 209.198,183.315C 209.198,184.509 208.23,185.477 207.035,185.477C 205.841,185.477 204.873,184.509 204.873,183.315C 204.873,182.121 205.841,181.153 207.035,181.153 Z "/>
	<path fill="#FFC800" fill-opacity="1" stroke-width="0.2" stroke-linejoin="round" d="M 71.3904,338.143C 72.5845,338.143 73.5525,339.111 73.5525,340.305C 73.5525,341.499 72.5845,342.467 71.3904,342.467C 70.1963,342.467 69.2283,341.499 69.2283,340.305C 69.2283,339.111 70.1963,338.143 71.3904,338.143 Z "/>
	<path fill="#FFC800" fill-opacity="1" stroke-width="0.2" stroke-linejoin="round" d="M 62.9126,329.344C 64.1066,329.344 65.0746,330.312 65.0746,331.506C 65.0746,332.7 64.1066,333.668 62.9126,333.668C 61.7185,333.668 60.7505,332.7 60.7505,331.506C 60.7505,330.312 61.7185,329.344 62.9126,329.344 Z "/>
	<path fill="#043668" fill-opacity="1" stroke-width="0.2" stroke-linejoin="round" d="M 118.935,11.1629C 118.935,11.1629 103.451,-2.15334 82.7334,17.1301C 61.6047,36.7961 45.3586,44.2209 48.9606,69.0412C 48.9607,69.0412 57.2316,147.223 127.888,78.5956L 131.488,63.5152C 131.488,63.5152 135.935,35.5113 118.935,11.1629 Z "/>
	<path fill="#FF5000" fill-opacity="1" stroke-width="0.2" stroke-linejoin="round" d="M 106.193,29.2637C 107.387,29.2637 108.355,30.2317 108.355,31.4258C 108.355,32.6199 107.387,33.5879 106.193,33.5879C 104.999,33.5879 104.031,32.6199 104.031,31.4258C 104.031,30.2317 104.999,29.2637 106.193,29.2637 Z "/>
	<line fill="none" stroke-width="0.64" stroke-linejoin="round" stroke="#000000" stroke-opacity="1" x1="251.557" y1="361.195" x2="251.557" y2="358.836"/>
	<line fill="none" stroke-width="0.64" stroke-linejoin="round" stroke="#000000" stroke-opacity="1" x1="336.553" y1="361.195" x2="336.553" y2="358.836"/>
	<line fill="none" stroke-width="0.64" stroke-linejoin="round" stroke="#FFFFFF" stroke-opacity="1" x1="188.439" y1="64.7182" x2="190.697" y2="64.7198"/>
	<line fill="none" stroke-width="0.64" stroke-linejoin="round" stroke="#FFFFFF" stroke-opacity="1" x1="188.439" y1="163.658" x2="190.697" y2="163.66"/>
	<line fill="none" stroke-width="0.64" stroke-linejoin="round" stroke="#000000" stroke-opacity="1" x1="188.357" y1="262.453" x2="190.514" y2="262.456"/>
	<path fill="none" stroke-width="0.640004" stroke-linejoin="round" stroke="#000000" stroke-opacity="1" d="M 188.228,59.2372L 188.228,59.2162L 194.616,55.4294L 183.416,50.3094L 188.228,46.7894L 188.228,17.037"/>
	<rect x="355.593" y="45.3188" fill="none" stroke-width="0.64" stroke-linejoin="round" stroke="#000000" stroke-opacity="1" width="14.255" height="95.3727"/>
	<g>
		<line fill="none" stroke-width="0.64" stroke-linejoin="round" stroke="#000000" stroke-opacity="1" x1="57.5301" y1="361.195" x2="57.53" y2="358.836"/>
		<path fill="none" stroke-width="0.640004" stroke-linejoin="round" stroke="#000000" stroke-opacity="1" d="M 187.654,361.343L 182.633,361.343L 178.846,354.955L 173.726,366.155L 170.206,361.343L 134.25,361.343"/>
		<line fill="none" stroke-width="0.640004" stroke-linejoin="round" stroke="#000000" stroke-opacity="1" x1="76.0602" y1="361.343" x2="-7.62939e-006" y2="361.346"/>
		<line fill="none" stroke-width="0.640004" stroke-linejoin="round" stroke="#FFFFFF" stroke-opacity="1" x1="134.25" y1="361.343" x2="75.9601" y2="361.343"/>
	</g>
	<g>
		<line fill="none" stroke-width="0.64" stroke-linejoin="round" stroke="#000000" stroke-opacity="1" x1="355.589" y1="92.5318" x2="357.664" y2="92.5318"/>
		<line fill="none" stroke-width="0.64" stroke-linejoin="round" stroke="#000000" stroke-opacity="1" x1="367.484" y1="92.5318" x2="369.6" y2="92.5318"/>
		<line fill="none" stroke-width="0.64" stroke-linejoin="round" stroke="#000000" stroke-opacity="1" x1="355.78" y1="116.925" x2="357.854" y2="116.925"/>
		<line fill="none" stroke-width="0.64" stroke-linejoin="round" stroke="#000000" stroke-opacity="1" x1="367.674" y1="116.925" x2="369.79" y2="116.925"/>
		<line fill="none" stroke-width="0.64" stroke-linejoin="round" stroke="#FFFFFF" stroke-opacity="1" x1="355.9" y1="69.3337" x2="357.723" y2="69.3337"/>
		<line fill="none" stroke-width="0.64" stroke-linejoin="round" stroke="#FFFFFF" stroke-opacity="1" x1="367.543" y1="69.3337" x2="369.529" y2="69.3337"/>
	</g>
	<g>
		<text transform="matrix(0.9999998807907103 0.0000000000000000 0.0000000000000000 0.9999998807907103 173.00 266.00)" xml:space="preserve">
			<tspan style=" font-family:Segoe UI; font-size:8.000000pt;" letter-spacing="0.00em" fill="#000000" fill-opacity="1" stroke-width="0.32" stroke-linejoin="round">50</tspan>
		</text>
		<text transform="matrix(0.9999998807907103 0.0000000000000000 0.0000000000000000 0.9999998807907103 329.00 378.00)" xml:space="preserve">
			<tspan style=" font-family:Segoe UI; font-size:8.000000pt;" letter-spacing="0.00em" fill="#000000" fill-opacity="1" stroke-width="0.32" stroke-linejoin="round">10^3</tspan>
		</text>
		<text transform="matrix(0.9999998807907103 0.0000000000000000 0.0000000000000000 0.9999998807907103 243.00 378.00)" xml:space="preserve">
			<tspan style=" font-family:Segoe UI; font-size:8.000000pt;" letter-spacing="0.00em" fill="#000000" fill-opacity="1" stroke-width="0.32" stroke-linejoin="round">10^2</tspan>
		</text>
		<text transform="matrix(0.9999999403953552 0.0000000000000000 0.0000000000000000 0.9999999403953552 167.00 68.00)" xml:space="preserve">
			<tspan style=" font-family:Segoe UI; font-size:8.000000pt;" letter-spacing="0.00em" fill="#000000" fill-opacity="1" stroke-width="0.32" stroke-linejoin="round">150</tspan>
		</text>
		<text transform="matrix(0.9999999403953552 0.0000000000000000 0.0000000000000000 0.9999999403953552 341.00 12.00)" xml:space="preserve">
			<tspan style=" font-family:Segoe UI; font-size:8.000000pt;" letter-spacing="0.00em" fill="#000000" fill-opacity="1" stroke-width="0.32" stroke-linejoin="round">power-</tspan>
			<tspan x="0" dy="1.35em" style=" font-family:Segoe UI; font-size:8.000000pt;" letter-spacing="0.00em" fill="#000000" fill-opacity="1" stroke-width="0.32" stroke-linejoin="round">saving</tspan>
			<tspan x="0" dy="1.35em" style=" font-family:Segoe UI; font-size:8.000000pt;" letter-spacing="0.00em" fill="#000000" fill-opacity="1" stroke-width="0.32" stroke-linejoin="round">schedule</tspan>
		</text>
		<text transform="matrix(0.9999998807907103 0.0000000000000000 0.0000000000000000 0.9999998807907103 47.00 378.00)" xml:space="preserve">
			<tspan style=" font-family:Segoe UI; font-size:8.000000pt;" letter-spacing="0.00em" fill="#000000" fill-opacity="1" stroke-width="0.32" stroke-linejoin="round">-10</tspan>
		</text>
		<text transform="matrix(0.9999999403953552 0.0000000000000000 0.0000000000000000 0.9999999403953552 363.00 377.00)" xml:space="preserve">
			<tspan style=" font-family:Segoe UI; font-size:9.999166pt;" letter-spacing="0.00em" fill="#000000" fill-opacity="1" stroke-width="0.32" stroke-linejoin="round">M&amp;CE</tspan>
		</text>
		<text transform="matrix(0.9999998807907103 0.0000000000000000 0.0000000000000000 0.9999998807907103 167.00 167.00)" xml:space="preserve">
			<tspan style=" font-family:Segoe UI; font-size:8.000000pt;" letter-spacing="0.00em" fill="#FFFFFF" fill-opacity="1" stroke-width="0.64" stroke-linejoin="round">100</tspan>
		</text>
		<text transform="matrix(0.9999999403953552 0.0000000000000000 0.0000000000000000 0.9999999403953552 343.00 150.00)" xml:space="preserve">
			<tspan style=" font-family:Segoe UI; font-size:8.000000pt;" letter-spacing="0.00em" fill="#000000" fill-opacity="1" stroke-width="0.32" stroke-linejoin="round">energy-</tspan>
			<tspan x="0" dy="1.35em" style=" font-family:Segoe UI; font-size:8.000000pt;" letter-spacing="0.00em" fill="#000000" fill-opacity="1" stroke-width="0.32" stroke-linejoin="round">optimal </tspan>
			<tspan x="0" dy="1.35em" style=" font-family:Segoe UI; font-size:8.000000pt;" letter-spacing="0.00em" fill="#000000" fill-opacity="1" stroke-width="0.32" stroke-linejoin="round">path</tspan>
		</text>
		<text transform="matrix(0.9999998807907103 0.0000000000000000 0.0000000000000000 0.9999998807907103 276.00 160.00)" xml:space="preserve">
			<tspan style=" font-family:Segoe UI; font-size:8.000000pt;" letter-spacing="0.00em" fill="#FFFFFF" fill-opacity="1" stroke-width="0.32" stroke-linejoin="round">fixed</tspan>
			<tspan style=" font-family:Segoe UI; font-size:8.000000pt;" letter-spacing="0.00em" fill="#000000" fill-opacity="1" stroke-width="0.32" stroke-linejoin="round">-wings</tspan>
		</text>
		<text transform="matrix(1.0000000000000000 0.0000000000000000 0.0000000000000000 1.0000000000000000 126.00 10.00)" xml:space="preserve">
			<tspan style=" font-family:Segoe UI; font-size:9.999166pt;" letter-spacing="0.00em" fill="#000000" fill-opacity="1" stroke-width="0.2" stroke-linejoin="round">flight time</tspan>
		</text>
		<text transform="matrix(1.0000000000000000 0.0000000000000000 0.0000000000000000 1.0000000000000000 111.00 321.00)" xml:space="preserve">
			<tspan style=" font-family:Segoe UI; font-size:8.000000pt;" letter-spacing="0.00em" fill="#000000" fill-opacity="1" stroke-width="0.2" stroke-linejoin="round">DJI Mavic Mini (h)</tspan>
		</text>
		<text transform="matrix(1.0000000000000000 0.0000000000000000 0.0000000000000000 1.0000000000000000 298.00 355.00)" xml:space="preserve">
			<tspan style=" font-family:Segoe UI; font-size:8.000000pt;" letter-spacing="0.00em" fill="#000000" fill-opacity="1" stroke-width="0.2" stroke-linejoin="round">DJI Agras T16 (g)</tspan>
		</text>
		<text transform="matrix(1.0000000000000000 0.0000000000000000 0.0000000000000000 1.0000000000000000 260.00 287.00)" xml:space="preserve">
			<tspan style=" font-family:Segoe UI; font-size:8.000000pt;" letter-spacing="0.00em" fill="#000000" fill-opacity="1" stroke-width="0.2" stroke-linejoin="round">DJI Matrice 600 (f)</tspan>
		</text>
		<text transform="matrix(1.0000000000000000 0.0000000000000000 0.0000000000000000 1.0000000000000000 198.00 352.00)" xml:space="preserve">
			<tspan style=" font-family:Segoe UI; font-size:8.000000pt;" letter-spacing="0.00em" fill="#000000" fill-opacity="1" stroke-width="0.2" stroke-linejoin="round">DJI Phantom 4 (j)</tspan>
		</text>
		<text transform="matrix(1.0000000000000000 0.0000000000000000 0.0000000000000000 1.0000000000000000 200.00 122.00)" xml:space="preserve">
			<tspan style=" font-family:Segoe UI; font-size:8.000000pt;" letter-spacing="0.00em" fill="#FFFFFF" fill-opacity="1" stroke-width="0.2" stroke-linejoin="round">Cumulus (b)</tspan>
		</text>
		<text transform="matrix(1.0000000000000000 0.0000000000000000 0.0000000000000000 1.0000000000000000 146.00 233.00)" xml:space="preserve">
			<tspan style=" font-family:Segoe UI; font-size:8.000000pt;" letter-spacing="0.00em" fill="#000000" fill-opacity="1" stroke-width="0.2" stroke-linejoin="round">Opterra (e)</tspan>
		</text>
		<text transform="matrix(1.0000000000000000 0.0000000000000000 0.0000000000000000 1.0000000000000000 225.00 192.00)" xml:space="preserve">
			<tspan style=" font-family:Segoe UI; font-size:8.000000pt;" letter-spacing="0.00em" fill="#FFFFFF" fill-opacity="1" stroke-width="0.2" stroke-linejoin="round">Ebee (d)</tspan>
		</text>
		<text transform="matrix(1.0000000000000000 0.0000000000000000 0.0000000000000000 1.0000000000000000 259.00 137.00)" xml:space="preserve">
			<tspan style=" font-family:Segoe UI; font-size:8.000000pt;" letter-spacing="0.00em" fill="#FFFFFF" fill-opacity="1" stroke-width="0.2" stroke-linejoin="round">Penguin BE</tspan>
			<tspan style=" font-family:Segoe UI; font-size:8.000000pt;" letter-spacing="0.00em" fill="#0000FF" fill-opacity="1" stroke-width="0.2" stroke-linejoin="round"> </tspan>
			<tspan style=" font-family:Segoe UI; font-size:8.000000pt;" letter-spacing="0.00em" fill="#000000" fill-opacity="1" stroke-width="0.2" stroke-linejoin="round">(c)</tspan>
		</text>
		<text transform="matrix(1.0000000000000000 0.0000000000000000 0.0000000000000000 1.0000000000000000 60.00 406.00)" xml:space="preserve">
			<tspan style=" font-family:Segoe UI; font-size:8.000000pt;" letter-spacing="0.00em" fill="#000000" fill-opacity="1" stroke-width="0.2" stroke-linejoin="round">Nano-Hummingbird (l)</tspan>
		</text>
		<text transform="matrix(1.0000000000000000 0.0000000000000000 0.0000000000000000 1.0000000000000000 7.00 339.00)" xml:space="preserve">
			<tspan style=" font-family:Segoe UI; font-size:8.000000pt;" letter-spacing="0.00em" fill="#000000" fill-opacity="1" stroke-width="0.2" stroke-linejoin="round">Delfly II (k)</tspan>
		</text>
		<text transform="matrix(1.0000000000000000 0.0000000000000000 0.0000000000000000 1.0000000000000000 76.00 87.00)" xml:space="preserve">
			<tspan style=" font-family:Segoe UI; font-size:8.000000pt;" letter-spacing="0.00em" fill="#FFFFFF" fill-opacity="1" stroke-width="0.2" stroke-linejoin="round">Skye (a)</tspan>
		</text>
		<text transform="matrix(1.0000000000000000 0.0000000000000000 0.0000000000000000 1.0000000000000000 200.00 257.00)" xml:space="preserve">
			<tspan style=" font-family:Segoe UI; font-size:8.000000pt;" letter-spacing="0.00em" fill="#000000" fill-opacity="1" stroke-width="0.32" stroke-linejoin="round">rotary-wings</tspan>
		</text>
		<text transform="matrix(1.0000000000000000 0.0000000000000000 0.0000000000000000 1.0000000000000000 76.00 337.00)" xml:space="preserve">
			<tspan style=" font-family:Segoe UI; font-size:8.000000pt;" letter-spacing="0.00em" fill="#000000" fill-opacity="1" stroke-width="0.32" stroke-linejoin="round">flapping-wings</tspan>
		</text>
	</g>
	<path fill="#000000" fill-opacity="1" stroke-width="0.2" stroke-linejoin="round" d="M 373.51,359.103L 375.486,361.401L 373.464,363.459L 379.259,361.346L 373.51,359.103 Z "/>
	<line fill="none" stroke-width="0.640004" stroke-linejoin="round" stroke="#000000" stroke-opacity="1" x1="186.089" y1="361.336" x2="375.542" y2="361.337"/>
	<path fill="#000000" fill-opacity="1" stroke-width="0.2" stroke-linejoin="round" d="M 185.985,19.6096L 188.258,17.6048L 190.341,19.6004L 188.155,13.8326L 185.985,19.6096 Z "/>
	<line fill="none" stroke-width="0.640004" stroke-linejoin="round" stroke="#000000" stroke-opacity="1" x1="188.263" y1="372.153" x2="188.263" y2="221.551"/>
	<line fill="none" stroke-width="0.640004" stroke-linejoin="round" stroke="#FFFFFF" stroke-opacity="1" x1="188.263" y1="221.551" x2="188.262" y2="61.9915"/>
	<line fill="none" stroke-width="0.640004" stroke-linejoin="round" stroke="#000000" stroke-opacity="1" x1="188.262" y1="61.9915" x2="188.262" y2="59.075"/>
	<text transform="matrix(0.9999998807907103 0.0000000000000000 0.0000000000000000 0.9999998807907103 11.00 105.00)" xml:space="preserve">
		<tspan style=" font-family:Segoe UI; font-size:8.000000pt;" letter-spacing="0.00em" fill="#000000" fill-opacity="1" stroke-width="0.32" stroke-linejoin="round">lighter-than</tspan>
		<tspan style=" font-family:Segoe UI; font-size:8.000000pt;" letter-spacing="0.00em" fill="#000000" fill-opacity="1" stroke-width="0.32" stroke-linejoin="round">-</tspan>
		<tspan style=" font-family:Segoe UI; font-size:8.000000pt;" letter-spacing="0.00em" fill="#FFFFFF" fill-opacity="1" stroke-width="0.32" stroke-linejoin="round">air</tspan>
	</text>
</svg>
