<?xml version="1.0" encoding="utf-8"?>
<!DOCTYPE svg PUBLIC "-//W3C//DTD SVG 1.1//EN" "http://www.w3.org/Graphics/SVG/1.1/DTD/svg11.dtd">
<svg xmlns="http://www.w3.org/2000/svg" xmlns:xlink="http://www.w3.org/1999/xlink" version="1.1" baseProfile="full" width="315.679" height="256.532" viewBox="0 0 315.68 256.53" enable-background="new 0 0 315.68 256.53" xml:space="preserve">
	<path fill="#FFC800" fill-opacity="1" stroke-width="0.32" stroke-linejoin="round" d="M 31.2248,223.374L 36.5581,223.374L 36.5581,224.014L 31.2248,224.014L 31.2248,223.374 Z M 41.8915,223.374L 47.2248,223.374L 47.2248,224.014L 41.8915,224.014L 41.8915,223.374 Z M 20.5581,223.374L 25.8915,223.374L 25.8915,224.014L 20.5581,224.014L 20.5581,223.374 Z "/>
	<path fill="#000000" fill-opacity="1" stroke-width="0.2" stroke-linejoin="round" d="M 18.0526,14.2226L 20.3255,12.2176L 22.409,14.2134L 20.223,8.44505L 18.0526,14.2226 Z "/>
	<path fill="#000000" fill-opacity="1" stroke-width="0.2" stroke-linejoin="round" d="M 300.997,235.732L 302.974,238.03L 300.952,240.088L 306.747,237.975L 300.997,235.732 Z "/>
	<path fill="none" stroke-width="0.64" stroke-linejoin="round" stroke="#989898" stroke-opacity="1" d="M 34.9772,223.573C 34.9772,219.596 38.2007,216.373 42.1772,216.373C 46.1536,216.373 49.3772,219.597 49.3772,223.573C 49.3772,227.549 46.1536,230.773 42.1772,230.773C 38.2007,230.773 34.9772,227.549 34.9772,223.573 Z "/>
	<path fill="none" stroke-width="0.64" stroke-linejoin="round" stroke="#989898" stroke-opacity="1" d="M 49.471,33.7738C 49.471,29.7973 52.6945,26.5738 56.671,26.5738C 60.6474,26.5738 63.871,29.7973 63.871,33.7738C 63.871,37.7503 60.6474,40.9738 56.671,40.9738C 52.6945,40.9738 49.471,37.7503 49.471,33.7738 Z "/>
	<line fill="none" stroke-width="0.64" stroke-linejoin="round" stroke="#989898" stroke-opacity="1" x1="49.4395" y1="18.3717" x2="49.4395" y2="245.918"/>
	<line fill="none" stroke-width="0.64" stroke-linejoin="round" stroke="#000000" stroke-opacity="1" x1="49.4395" y1="33.7775" x2="49.4395" y2="223.622"/>
	<path fill="none" stroke-width="0.64" stroke-linejoin="round" stroke="#000000" stroke-opacity="1" d="M 49.3772,223.573C 49.3772,227.549 46.1536,230.773 42.1772,230.773C 38.2007,230.773 34.9772,227.549 34.9772,223.573"/>
	<line fill="none" stroke-width="0.64" stroke-linejoin="round" stroke="#989898" stroke-opacity="1" x1="34.8827" y1="18.3619" x2="34.8827" y2="245.909"/>
	<line fill="none" stroke-width="0.64" stroke-linejoin="round" stroke="#000000" stroke-opacity="1" x1="34.8827" y1="33.8032" x2="34.8827" y2="223.648"/>
	<path fill="#FFC800" fill-opacity="1" stroke-width="0.32" stroke-linejoin="round" d="M 31.2249,33.2737L 36.5582,33.2737L 36.5582,33.9136L 31.2249,33.9136L 31.2249,33.2737 Z M 41.8915,33.2737L 47.2249,33.2737L 47.2249,33.9136L 41.8915,33.9136L 41.8915,33.2737 Z M 52.5582,33.2737L 57.8915,33.2737L 57.8915,33.9136L 52.5582,33.9136L 52.5582,33.2737 Z M 63.2249,33.2737L 64.185,33.2737L 64.185,33.9136L 63.2249,33.9136L 63.2249,33.2737 Z M 20.5582,33.2737L 25.8915,33.2737L 25.8915,33.9136L 20.5582,33.9136L 20.5582,33.2737 Z "/>
	<path fill="none" stroke-width="0.64" stroke-linejoin="round" stroke="#000000" stroke-opacity="1" d="M 49.471,33.7738C 49.471,29.7973 52.6945,26.5738 56.671,26.5738C 60.6475,26.5738 63.871,29.7973 63.871,33.7738"/>
	<text transform="matrix(0.9999998807907103 0.0000000000000000 0.0000000000000000 0.9999998807907103 29.00 16.00)" xml:space="preserve">
		<tspan style=" font-family:Segoe UI; font-size:10.000000pt;" letter-spacing="0.00em" fill="#000000" fill-opacity="1" stroke-width="0.32" stroke-linejoin="round">V1</tspan>
	</text>
	<text transform="matrix(0.9999998807907103 0.0000000000000000 0.0000000000000000 0.9999998807907103 65.00 32.00)" xml:space="preserve">
		<tspan style=" font-family:Segoe UI; font-size:10.000000pt;" letter-spacing="0.00em" fill="#000000" fill-opacity="1" stroke-width="0.32" stroke-linejoin="round">V4</tspan>
	</text>
	<text transform="matrix(0.9999998807907103 0.0000000000000000 0.0000000000000000 0.9999998807907103 47.00 16.00)" xml:space="preserve">
		<tspan style=" font-family:Segoe UI; font-size:10.000000pt;" letter-spacing="0.00em" fill="#000000" fill-opacity="1" stroke-width="0.32" stroke-linejoin="round">V3</tspan>
	</text>
	<path fill="#FFC800" fill-opacity="1" stroke-width="0.2" stroke-linejoin="round" d="M 35.0047,222.77C 35.5184,222.77 35.9347,223.186 35.9347,223.7C 35.9347,224.214 35.5184,224.63 35.0047,224.63C 34.4911,224.63 34.0748,224.214 34.0748,223.7C 34.0748,223.186 34.4911,222.77 35.0047,222.77 Z "/>
	<path fill="#FFC800" fill-opacity="1" stroke-width="0.32" stroke-linejoin="round" d="M 34.5628,227.02L 34.5628,224.375L 35.2028,224.375L 35.2028,227.02L 34.5628,227.02 Z M 34.5629,237.687L 34.5629,232.354L 35.2029,232.354L 35.203,237.687L 34.5629,237.687 Z "/>
	<path fill="#FFC800" fill-opacity="1" stroke-width="0.2" stroke-linejoin="round" d="M 49.3348,222.747C 49.8484,222.747 50.2648,223.163 50.2648,223.677C 50.2648,224.19 49.8484,224.607 49.3348,224.607C 48.8211,224.607 48.4048,224.19 48.4048,223.677C 48.4048,223.163 48.8211,222.747 49.3348,222.747 Z "/>
	<path fill="#FFC800" fill-opacity="1" stroke-width="0.2" stroke-linejoin="round" d="M 49.4098,32.4649C 49.9234,32.4649 50.3398,32.8813 50.3398,33.3949C 50.3398,33.9085 49.9234,34.3249 49.4098,34.3249C 48.8961,34.3249 48.4798,33.9085 48.4798,33.3949C 48.4798,32.8813 48.8961,32.4649 49.4098,32.4649 Z "/>
	<path fill="#FFC800" fill-opacity="1" stroke-width="0.2" stroke-linejoin="round" d="M 63.7398,32.4417C 64.2534,32.4417 64.6698,32.8581 64.6698,33.3716C 64.6698,33.8853 64.2534,34.3017 63.7398,34.3017C 63.2262,34.3017 62.8098,33.8853 62.8098,33.3716C 62.8098,32.8581 63.2262,32.4417 63.7398,32.4417 Z "/>
	<path fill="#FFC800" fill-opacity="1" stroke-width="0.32" stroke-linejoin="round" d="M 49.1195,227.018L 49.1195,224.373L 49.7595,224.373L 49.7596,227.018L 49.1195,227.018 Z M 49.1197,237.685L 49.1196,232.351L 49.7596,232.351L 49.7597,237.685L 49.1197,237.685 Z "/>
	<path fill="#FFC800" fill-opacity="1" stroke-width="0.32" stroke-linejoin="round" d="M 63.5468,227.006L 63.5468,221.673L 64.1868,221.673L 64.1868,227.006L 63.5468,227.006 Z M 63.5468,216.34L 63.5468,211.006L 64.1868,211.006L 64.1868,216.34L 63.5468,216.34 Z M 63.5468,205.673L 63.5468,200.34L 64.1868,200.34L 64.1868,205.673L 63.5468,205.673 Z M 63.5468,195.006L 63.5468,189.673L 64.1868,189.673L 64.1868,195.006L 63.5468,195.006 Z M 63.5468,184.34L 63.5468,179.006L 64.1868,179.006L 64.1868,184.34L 63.5468,184.34 Z M 63.5468,173.673L 63.5468,168.34L 64.1868,168.34L 64.1868,173.673L 63.5468,173.673 Z M 63.5468,163.006L 63.5468,157.673L 64.1868,157.673L 64.1868,163.006L 63.5468,163.006 Z M 63.5468,152.34L 63.5468,147.006L 64.1868,147.006L 64.1868,152.34L 63.5468,152.34 Z M 63.5468,141.673L 63.5468,136.34L 64.1868,136.34L 64.1868,141.673L 63.5468,141.673 Z M 63.5468,131.006L 63.5468,125.673L 64.1868,125.673L 64.1868,131.006L 63.5468,131.006 Z M 63.5468,120.34L 63.5468,115.006L 64.1868,115.006L 64.1868,120.34L 63.5468,120.34 Z M 63.5468,109.673L 63.5468,104.34L 64.1868,104.34L 64.1868,109.673L 63.5468,109.673 Z M 63.5468,99.0063L 63.5468,93.673L 64.1868,93.673L 64.1868,99.0063L 63.5468,99.0063 Z M 63.5468,88.3396L 63.5468,83.0063L 64.1868,83.0063L 64.1868,88.3396L 63.5468,88.3396 Z M 63.5468,77.673L 63.5468,72.3396L 64.1868,72.3396L 64.1868,77.673L 63.5468,77.673 Z M 63.5468,67.0063L 63.5468,61.673L 64.1868,61.673L 64.1868,67.0063L 63.5468,67.0063 Z M 63.5468,56.3396L 63.5468,51.0063L 64.1868,51.0063L 64.1868,56.3396L 63.5468,56.3396 Z M 63.5468,45.673L 63.5468,40.3396L 64.1868,40.3396L 64.1868,45.673L 63.5468,45.673 Z M 63.5468,35.0063L 63.5468,33.4474L 64.1868,33.4474L 64.1868,35.0063L 63.5468,35.0063 Z M 63.5468,237.673L 63.5468,232.34L 64.1868,232.34L 64.1868,237.673L 63.5468,237.673 Z "/>
	<text transform="matrix(0.9999998807907103 0.0000000000000000 0.0000000000000000 0.9999998807907103 52.00 223.00)" xml:space="preserve">
		<tspan style=" font-family:Segoe UI; font-size:10.000000pt;" letter-spacing="0.00em" fill="#000000" fill-opacity="1" stroke-width="0.32" stroke-linejoin="round">V2</tspan>
	</text>
	<path fill="none" stroke-width="0.64" stroke-linejoin="round" stroke="#000000" stroke-opacity="1" d="M 10.0117,238.006L 278.032,238.006L 281.819,244.394L 286.939,233.194L 290.459,238.006L 305.212,238.006"/>
	<line fill="none" stroke-width="0.64" stroke-linejoin="round" stroke="#000000" stroke-opacity="1" x1="20.3262" y1="248.037" x2="20.3267" y2="10.8367"/>
	<text transform="matrix(1.0000000000000000 0.0000000000000000 0.0000000000000000 1.0000000000000000 310.00 251.00)" xml:space="preserve">
		<tspan style=" font-family:Segoe UI; font-size:10.000000pt;" letter-spacing="0.00em" fill="#000000" fill-opacity="1" stroke-width="0.32" stroke-linejoin="round">x</tspan>
	</text>
	<text transform="matrix(0.9999999403953552 0.0000000000000000 0.0000000000000000 0.9999999403953552 5.00 6.00)" xml:space="preserve">
		<tspan style=" font-family:Segoe UI; font-size:10.000000pt;" letter-spacing="0.00em" fill="#000000" fill-opacity="1" stroke-width="0.32" stroke-linejoin="round">y</tspan>
	</text>
	<text transform="matrix(0.9999998807907103 0.0000000000000000 0.0000000000000000 0.9999998807907103 0.00 38.00)" xml:space="preserve">
		<tspan style=" font-family:Segoe UI; font-size:10.000000pt;" letter-spacing="0.00em" fill="#000000" fill-opacity="1" stroke-width="0.32" stroke-linejoin="round">ty1</tspan>
	</text>
	<text transform="matrix(0.9999998807907103 0.0000000000000000 0.0000000000000000 0.9999998807907103 1.00 228.00)" xml:space="preserve">
		<tspan style=" font-family:Segoe UI; font-size:10.000000pt;" letter-spacing="0.00em" fill="#000000" fill-opacity="1" stroke-width="0.32" stroke-linejoin="round">ty2</tspan>
	</text>
	<text transform="matrix(0.9999998807907103 0.0000000000000000 0.0000000000000000 0.9999998807907103 24.00 253.00)" xml:space="preserve">
		<tspan style=" font-family:Segoe UI; font-size:10.000000pt;" letter-spacing="0.00em" fill="#000000" fill-opacity="1" stroke-width="0.32" stroke-linejoin="round">ty3</tspan>
	</text>
	<text transform="matrix(0.9999998807907103 0.0000000000000000 0.0000000000000000 0.9999998807907103 41.00 253.00)" xml:space="preserve">
		<tspan style=" font-family:Segoe UI; font-size:10.000000pt;" letter-spacing="0.00em" fill="#000000" fill-opacity="1" stroke-width="0.32" stroke-linejoin="round">ty4</tspan>
	</text>
	<text transform="matrix(0.9999998807907103 0.0000000000000000 0.0000000000000000 0.9999998807907103 59.00 253.00)" xml:space="preserve">
		<tspan style=" font-family:Segoe UI; font-size:10.000000pt;" letter-spacing="0.00em" fill="#000000" fill-opacity="1" stroke-width="0.32" stroke-linejoin="round">ty5</tspan>
	</text>
</svg>
