<?xml version="1.0" encoding="utf-8"?>
<!DOCTYPE svg PUBLIC "-//W3C//DTD SVG 1.1//EN" "http://www.w3.org/Graphics/SVG/1.1/DTD/svg11.dtd">
<svg xmlns="http://www.w3.org/2000/svg" xmlns:xlink="http://www.w3.org/1999/xlink" version="1.1" baseProfile="full" width="403.318" height="292.49" viewBox="0 0 403.32 292.49" enable-background="new 0 0 403.32 292.49" xml:space="preserve">
	<path fill="#ECECEC" fill-opacity="1" stroke-width="0.2" stroke-linejoin="round" d="M 338.302,263.801L 381.105,-8.39233e-005L 102.864,12.1601L 58.144,275.961L 338.302,263.801 Z "/>
	<path fill="none" stroke-width="0.64" stroke-linejoin="round" stroke="#989898" stroke-opacity="1" d="M 147.625,213.372L 173.525,186.312L 132.278,180.785"/>
	<path fill="#989898" fill-opacity="1" stroke-width="0.32" stroke-linejoin="round" d="M 163.329,190.547L 158.365,192.498L 158.131,191.902L 163.095,189.952L 163.329,190.547 Z M 153.402,194.449L 148.438,196.4L 148.204,195.804L 153.168,193.853L 153.402,194.449 Z M 143.474,198.351L 138.511,200.302L 138.276,199.706L 143.24,197.755L 143.474,198.351 Z M 133.547,202.253L 128.583,204.204L 128.349,203.608L 133.313,201.657L 133.547,202.253 Z M 123.62,206.155L 118.656,208.106L 118.422,207.51L 123.385,205.559L 123.62,206.155 Z M 113.692,210.056L 108.728,212.007L 108.494,211.412L 113.458,209.461L 113.692,210.056 Z M 103.765,213.958L 100.009,215.435L 99.7748,214.839L 103.531,213.363L 103.765,213.958 Z M 173.257,186.645L 168.293,188.596L 168.059,188.001L 173.022,186.05L 173.257,186.645 Z "/>
	<line fill="none" stroke-width="0.64" stroke-linejoin="round" stroke="#989898" stroke-opacity="1" x1="55.1846" y1="208.318" x2="99.4269" y2="215.259"/>
	<line fill="none" stroke-width="0.64" stroke-linejoin="round" stroke="#00C800" stroke-opacity="1" x1="68.2145" y1="216.795" x2="99.108" y2="215.54"/>
	<line fill="none" stroke-width="0.64" stroke-linejoin="round" stroke="#989898" stroke-opacity="1" x1="99.5793" y1="215.088" x2="196.732" y2="112.995"/>
	<line fill="none" stroke-width="0.64" stroke-linejoin="round" stroke="#FFAA00" stroke-opacity="1" x1="139.904" y1="221.465" x2="147.623" y2="213.487"/>
	<line fill="none" stroke-width="0.64" stroke-linejoin="round" stroke="#000000" stroke-opacity="1" x1="99.6097" y1="215.319" x2="377.125" y2="258.855"/>
	<path fill="#FFC800" fill-opacity="1" stroke-width="0.32" stroke-linejoin="round" d="M 163.752,67.1159L 158.788,69.0661L 158.554,68.4704L 163.518,66.5202L 163.752,67.1159 Z M 153.824,71.0164L 148.86,72.9667L 148.626,72.3709L 153.59,70.4207L 153.824,71.0164 Z M 143.896,74.9168L 138.932,76.867L 138.698,76.2713L 143.662,74.3211L 143.896,74.9168 Z M 133.968,78.8173L 129.004,80.7676L 128.77,80.1719L 133.734,78.2216L 133.968,78.8173 Z M 124.04,82.7178L 119.076,84.6679L 118.842,84.0722L 123.806,82.122L 124.04,82.7178 Z M 114.112,86.6182L 109.148,88.5685L 108.914,87.9728L 113.878,86.0225L 114.112,86.6182 Z M 104.184,90.5187L 99.9651,92.1761L 99.7311,91.5804L 103.95,89.923L 104.184,90.5187 Z M 173.68,63.2155L 168.716,65.1657L 168.482,64.57L 173.446,62.6198L 173.68,63.2155 Z "/>
	<line fill="none" stroke-width="0.64" stroke-linejoin="round" stroke="#FF0000" stroke-opacity="1" x1="99.629" y1="215.746" x2="99.6701" y2="45.2765"/>
	<path fill="#000000" fill-opacity="1" stroke-width="0.2" stroke-linejoin="round" d="M 97.4234,50.0749L 99.6963,48.0699L 101.78,50.0657L 99.5939,44.2973L 97.4234,50.0749 Z "/>
	<path fill="#000000" fill-opacity="1" stroke-width="0.2" stroke-linejoin="round" d="M 372.784,255.634L 374.297,258.261L 371.926,259.905L 378.014,258.911L 372.784,255.634 Z "/>
	<path fill="#989898" fill-opacity="1" stroke-width="0.2" stroke-linejoin="round" stroke="#989898" stroke-opacity="1" d="M 191.996,115.118L 195.025,115.041L 195.341,117.909L 197.37,112.083L 191.996,115.118 Z "/>
	<line fill="none" stroke-width="0.64" stroke-linejoin="round" stroke="#000000" stroke-opacity="1" x1="99.6614" y1="215.424" x2="348.211" y2="205.313"/>
	<path fill="#000000" fill-opacity="1" stroke-width="0.32" stroke-linejoin="round" d="M 365.896,204.356L 371.224,204.122L 371.252,204.761L 365.924,204.995L 365.896,204.356 Z M 376.552,203.887L 381.88,203.653L 381.908,204.292L 376.58,204.527L 376.552,203.887 Z M 387.208,203.419L 391.613,203.225L 391.641,203.864L 387.237,204.058L 387.208,203.419 Z M 355.239,204.825L 360.567,204.59L 360.596,205.23L 355.267,205.464L 355.239,204.825 Z "/>
	<path fill="#00C800" fill-opacity="1" stroke-width="0.32" stroke-linejoin="round" d="M 51.6916,217.838L 46.3616,218.029L 46.3388,217.389L 51.6687,217.199L 51.6916,217.838 Z M 41.0317,218.219L 35.7017,218.409L 35.6789,217.77L 41.0088,217.579L 41.0317,218.219 Z M 30.3718,218.6L 25.0419,218.79L 25.019,218.15L 30.349,217.96L 30.3718,218.6 Z M 62.3514,217.457L 57.0215,217.648L 56.9986,217.008L 62.3286,216.818L 62.3514,217.457 Z "/>
	<line fill="none" stroke-width="0.64" stroke-linejoin="round" stroke="#000000" stroke-opacity="1" x1="138.115" y1="223.315" x2="140.059" y2="221.371"/>
	<line fill="none" stroke-width="0.64" stroke-linejoin="round" stroke="#989898" stroke-opacity="1" x1="129.663" y1="180.507" x2="132.393" y2="180.83"/>
	<line fill="none" stroke-width="0.64" stroke-linejoin="round" stroke="#989898" stroke-opacity="1" x1="173.526" y1="186.35" x2="173.573" y2="63.0377"/>
	<line fill="none" stroke-width="0.64" stroke-linejoin="round" stroke="#000000" stroke-opacity="1" x1="96.7492" y1="91.8181" x2="99.4988" y2="91.8249"/>
	<text transform="matrix(0.9999999403953552 0.0000000000000000 0.0000000000000000 0.9999999403953552 376.00 276.00)" xml:space="preserve">
		<tspan style=" font-family:Arial; font-size:11.000000pt;" letter-spacing="0.00em" fill="#000000" fill-opacity="1" stroke-width="0.2" stroke-linejoin="round">x</tspan>
	</text>
	<text transform="matrix(1.0000000000000000 0.0000000000000000 0.0000000000000000 1.0000000000000000 198.00 102.00)" xml:space="preserve">
		<tspan style=" font-family:Arial; font-size:11.000000pt;" letter-spacing="0.00em" fill="#000000" fill-opacity="1" stroke-width="0.2" stroke-linejoin="round">y</tspan>
	</text>
	<text transform="matrix(0.9999999403953552 0.0000000000000000 0.0000000000000000 0.9999999403953552 85.00 46.00)" xml:space="preserve">
		<tspan style=" font-family:Arial; font-size:11.000000pt;" letter-spacing="0.00em" fill="#000000" fill-opacity="1" stroke-width="0.2" stroke-linejoin="round">z</tspan>
	</text>
	<line fill="none" stroke-width="0.64" stroke-linejoin="round" stroke="#000000" stroke-opacity="1" x1="83.376" y1="232.109" x2="99.6032" y2="215.062"/>
	<path fill="#989898" fill-opacity="1" stroke-width="0.64" stroke-linejoin="round" d="M 173.236,184.723C 174.09,184.723 174.782,185.415 174.782,186.27C 174.782,187.124 174.09,187.816 173.236,187.816C 172.381,187.816 171.689,187.124 171.689,186.27C 171.689,185.415 172.381,184.723 173.236,184.723 Z "/>
	<text transform="matrix(0.9999999403953552 0.0000000000000000 0.0000000000000000 0.9999999403953552 161.00 289.00)" xml:space="preserve">
		<tspan style=" font-family:Arial; font-size:11.000000pt;" letter-spacing="0.00em" fill="#000000" fill-opacity="1" stroke-width="0.2" stroke-linejoin="round">by-ax=v(x,y)</tspan>
	</text>
	<text transform="matrix(0.9999998807907103 0.0000000000000000 0.0000000000000000 0.9999998807907103 353.00 221.00)" xml:space="preserve">
		<tspan style=" font-family:Arial; font-size:11.000000pt;" letter-spacing="0.00em" fill="#000000" fill-opacity="1" stroke-width="0.2" stroke-linejoin="round">by-ax=0</tspan>
	</text>
	<text transform="matrix(1.0000000000000000 0.0000000000000000 0.0000000000000000 1.0000000000000000 132.00 242.00)" xml:space="preserve">
		<tspan style=" font-family:Arial; font-size:11.000000pt;" letter-spacing="0.00em" fill="#000000" fill-opacity="1" stroke-width="0.2" stroke-linejoin="round">xp</tspan>
	</text>
	<text transform="matrix(1.0000000000000000 0.0000000000000000 0.0000000000000000 1.0000000000000000 117.00 173.00)" xml:space="preserve">
		<tspan style=" font-family:Arial; font-size:11.000000pt;" letter-spacing="0.00em" fill="#000000" fill-opacity="1" stroke-width="0.2" stroke-linejoin="round">yp</tspan>
	</text>
	<text transform="matrix(0.9999998807907103 0.0000000000000000 0.0000000000000000 0.9999998807907103 53.00 96.00)" xml:space="preserve">
		<tspan style=" font-family:Arial; font-size:11.000000pt;" letter-spacing="0.00em" fill="#000000" fill-opacity="1" stroke-width="0.2" stroke-linejoin="round">f(p)=d</tspan>
	</text>
	<path fill="#989898" fill-opacity="1" stroke-width="0.2" stroke-linejoin="round" stroke="#989898" stroke-opacity="1" d="M 175.767,179.788L 173.494,181.793L 171.411,179.797L 173.597,185.566L 175.767,179.788 Z "/>
	<path fill="#989898" fill-opacity="1" stroke-width="0.2" stroke-linejoin="round" stroke="#909295" stroke-opacity="1" d="M 171.284,70.1412L 173.557,68.1363L 175.64,70.1321L 173.454,64.3637L 171.284,70.1412 Z "/>
	<path fill="#FFC800" fill-opacity="1" stroke-width="0.64" stroke-linejoin="round" d="M 173.416,61.7418C 174.27,61.7418 174.963,62.4342 174.963,63.2885C 174.963,64.1427 174.27,64.8351 173.416,64.8351C 172.562,64.8351 171.87,64.1427 171.87,63.2885C 171.87,62.4342 172.562,61.7418 173.416,61.7418 Z "/>
	<g>
		<path fill="#ECECEC" fill-opacity="1" stroke-width="0.2" stroke-linejoin="round" d="M 182.594,102.169L 164.243,102.169L 164.194,119.968L 182.587,119.922L 182.594,102.169 Z "/>
		<text transform="matrix(0.9999999403953552 0.0000000000000000 0.0000000000000000 0.9999999403953552 170.00 116.00)" xml:space="preserve">
			<tspan style=" font-family:Arial; font-size:11.000000pt;" letter-spacing="0.00em" fill="#000000" fill-opacity="1" stroke-width="0.2" stroke-linejoin="round">d</tspan>
		</text>
	</g>
	<text transform="matrix(0.9999999403953552 0.0000000000000000 0.0000000000000000 0.9999999403953552 187.00 186.00)" xml:space="preserve">
		<tspan style=" font-family:Arial; font-size:11.000000pt;" letter-spacing="0.00em" fill="#000000" fill-opacity="1" stroke-width="0.2" stroke-linejoin="round">(xp,yp,0)</tspan>
	</text>
	<line fill="none" stroke-width="0.64" stroke-linejoin="round" stroke="#FF0000" stroke-opacity="1" x1="99.6154" y1="255.818" x2="99.6251" y2="215.729"/>
</svg>
