<?xml version="1.0" encoding="utf-8"?>
<!DOCTYPE svg PUBLIC "-//W3C//DTD SVG 1.1//EN" "http://www.w3.org/Graphics/SVG/1.1/DTD/svg11.dtd">
<svg xmlns="http://www.w3.org/2000/svg" xmlns:xlink="http://www.w3.org/1999/xlink" version="1.1" baseProfile="full" width="418.889" height="169.366" viewBox="0 0 418.89 169.37" enable-background="new 0 0 418.89 169.37" xml:space="preserve">
	<line fill="none" stroke-width="0.32" stroke-linejoin="round" stroke="#000000" stroke-opacity="1" x1="58.4193" y1="122.892" x2="58.4193" y2="16.8262"/>
	<path fill="#000000" fill-opacity="1" stroke-width="0.32" stroke-linejoin="round" d="M 58.2593,117.559L 58.2593,114.892L 58.5793,114.892L 58.5793,117.559L 58.2593,117.559 Z M 58.2593,112.225L 58.2593,109.559L 58.5793,109.559L 58.5793,112.225L 58.2593,112.225 Z M 58.2593,106.892L 58.2593,104.225L 58.5793,104.225L 58.5793,106.892L 58.2593,106.892 Z M 58.2593,101.559L 58.2593,98.8921L 58.5793,98.8921L 58.5793,101.559L 58.2593,101.559 Z M 58.2593,96.2255L 58.2593,93.5588L 58.5793,93.5588L 58.5793,96.2255L 58.2593,96.2255 Z M 58.2593,90.8921L 58.2593,88.2255L 58.5793,88.2255L 58.5793,90.8921L 58.2593,90.8921 Z M 58.2593,85.5588L 58.2593,82.8921L 58.5793,82.8921L 58.5793,85.5588L 58.2593,85.5588 Z M 58.2593,80.2255L 58.2593,77.5588L 58.5793,77.5588L 58.5793,80.2255L 58.2593,80.2255 Z M 58.2593,74.8921L 58.2593,72.2255L 58.5793,72.2255L 58.5793,74.8921L 58.2593,74.8921 Z M 58.2593,69.5588L 58.2593,66.8921L 58.5793,66.8921L 58.5793,69.5588L 58.2593,69.5588 Z M 58.2593,64.2255L 58.2593,61.5588L 58.5793,61.5588L 58.5793,64.2255L 58.2593,64.2255 Z M 58.2593,58.8921L 58.2593,56.2255L 58.5793,56.2255L 58.5793,58.8921L 58.2593,58.8921 Z M 58.2593,53.5588L 58.2593,50.8921L 58.5793,50.8921L 58.5793,53.5588L 58.2593,53.5588 Z M 58.2593,48.2255L 58.2593,45.5588L 58.5793,45.5588L 58.5793,48.2255L 58.2593,48.2255 Z M 58.2593,42.8921L 58.2593,40.2255L 58.5793,40.2255L 58.5793,42.8921L 58.2593,42.8921 Z M 58.2593,37.5588L 58.2593,34.8921L 58.5793,34.8921L 58.5793,37.5588L 58.2593,37.5588 Z M 58.2593,32.2255L 58.2593,29.5588L 58.5793,29.5588L 58.5793,32.2255L 58.2593,32.2255 Z M 58.2593,26.8921L 58.2593,24.2255L 58.5793,24.2255L 58.5793,26.8921L 58.2593,26.8921 Z M 58.2593,21.5588L 58.2593,18.8921L 58.5793,18.8921L 58.5793,21.5588L 58.2593,21.5588 Z M 58.2593,122.892L 58.2593,120.225L 58.5793,120.225L 58.5793,122.892L 58.2593,122.892 Z "/>
	<path fill="#000000" fill-opacity="1" stroke-width="0.2" stroke-linejoin="round" d="M 17.5213,20.6407L 20.2622,18.223L 22.7746,20.6297L 20.1386,13.6737L 17.5213,20.6407 Z "/>
	<path fill="#000000" fill-opacity="1" stroke-width="0.2" stroke-linejoin="round" d="M 187.138,119.957L 189.521,122.728L 187.083,125.21L 194.071,122.662L 187.138,119.957 Z "/>
	<text transform="matrix(1.0000000000000000 0.0000000000000000 0.0000000000000000 1.0000000000000000 186.00 136.00)" xml:space="preserve">
		<tspan style=" font-family:Segoe UI; font-size:8.436299pt;" letter-spacing="0.00em" fill="#000000" fill-opacity="1" stroke-width="0.2" stroke-linejoin="round" stroke="#000000" stroke-opacity="1">time (s)</tspan>
	</text>
	<text transform="matrix(1.0000000000000000 0.0000000000000000 0.0000000000000000 1.0000000000000000 -8.00 7.00)" xml:space="preserve">
		<tspan style=" font-family:Segoe UI; font-size:8.436299pt;" letter-spacing="0.00em" fill="#000000" fill-opacity="1" stroke-width="0.2" stroke-linejoin="round">energy (J)</tspan>
	</text>
	<text transform="matrix(1.0000000000000000 0.0000000000000000 0.0000000000000000 1.0000000000000000 47.00 136.00)" xml:space="preserve">
		<tspan style=" font-family:Segoe UI; font-size:8.436299pt;" letter-spacing="0.00em" fill="#000000" fill-opacity="1" stroke-width="0.2" stroke-linejoin="round">c2x</tspan>
	</text>
	<text transform="matrix(1.0000000000000000 0.0000000000000000 0.0000000000000000 1.0000000000000000 155.00 136.00)" xml:space="preserve">
		<tspan style=" font-family:Segoe UI; font-size:8.436299pt;" letter-spacing="0.00em" fill="#000000" fill-opacity="1" stroke-width="0.2" stroke-linejoin="round">c4x</tspan>
	</text>
	<path fill="none" stroke-width="0.32" stroke-linejoin="round" stroke="#989898" stroke-opacity="1" d="M 20.1283,122.55C 20.1283,122.55 21.6309,96.3455 58.3353,70.5187"/>
	<path fill="none" stroke-width="0.640004" stroke-linejoin="round" stroke="#000000" stroke-opacity="1" d="M 58.3353,70.5187C 80.0196,55.2607 113.99,40.1345 167.196,30.6212"/>
	<path fill="none" stroke-width="0.32" stroke-linejoin="round" stroke="#989898" stroke-opacity="1" d="M 167.196,30.6212C 176.155,29.0193 185.659,27.5766 195.742,26.3192"/>
	<path fill="#000000" fill-opacity="1" stroke-width="0.640004" stroke-linejoin="round" stroke="#000000" stroke-opacity="1" d="M 58.3541,69.71C 58.8504,69.71 59.2527,70.1123 59.2527,70.6086C 59.2527,71.1049 58.8504,71.5073 58.3541,71.5073C 57.8578,71.5073 57.4554,71.1049 57.4554,70.6086C 57.4554,70.1123 57.8578,69.71 58.3541,69.71 Z "/>
	<path fill="#000000" fill-opacity="1" stroke-width="0.640004" stroke-linejoin="round" stroke="#000000" stroke-opacity="1" d="M 167.155,29.7594C 167.652,29.7594 168.054,30.1617 168.054,30.6581C 168.054,31.1544 167.652,31.5567 167.155,31.5567C 166.659,31.5567 166.257,31.1544 166.257,30.6581C 166.257,30.1617 166.659,29.7594 167.155,29.7594 Z "/>
	<line fill="none" stroke-width="0.32" stroke-linejoin="round" stroke="#000000" stroke-opacity="1" x1="167.18" y1="122.841" x2="167.18" y2="16.7748"/>
	<path fill="#000000" fill-opacity="1" stroke-width="0.32" stroke-linejoin="round" d="M 167.02,117.507L 167.02,114.841L 167.34,114.841L 167.34,117.507L 167.02,117.507 Z M 167.02,112.174L 167.02,109.507L 167.34,109.507L 167.34,112.174L 167.02,112.174 Z M 167.02,106.841L 167.02,104.174L 167.34,104.174L 167.34,106.841L 167.02,106.841 Z M 167.02,101.507L 167.02,98.8408L 167.34,98.8408L 167.34,101.507L 167.02,101.507 Z M 167.02,96.1741L 167.02,93.5074L 167.34,93.5074L 167.34,96.1741L 167.02,96.1741 Z M 167.02,90.8408L 167.02,88.1741L 167.34,88.1741L 167.34,90.8408L 167.02,90.8408 Z M 167.02,85.5074L 167.02,82.8408L 167.34,82.8408L 167.34,85.5074L 167.02,85.5074 Z M 167.02,80.1741L 167.02,77.5074L 167.34,77.5074L 167.34,80.1741L 167.02,80.1741 Z M 167.02,74.8408L 167.02,72.1741L 167.34,72.1741L 167.34,74.8408L 167.02,74.8408 Z M 167.02,69.5074L 167.02,66.8408L 167.34,66.8408L 167.34,69.5074L 167.02,69.5074 Z M 167.02,64.1741L 167.02,61.5074L 167.34,61.5074L 167.34,64.1741L 167.02,64.1741 Z M 167.02,58.8408L 167.02,56.1741L 167.34,56.1741L 167.34,58.8408L 167.02,58.8408 Z M 167.02,53.5074L 167.02,50.8408L 167.34,50.8408L 167.34,53.5074L 167.02,53.5074 Z M 167.02,48.1741L 167.02,45.5074L 167.34,45.5074L 167.34,48.1741L 167.02,48.1741 Z M 167.02,42.8408L 167.02,40.1741L 167.34,40.1741L 167.34,42.8408L 167.02,42.8408 Z M 167.02,37.5074L 167.02,34.8408L 167.34,34.8408L 167.34,37.5074L 167.02,37.5074 Z M 167.02,32.1741L 167.02,29.5074L 167.34,29.5074L 167.34,32.1741L 167.02,32.1741 Z M 167.02,26.8408L 167.02,24.1741L 167.34,24.1741L 167.34,26.8408L 167.02,26.8408 Z M 167.02,21.5074L 167.02,18.8408L 167.34,18.8408L 167.34,21.5074L 167.02,21.5074 Z M 167.02,122.841L 167.02,120.174L 167.34,120.174L 167.34,122.841L 167.02,122.841 Z "/>
	<path fill="none" stroke-width="0.32" stroke-linejoin="round" stroke="#989898" stroke-opacity="1" d="M 20.1285,122.808C 20.1285,122.808 19.4198,100.618 58.4579,81.4838"/>
	<line fill="none" stroke-width="0.640004" stroke-linejoin="round" stroke="#000000" stroke-opacity="1" x1="12.7993" y1="122.675" x2="190.91" y2="122.675"/>
	<path fill="none" stroke-width="0.640004" stroke-linejoin="round" stroke="#000000" stroke-opacity="1" d="M 58.4579,81.4838C 80.16,70.8465 114.146,61.1531 167.366,56.741"/>
	<path fill="none" stroke-width="0.32" stroke-linejoin="round" stroke="#989898" stroke-opacity="1" d="M 167.366,56.741C 176.305,55.9999 185.787,55.4079 195.844,54.9853"/>
	<line fill="none" stroke-width="0.2" stroke-linejoin="round" x1="59.0671" y1="81.3352" x2="58.7296" y2="83.3374"/>
	<path fill="#000000" fill-opacity="1" stroke-width="0.640004" stroke-linejoin="round" stroke="#000000" stroke-opacity="1" d="M 58.4368,80.7805C 58.9331,80.7805 59.3355,81.1829 59.3355,81.6792C 59.3355,82.1755 58.9331,82.5778 58.4368,82.5778C 57.9405,82.5778 57.5381,82.1755 57.5381,81.6792C 57.5381,81.1829 57.9405,80.7805 58.4368,80.7805 Z "/>
	<path fill="#000000" fill-opacity="1" stroke-width="0.640004" stroke-linejoin="round" stroke="#000000" stroke-opacity="1" d="M 167.164,55.7676C 167.66,55.7676 168.062,56.17 168.062,56.6663C 168.062,57.1626 167.66,57.565 167.164,57.565C 166.667,57.565 166.265,57.1626 166.265,56.6663C 166.265,56.17 166.667,55.7676 167.164,55.7676 Z "/>
	<path fill="none" stroke-width="0.64" stroke-linejoin="round" stroke="#000000" stroke-opacity="1" d="M 134.659,48.3278C 134.659,48.3278 102.656,57.8137 128.06,62.673C 153.463,67.5324 134.299,87.2022 134.299,87.2022"/>
	<text transform="matrix(1.0000000000000000 0.0000000000000000 0.0000000000000000 1.0000000000000000 81.00 100.00)" xml:space="preserve">
		<tspan style=" font-family:Segoe UI; font-size:8.436299pt;" letter-spacing="0.00em" fill="#000000" fill-opacity="1" stroke-width="0.2" stroke-linejoin="round" stroke="#000000" stroke-opacity="1">admissible region</tspan>
	</text>
	<text transform="matrix(1.0000000000000000 0.0000000000000000 0.0000000000000000 1.0000000000000000 177.00 23.00)" xml:space="preserve">
		<tspan style=" font-family:Segoe UI; font-size:8.436298pt;" letter-spacing="0.00em" fill="#000000" fill-opacity="1" stroke-width="0.2" stroke-linejoin="round" stroke="#000000" stroke-opacity="1">energy with c2_</tspan>
	</text>
	<text transform="matrix(1.0000000000000000 0.0000000000000000 0.0000000000000000 1.0000000000000000 178.00 67.00)" xml:space="preserve">
		<tspan style=" font-family:Segoe UI; font-size:8.436298pt;" letter-spacing="0.00em" fill="#000000" fill-opacity="1" stroke-width="0.2" stroke-linejoin="round" stroke="#000000" stroke-opacity="1">energy with c2-</tspan>
	</text>
	<line fill="none" stroke-width="0.640004" stroke-linejoin="round" stroke="#000000" stroke-opacity="1" x1="20.2305" y1="129.451" x2="20.231" y2="17.0782"/>
	<line fill="none" stroke-width="0.32" stroke-linejoin="round" stroke="#000000" stroke-opacity="1" x1="271.199" y1="122.925" x2="271.199" y2="16.8595"/>
	<path fill="#000000" fill-opacity="1" stroke-width="0.32" stroke-linejoin="round" d="M 271.039,117.592L 271.039,114.925L 271.359,114.925L 271.359,117.592L 271.039,117.592 Z M 271.039,112.259L 271.039,109.592L 271.359,109.592L 271.359,112.259L 271.039,112.259 Z M 271.039,106.925L 271.039,104.259L 271.359,104.259L 271.359,106.925L 271.039,106.925 Z M 271.039,101.592L 271.039,98.9255L 271.359,98.9255L 271.359,101.592L 271.039,101.592 Z M 271.039,96.2588L 271.039,93.5922L 271.359,93.5922L 271.359,96.2588L 271.039,96.2588 Z M 271.039,90.9255L 271.039,88.2588L 271.359,88.2588L 271.359,90.9255L 271.039,90.9255 Z M 271.039,85.5922L 271.039,82.9255L 271.359,82.9255L 271.359,85.5922L 271.039,85.5922 Z M 271.039,80.2588L 271.039,77.5922L 271.359,77.5922L 271.359,80.2588L 271.039,80.2588 Z M 271.039,74.9255L 271.039,72.2588L 271.359,72.2588L 271.359,74.9255L 271.039,74.9255 Z M 271.039,69.5922L 271.039,66.9255L 271.359,66.9255L 271.359,69.5922L 271.039,69.5922 Z M 271.039,64.2588L 271.039,61.5922L 271.359,61.5922L 271.359,64.2588L 271.039,64.2588 Z M 271.039,58.9255L 271.039,56.2588L 271.359,56.2588L 271.359,58.9255L 271.039,58.9255 Z M 271.039,53.5922L 271.039,50.9255L 271.359,50.9255L 271.359,53.5922L 271.039,53.5922 Z M 271.039,48.2588L 271.039,45.5922L 271.359,45.5922L 271.359,48.2588L 271.039,48.2588 Z M 271.039,42.9255L 271.039,40.2588L 271.359,40.2588L 271.359,42.9255L 271.039,42.9255 Z M 271.039,37.5922L 271.039,34.9255L 271.359,34.9255L 271.359,37.5922L 271.039,37.5922 Z M 271.039,32.2588L 271.039,29.5922L 271.359,29.5922L 271.359,32.2588L 271.039,32.2588 Z M 271.039,26.9255L 271.039,24.2588L 271.359,24.2588L 271.359,26.9255L 271.039,26.9255 Z M 271.039,21.5922L 271.039,18.9255L 271.359,18.9255L 271.359,21.5922L 271.039,21.5922 Z M 271.039,122.925L 271.039,120.259L 271.359,120.259L 271.359,122.925L 271.039,122.925 Z "/>
	<path fill="#000000" fill-opacity="1" stroke-width="0.2" stroke-linejoin="round" d="M 230.301,20.6746L 233.042,18.2568L 235.554,20.6635L 232.918,13.7076L 230.301,20.6746 Z "/>
	<path fill="#000000" fill-opacity="1" stroke-width="0.2" stroke-linejoin="round" d="M 399.917,119.99L 402.3,122.762L 399.862,125.243L 406.85,122.695L 399.917,119.99 Z "/>
	<text transform="matrix(1.0000000000000000 0.0000000000000000 0.0000000000000000 1.0000000000000000 398.00 136.00)" xml:space="preserve">
		<tspan style=" font-family:Segoe UI; font-size:8.436299pt;" letter-spacing="0.00em" fill="#000000" fill-opacity="1" stroke-width="0.2" stroke-linejoin="round" stroke="#000000" stroke-opacity="1">time (s)</tspan>
	</text>
	<text transform="matrix(1.0000000000000000 0.0000000000000000 0.0000000000000000 1.0000000000000000 204.00 7.00)" xml:space="preserve">
		<tspan style=" font-family:Segoe UI; font-size:8.436299pt;" letter-spacing="0.00em" fill="#000000" fill-opacity="1" stroke-width="0.2" stroke-linejoin="round">energy (J)</tspan>
	</text>
	<text transform="matrix(1.0000000000000000 0.0000000000000000 0.0000000000000000 1.0000000000000000 260.00 136.00)" xml:space="preserve">
		<tspan style=" font-family:Segoe UI; font-size:8.436299pt;" letter-spacing="0.00em" fill="#000000" fill-opacity="1" stroke-width="0.2" stroke-linejoin="round">c2x</tspan>
	</text>
	<text transform="matrix(1.0000000000000000 0.0000000000000000 0.0000000000000000 1.0000000000000000 343.00 136.00)" xml:space="preserve">
		<tspan style=" font-family:Segoe UI; font-size:8.436299pt;" letter-spacing="0.00em" fill="#000000" fill-opacity="1" stroke-width="0.2" stroke-linejoin="round">c4x</tspan>
	</text>
	<path fill="none" stroke-width="0.32" stroke-linejoin="round" stroke="#989898" stroke-opacity="1" d="M 232.934,122.851C 232.934,122.851 234.426,99.0985 270.875,75.688"/>
	<path fill="none" stroke-width="0.32" stroke-linejoin="round" stroke="#989898" stroke-opacity="1" d="M 232.908,122.583C 232.908,122.583 234.41,96.3788 271.115,70.552"/>
	<path fill="none" stroke-width="0.32" stroke-linejoin="round" stroke="#989898" stroke-opacity="1" d="M 271.115,70.552C 292.799,55.294 326.77,40.1678 379.975,30.6545"/>
	<path fill="none" stroke-width="0.32" stroke-linejoin="round" stroke="#989898" stroke-opacity="1" d="M 379.975,30.6545C 388.934,29.0526 398.438,27.6099 408.521,26.3524"/>
	<line fill="none" stroke-width="0.32" stroke-linejoin="round" stroke="#989898" stroke-opacity="1" x1="379.959" y1="122.874" x2="379.959" y2="16.8081"/>
	<path fill="#989898" fill-opacity="1" stroke-width="0.32" stroke-linejoin="round" d="M 379.799,117.541L 379.799,114.874L 380.119,114.874L 380.119,117.541L 379.799,117.541 Z M 379.799,112.207L 379.799,109.541L 380.119,109.541L 380.119,112.207L 379.799,112.207 Z M 379.799,106.874L 379.799,104.207L 380.119,104.207L 380.119,106.874L 379.799,106.874 Z M 379.799,101.541L 379.799,98.8741L 380.119,98.8741L 380.119,101.541L 379.799,101.541 Z M 379.799,96.2074L 379.799,93.5407L 380.119,93.5407L 380.119,96.2074L 379.799,96.2074 Z M 379.799,90.8741L 379.799,88.2074L 380.119,88.2074L 380.119,90.8741L 379.799,90.8741 Z M 379.799,85.5407L 379.799,82.8741L 380.119,82.8741L 380.119,85.5407L 379.799,85.5407 Z M 379.799,80.2074L 379.799,77.5407L 380.119,77.5407L 380.119,80.2074L 379.799,80.2074 Z M 379.799,74.8741L 379.799,72.2074L 380.119,72.2074L 380.119,74.8741L 379.799,74.8741 Z M 379.799,69.5407L 379.799,66.8741L 380.119,66.8741L 380.119,69.5407L 379.799,69.5407 Z M 379.799,64.2074L 379.799,61.5407L 380.119,61.5407L 380.119,64.2074L 379.799,64.2074 Z M 379.799,58.8741L 379.799,56.2074L 380.119,56.2074L 380.119,58.8741L 379.799,58.8741 Z M 379.799,53.5407L 379.799,50.8741L 380.119,50.8741L 380.119,53.5407L 379.799,53.5407 Z M 379.799,48.2074L 379.799,45.5407L 380.119,45.5407L 380.119,48.2074L 379.799,48.2074 Z M 379.799,42.8741L 379.799,40.2074L 380.119,40.2074L 380.119,42.8741L 379.799,42.8741 Z M 379.799,37.5407L 379.799,34.8741L 380.119,34.8741L 380.119,37.5407L 379.799,37.5407 Z M 379.799,32.2074L 379.799,29.5407L 380.119,29.5407L 380.119,32.2074L 379.799,32.2074 Z M 379.799,26.8741L 379.799,24.2074L 380.119,24.2074L 380.119,26.8741L 379.799,26.8741 Z M 379.799,21.5407L 379.799,18.8741L 380.119,18.8741L 380.119,21.5407L 379.799,21.5407 Z M 379.799,122.874L 379.799,120.207L 380.119,120.207L 380.119,122.874L 379.799,122.874 Z "/>
	<path fill="none" stroke-width="0.32" stroke-linejoin="round" stroke="#989898" stroke-opacity="1" d="M 232.908,122.841C 232.908,122.841 232.199,100.652 271.237,81.517"/>
	<line fill="none" stroke-width="0.640004" stroke-linejoin="round" stroke="#000000" stroke-opacity="1" x1="225.579" y1="122.709" x2="403.69" y2="122.709"/>
	<path fill="none" stroke-width="0.640004" stroke-linejoin="round" stroke="#000000" stroke-opacity="1" d="M 271.237,81.517C 289.336,72.6459 315.978,64.4313 355.195,59.3889"/>
	<path fill="none" stroke-width="0.32" stroke-linejoin="round" stroke="#989898" stroke-opacity="1" d="M 355.195,59.3889C 363.003,58.385 371.309,57.5069 380.145,56.7743"/>
	<path fill="none" stroke-width="0.32" stroke-linejoin="round" stroke="#989898" stroke-opacity="1" d="M 380.145,56.7743C 389.084,56.0332 398.566,55.4411 408.624,55.0186"/>
	<line fill="none" stroke-width="0.2" stroke-linejoin="round" x1="271.846" y1="81.3685" x2="271.509" y2="83.3707"/>
	<path fill="#000000" fill-opacity="1" stroke-width="0.640004" stroke-linejoin="round" stroke="#000000" stroke-opacity="1" d="M 271.216,80.8136C 271.712,80.8136 272.115,81.2159 272.115,81.7123C 272.115,82.2086 271.712,82.6109 271.216,82.6109C 270.72,82.6109 270.318,82.2086 270.318,81.7123C 270.318,81.2159 270.72,80.8136 271.216,80.8136 Z "/>
	<path fill="#000000" fill-opacity="1" stroke-width="0.640004" stroke-linejoin="round" stroke="#000000" stroke-opacity="1" d="M 355.225,58.5004C 355.721,58.5004 356.123,58.9027 356.123,59.399C 356.123,59.8953 355.721,60.2977 355.225,60.2977C 354.728,60.2977 354.326,59.8953 354.326,59.399C 354.326,58.9027 354.728,58.5004 355.225,58.5004 Z "/>
	<text transform="matrix(1.0000000000000000 0.0000000000000000 0.0000000000000000 1.0000000000000000 389.00 48.00)" xml:space="preserve">
		<tspan style=" font-family:Segoe UI; font-size:8.436298pt;" letter-spacing="0.00em" fill="#000000" fill-opacity="1" stroke-width="0.2" stroke-linejoin="round" stroke="#000000" stroke-opacity="1">energy with c2_</tspan>
	</text>
	<line fill="none" stroke-width="0.640004" stroke-linejoin="round" stroke="#000000" stroke-opacity="1" x1="233.01" y1="129.484" x2="233.01" y2="17.1114"/>
	<path fill="none" stroke-width="0.640004" stroke-linejoin="round" stroke="#000000" stroke-opacity="1" d="M 270.875,75.688C 289.003,63.7719 315.718,51.9418 355.079,43.1894"/>
	<path fill="none" stroke-width="0.32" stroke-linejoin="round" stroke="#989898" stroke-opacity="1" d="M 355.079,43.1894C 362.801,41.4724 371.009,39.8739 379.735,38.4164"/>
	<path fill="#000000" fill-opacity="1" stroke-width="0.640004" stroke-linejoin="round" stroke="#000000" stroke-opacity="1" d="M 271.133,74.8048C 271.63,74.8048 272.032,75.2072 272.032,75.7035C 272.032,76.1998 271.63,76.6021 271.133,76.6021C 270.637,76.6021 270.235,76.1998 270.235,75.7035C 270.235,75.2072 270.637,74.8048 271.133,74.8048 Z "/>
	<path fill="none" stroke-width="0.32" stroke-linejoin="round" stroke="#989898" stroke-opacity="1" d="M 379.735,38.4164C 388.694,36.9199 398.198,35.5722 408.281,34.3975"/>
	<path fill="#000000" fill-opacity="1" stroke-width="0.640004" stroke-linejoin="round" stroke="#000000" stroke-opacity="1" d="M 355.216,42.1938C 355.713,42.1938 356.115,42.5961 356.115,43.0925C 356.115,43.5888 355.713,43.9911 355.216,43.9911C 354.72,43.9911 354.318,43.5888 354.318,43.0925C 354.318,42.5961 354.72,42.1938 355.216,42.1938 Z "/>
	<line fill="none" stroke-width="0.32" stroke-linejoin="round" stroke="#000000" stroke-opacity="1" x1="355.236" y1="122.874" x2="355.236" y2="16.8081"/>
	<path fill="#000000" fill-opacity="1" stroke-width="0.32" stroke-linejoin="round" d="M 355.076,117.541L 355.076,114.874L 355.396,114.874L 355.396,117.541L 355.076,117.541 Z M 355.076,112.207L 355.076,109.541L 355.396,109.541L 355.396,112.207L 355.076,112.207 Z M 355.076,106.874L 355.076,104.207L 355.396,104.207L 355.396,106.874L 355.076,106.874 Z M 355.076,101.541L 355.076,98.8741L 355.396,98.8741L 355.396,101.541L 355.076,101.541 Z M 355.076,96.2074L 355.076,93.5407L 355.396,93.5407L 355.396,96.2074L 355.076,96.2074 Z M 355.076,90.8741L 355.076,88.2074L 355.396,88.2074L 355.396,90.8741L 355.076,90.8741 Z M 355.076,85.5407L 355.076,82.8741L 355.396,82.8741L 355.396,85.5407L 355.076,85.5407 Z M 355.076,80.2074L 355.076,77.5407L 355.396,77.5407L 355.396,80.2074L 355.076,80.2074 Z M 355.076,74.8741L 355.076,72.2074L 355.396,72.2074L 355.396,74.8741L 355.076,74.8741 Z M 355.076,69.5407L 355.076,66.8741L 355.396,66.8741L 355.396,69.5407L 355.076,69.5407 Z M 355.076,64.2074L 355.076,61.5407L 355.396,61.5407L 355.396,64.2074L 355.076,64.2074 Z M 355.076,58.8741L 355.076,56.2074L 355.396,56.2074L 355.396,58.8741L 355.076,58.8741 Z M 355.076,53.5407L 355.076,50.8741L 355.396,50.8741L 355.396,53.5407L 355.076,53.5407 Z M 355.076,48.2074L 355.076,45.5407L 355.396,45.5407L 355.396,48.2074L 355.076,48.2074 Z M 355.076,42.8741L 355.076,40.2074L 355.396,40.2074L 355.396,42.8741L 355.076,42.8741 Z M 355.076,37.5407L 355.076,34.8741L 355.396,34.8741L 355.396,37.5407L 355.076,37.5407 Z M 355.076,32.2074L 355.076,29.5407L 355.396,29.5407L 355.396,32.2074L 355.076,32.2074 Z M 355.076,26.8741L 355.076,24.2074L 355.396,24.2074L 355.396,26.8741L 355.076,26.8741 Z M 355.076,21.5407L 355.076,18.8741L 355.396,18.8741L 355.396,21.5407L 355.076,21.5407 Z M 355.076,122.874L 355.076,120.207L 355.396,120.207L 355.396,122.874L 355.076,122.874 Z "/>
	<line fill="none" stroke-width="0.64" stroke-linejoin="round" stroke="#FF7D00" stroke-opacity="1" x1="325.959" y1="48.3582" x2="324.672" y2="44.6431"/>
	<path fill="#FF7D00" fill-opacity="1" stroke-width="0.2" stroke-linejoin="round" d="M 326.8,46.2679L 325.738,47.9949L 324.015,47.1254L 326.541,50.3884L 326.8,46.2679 Z "/>
	<line fill="none" stroke-width="0.64" stroke-linejoin="round" stroke="#FF7D00" stroke-opacity="1" x1="346.423" y1="42.5153" x2="345.576" y2="38.3868"/>
	<path fill="#FF7D00" fill-opacity="1" stroke-width="0.2" stroke-linejoin="round" d="M 347.491,40.4883L 346.312,42.1377L 344.653,41.151L 346.947,44.581L 347.491,40.4883 Z "/>
	<line fill="none" stroke-width="0.64" stroke-linejoin="round" stroke="#FF7D00" stroke-opacity="1" x1="305.043" y1="56.4228" x2="303.555" y2="52.7517"/>
	<path fill="#FF7D00" fill-opacity="1" stroke-width="0.2" stroke-linejoin="round" d="M 305.46,53.5958L 304.588,55.4263L 302.782,54.7456L 305.642,57.7205L 305.46,53.5958 Z "/>
	<line fill="none" stroke-width="0.64" stroke-linejoin="round" stroke="#FF7D00" stroke-opacity="1" x1="284.439" y1="65.7983" x2="282.987" y2="63.1143"/>
	<path fill="#FF7D00" fill-opacity="1" stroke-width="0.2" stroke-linejoin="round" d="M 284.48,62.941L 283.857,64.8704L 281.977,64.4334L 285.204,67.0058L 284.48,62.941 Z "/>
	<path fill="#FF7D00" fill-opacity="1" stroke-width="0.2" stroke-linejoin="round" d="M 359.306,51.9636L 357.911,50.492L 359.196,49.0514L 355.392,50.6508L 359.306,51.9636 Z "/>
	<line fill="none" stroke-width="0.64" stroke-linejoin="round" stroke="#FF7D00" stroke-opacity="1" x1="357.488" y1="50.5497" x2="379.768" y2="50.5502"/>
	<text transform="matrix(1.0000000000000000 0.0000000000000000 0.0000000000000000 1.0000000000000000 99.00 151.00)" xml:space="preserve">
		<tspan style=" font-family:Segoe UI; font-size:8.000000pt;" letter-spacing="0.00em" fill="#000000" fill-opacity="1" stroke-width="0.32" stroke-linejoin="round">(a)</tspan>
	</text>
	<text transform="matrix(1.0000000000000000 0.0000000000000000 0.0000000000000000 1.0000000000000000 312.00 151.00)" xml:space="preserve">
		<tspan style=" font-family:Segoe UI; font-size:8.000000pt;" letter-spacing="0.00em" fill="#000000" fill-opacity="1" stroke-width="0.32" stroke-linejoin="round">(b)</tspan>
	</text>
</svg>
