<?xml version="1.0" encoding="utf-8"?>
<!DOCTYPE svg PUBLIC "-//W3C//DTD SVG 1.1//EN" "http://www.w3.org/Graphics/SVG/1.1/DTD/svg11.dtd">
<svg xmlns="http://www.w3.org/2000/svg" xmlns:xlink="http://www.w3.org/1999/xlink" version="1.1" baseProfile="full" width="234.13" height="152" viewBox="0 0 234.13 152.00" enable-background="new 0 0 234.13 152.00" xml:space="preserve">
	<path fill="#000000" fill-opacity="1" stroke-width="0.32" stroke-linejoin="round" d="M 62.6861,117.887L 62.6861,115.22L 63.0061,115.22L 63.0061,117.887L 62.6861,117.887 Z M 62.6861,112.553L 62.6861,109.887L 63.0061,109.887L 63.0061,112.553L 62.6861,112.553 Z M 62.6861,107.22L 62.6861,104.553L 63.0061,104.553L 63.0061,107.22L 62.6861,107.22 Z M 62.6861,101.887L 62.6861,99.2199L 63.0061,99.2199L 63.0061,101.887L 62.6861,101.887 Z M 62.6861,96.5533L 62.6861,93.8866L 63.0061,93.8866L 63.0061,96.5533L 62.6861,96.5533 Z M 62.6861,91.2199L 62.6861,88.5533L 63.0061,88.5533L 63.0061,91.2199L 62.6861,91.2199 Z M 62.6861,85.8866L 62.6861,83.2199L 63.0061,83.2199L 63.0061,85.8866L 62.6861,85.8866 Z M 62.6861,80.5533L 62.6861,77.8866L 63.0061,77.8866L 63.0061,80.5533L 62.6861,80.5533 Z M 62.6861,75.2199L 62.6861,72.5533L 63.0061,72.5533L 63.0061,75.2199L 62.6861,75.2199 Z M 62.6861,69.8865L 62.6861,67.2199L 63.0061,67.2199L 63.0061,69.8865L 62.6861,69.8865 Z M 62.6861,64.5533L 62.6861,61.8865L 63.0061,61.8865L 63.0061,64.5533L 62.6861,64.5533 Z M 62.6861,59.2199L 62.6861,56.5532L 63.0061,56.5532L 63.0061,59.2199L 62.6861,59.2199 Z M 62.6861,53.8865L 62.6861,51.2199L 63.0061,51.2199L 63.0061,53.8865L 62.6861,53.8865 Z M 62.6861,48.5532L 62.6861,45.8865L 63.0061,45.8865L 63.0061,48.5532L 62.6861,48.5532 Z M 62.6861,43.2199L 62.6861,40.5532L 63.0061,40.5532L 63.0061,43.2199L 62.6861,43.2199 Z M 62.6861,37.8865L 62.6861,35.2199L 63.0061,35.2199L 63.0061,37.8865L 62.6861,37.8865 Z M 62.6861,32.5532L 62.6861,29.8865L 63.0061,29.8865L 63.0061,32.5532L 62.6861,32.5532 Z M 62.6861,27.2199L 62.6861,24.5532L 63.0061,24.5532L 63.0061,27.2199L 62.6861,27.2199 Z M 62.6861,21.8865L 62.6861,19.2199L 63.0061,19.2199L 63.0061,21.8865L 62.6861,21.8865 Z M 62.6861,123.22L 62.6861,120.553L 63.0061,120.553L 63.0061,123.22L 62.6861,123.22 Z "/>
	<path fill="#000000" fill-opacity="1" stroke-width="0.2" stroke-linejoin="round" d="M 21.9482,20.9689L 24.6891,18.5512L 27.2015,20.9579L 24.5655,14.002L 21.9482,20.9689 Z "/>
	<path fill="#000000" fill-opacity="1" stroke-width="0.2" stroke-linejoin="round" d="M 191.564,120.285L 193.947,123.056L 191.509,125.538L 198.498,122.99L 191.564,120.285 Z "/>
	<text transform="matrix(1.0000000000000000 0.0000000000000000 0.0000000000000000 1.0000000000000000 190.00 150.00)" xml:space="preserve">
		<tspan style=" font-family:Segoe UI; font-size:8.436299pt;" letter-spacing="0.00em" fill="#000000" fill-opacity="1" stroke-width="0.2" stroke-linejoin="round" stroke="#000000" stroke-opacity="1">time (s)</tspan>
	</text>
	<text transform="matrix(1.0000000000000000 0.0000000000000000 0.0000000000000000 1.0000000000000000 -3.00 8.00)" xml:space="preserve">
		<tspan style=" font-family:Segoe UI; font-size:8.436299pt;" letter-spacing="0.00em" fill="#000000" fill-opacity="1" stroke-width="0.2" stroke-linejoin="round">Energy (J)</tspan>
	</text>
	<text transform="matrix(1.0000000000000000 0.0000000000000000 0.0000000000000000 1.0000000000000000 39.00 139.00)" xml:space="preserve">
		<tspan style=" font-family:Segoe UI; font-size:8.436299pt;" letter-spacing="0.00em" fill="#000000" fill-opacity="1" stroke-width="0.2" stroke-linejoin="round">c2x</tspan>
	</text>
	<text transform="matrix(1.0000000000000000 0.0000000000000000 0.0000000000000000 1.0000000000000000 123.00 139.00)" xml:space="preserve">
		<tspan style=" font-family:Segoe UI; font-size:8.436299pt;" letter-spacing="0.00em" fill="#000000" fill-opacity="1" stroke-width="0.2" stroke-linejoin="round">c4x</tspan>
	</text>
	<path fill="none" stroke-width="0.319997" stroke-linejoin="round" stroke="#989898" stroke-opacity="1" d="M 24.5815,123.146C 24.5815,123.146 26.0737,99.393 62.522,75.9826"/>
	<path fill="none" stroke-width="0.319997" stroke-linejoin="round" stroke="#989898" stroke-opacity="1" d="M 24.5549,122.879C 24.5549,122.879 26.0575,96.6746 62.7618,70.8478"/>
	<path fill="none" stroke-width="0.319997" stroke-linejoin="round" stroke="#989898" stroke-opacity="1" d="M 62.7618,70.8478C 84.446,55.5898 118.416,40.4637 171.622,30.9504"/>
	<path fill="none" stroke-width="0.319997" stroke-linejoin="round" stroke="#989898" stroke-opacity="1" d="M 171.622,30.9504C 180.581,29.3484 190.085,27.9058 200.168,26.6483"/>
	<path fill="#989898" fill-opacity="1" stroke-width="0.32" stroke-linejoin="round" d="M 171.447,117.835L 171.447,115.168L 171.767,115.168L 171.767,117.835L 171.447,117.835 Z M 171.447,112.502L 171.447,109.835L 171.767,109.835L 171.767,112.502L 171.447,112.502 Z M 171.447,107.168L 171.447,104.502L 171.767,104.502L 171.767,107.168L 171.447,107.168 Z M 171.447,101.835L 171.447,99.1685L 171.767,99.1685L 171.767,101.835L 171.447,101.835 Z M 171.447,96.5018L 171.447,93.8351L 171.767,93.8351L 171.767,96.5018L 171.447,96.5018 Z M 171.447,91.1685L 171.447,88.5018L 171.767,88.5018L 171.767,91.1685L 171.447,91.1685 Z M 171.447,85.8351L 171.447,83.1685L 171.767,83.1685L 171.767,85.8351L 171.447,85.8351 Z M 171.447,80.5018L 171.447,77.8351L 171.767,77.8351L 171.767,80.5018L 171.447,80.5018 Z M 171.447,75.1685L 171.447,72.5018L 171.767,72.5018L 171.767,75.1685L 171.447,75.1685 Z M 171.447,69.8351L 171.447,67.1685L 171.767,67.1685L 171.767,69.8351L 171.447,69.8351 Z M 171.447,64.5017L 171.447,61.8351L 171.767,61.8351L 171.767,64.5017L 171.447,64.5017 Z M 171.447,59.1685L 171.447,56.5018L 171.767,56.5018L 171.767,59.1685L 171.447,59.1685 Z M 171.447,53.8351L 171.447,51.1685L 171.767,51.1685L 171.767,53.8351L 171.447,53.8351 Z M 171.447,48.5018L 171.447,45.8351L 171.767,45.8351L 171.767,48.5018L 171.447,48.5018 Z M 171.447,43.1685L 171.447,40.5018L 171.767,40.5018L 171.767,43.1685L 171.447,43.1685 Z M 171.447,37.8351L 171.447,35.1685L 171.767,35.1685L 171.767,37.8351L 171.447,37.8351 Z M 171.447,32.5018L 171.447,29.8351L 171.767,29.8351L 171.767,32.5018L 171.447,32.5018 Z M 171.447,27.1685L 171.447,24.5018L 171.767,24.5018L 171.767,27.1685L 171.447,27.1685 Z M 171.447,21.8351L 171.447,19.1685L 171.767,19.1685L 171.767,21.8351L 171.447,21.8351 Z M 171.447,123.168L 171.447,120.502L 171.767,120.502L 171.767,123.168L 171.447,123.168 Z "/>
	<path fill="none" stroke-width="0.319997" stroke-linejoin="round" stroke="#989898" stroke-opacity="1" d="M 24.5551,123.137C 24.5551,123.137 23.8463,100.947 62.8844,81.8128"/>
	<line fill="none" stroke-width="0.640004" stroke-linejoin="round" stroke="#000000" stroke-opacity="1" x1="17.2261" y1="123.004" x2="195.337" y2="123.004"/>
	<path fill="none" stroke-width="0.640004" stroke-linejoin="round" stroke="#000000" stroke-opacity="1" d="M 62.8844,81.8128C 80.9831,72.9417 107.625,64.7271 146.842,59.6847"/>
	<path fill="none" stroke-width="0.319997" stroke-linejoin="round" stroke="#989898" stroke-opacity="1" d="M 146.842,59.6847C 154.65,58.6808 162.956,57.8027 171.792,57.0701"/>
	<path fill="none" stroke-width="0.319997" stroke-linejoin="round" stroke="#989898" stroke-opacity="1" d="M 171.792,57.0701C 180.731,56.329 190.213,55.7369 200.27,55.3144"/>
	<line fill="none" stroke-width="0.2" stroke-linejoin="round" x1="63.4936" y1="81.6643" x2="63.1561" y2="83.6665"/>
	<path fill="#000000" fill-opacity="1" stroke-width="0.640004" stroke-linejoin="round" stroke="#000000" stroke-opacity="1" d="M 62.8636,81.1081C 63.36,81.1081 63.7623,81.5104 63.7623,82.0067C 63.7623,82.503 63.36,82.9054 62.8636,82.9054C 62.3673,82.9054 61.965,82.503 61.965,82.0067C 61.965,81.5104 62.3673,81.1081 62.8636,81.1081 Z "/>
	<path fill="#000000" fill-opacity="1" stroke-width="0.640004" stroke-linejoin="round" stroke="#000000" stroke-opacity="1" d="M 146.872,58.7948C 147.368,58.7948 147.771,59.1972 147.771,59.6935C 147.771,60.1898 147.368,60.5922 146.872,60.5922C 146.376,60.5922 145.973,60.1898 145.973,59.6935C 145.973,59.1972 146.376,58.7948 146.872,58.7948 Z "/>
	<text transform="matrix(1.0000000000000000 0.0000000000000000 0.0000000000000000 1.0000000000000000 181.00 47.00)" xml:space="preserve">
		<tspan style=" font-family:Segoe UI; font-size:8.436298pt;" letter-spacing="0.00em" fill="#000000" fill-opacity="1" stroke-width="0.2" stroke-linejoin="round" stroke="#000000" stroke-opacity="1">energy with c2_</tspan>
	</text>
	<line fill="none" stroke-width="0.640004" stroke-linejoin="round" stroke="#000000" stroke-opacity="1" x1="24.6586" y1="129.779" x2="24.659" y2="17.4058"/>
	<path fill="none" stroke-width="0.640004" stroke-linejoin="round" stroke="#000000" stroke-opacity="1" d="M 62.5217,75.9825C 80.6497,64.0663 107.364,52.2362 146.726,43.4839"/>
	<path fill="none" stroke-width="0.319997" stroke-linejoin="round" stroke="#989898" stroke-opacity="1" d="M 146.726,43.4839C 154.448,41.7669 162.656,40.1684 171.382,38.7109"/>
	<path fill="#000000" fill-opacity="1" stroke-width="0.640004" stroke-linejoin="round" stroke="#000000" stroke-opacity="1" d="M 62.7809,75.0993C 63.2773,75.0993 63.6796,75.5016 63.6796,75.998C 63.6796,76.4942 63.2773,76.8966 62.7809,76.8966C 62.2846,76.8966 61.8823,76.4942 61.8823,75.998C 61.8823,75.5016 62.2846,75.0993 62.7809,75.0993 Z "/>
	<path fill="none" stroke-width="0.319997" stroke-linejoin="round" stroke="#989898" stroke-opacity="1" d="M 171.382,38.7109C 180.341,37.2144 189.845,35.8666 199.928,34.692"/>
	<path fill="#000000" fill-opacity="1" stroke-width="0.640004" stroke-linejoin="round" stroke="#000000" stroke-opacity="1" d="M 146.864,42.4882C 147.36,42.4882 147.762,42.8906 147.762,43.3869C 147.762,43.8832 147.36,44.2856 146.864,44.2856C 146.367,44.2856 145.965,43.8832 145.965,43.3869C 145.965,42.8906 146.367,42.4882 146.864,42.4882 Z "/>
	<path fill="#000000" fill-opacity="1" stroke-width="0.32" stroke-linejoin="round" d="M 146.723,117.835L 146.723,115.168L 147.043,115.168L 147.043,117.835L 146.723,117.835 Z M 146.723,112.502L 146.723,109.835L 147.043,109.835L 147.043,112.502L 146.723,112.502 Z M 146.723,107.168L 146.723,104.502L 147.043,104.502L 147.043,107.168L 146.723,107.168 Z M 146.723,101.835L 146.723,99.1685L 147.043,99.1685L 147.043,101.835L 146.723,101.835 Z M 146.723,96.5018L 146.723,93.8351L 147.043,93.8351L 147.043,96.5018L 146.723,96.5018 Z M 146.723,91.1685L 146.723,88.5018L 147.043,88.5018L 147.043,91.1685L 146.723,91.1685 Z M 146.723,85.8351L 146.723,83.1685L 147.043,83.1685L 147.043,85.8351L 146.723,85.8351 Z M 146.723,80.5018L 146.723,77.8351L 147.043,77.8351L 147.043,80.5018L 146.723,80.5018 Z M 146.723,75.1685L 146.723,72.5018L 147.043,72.5018L 147.043,75.1685L 146.723,75.1685 Z M 146.723,69.8351L 146.723,67.1685L 147.043,67.1685L 147.043,69.8351L 146.723,69.8351 Z M 146.723,64.5017L 146.723,61.8351L 147.043,61.8351L 147.043,64.5017L 146.723,64.5017 Z M 146.723,59.1685L 146.723,56.5018L 147.043,56.5018L 147.043,59.1685L 146.723,59.1685 Z M 146.723,53.8351L 146.723,51.1685L 147.043,51.1685L 147.043,53.8351L 146.723,53.8351 Z M 146.723,48.5018L 146.723,45.8351L 147.043,45.8351L 147.043,48.5018L 146.723,48.5018 Z M 146.723,43.1685L 146.723,40.5018L 147.043,40.5018L 147.043,43.1685L 146.723,43.1685 Z M 146.723,37.8351L 146.723,35.1685L 147.043,35.1685L 147.043,37.8351L 146.723,37.8351 Z M 146.723,32.5018L 146.723,29.8351L 147.043,29.8351L 147.043,32.5018L 146.723,32.5018 Z M 146.723,27.1685L 146.723,24.5018L 147.043,24.5018L 147.043,27.1685L 146.723,27.1685 Z M 146.723,21.8351L 146.723,19.1685L 147.043,19.1685L 147.043,21.8351L 146.723,21.8351 Z M 146.723,123.168L 146.723,120.502L 147.043,120.502L 147.043,123.168L 146.723,123.168 Z "/>
	<line fill="none" stroke-width="0.640004" stroke-linejoin="round" stroke="#FF7D00" stroke-opacity="1" x1="117.606" y1="48.6535" x2="116.318" y2="44.9385"/>
	<path fill="#FF7D00" fill-opacity="1" stroke-width="0.2" stroke-linejoin="round" d="M 118.448,46.5624L 117.386,48.2894L 115.663,47.4198L 118.189,50.6829L 118.448,46.5624 Z "/>
	<line fill="none" stroke-width="0.640004" stroke-linejoin="round" stroke="#FF7D00" stroke-opacity="1" x1="138.07" y1="42.8098" x2="137.224" y2="38.6812"/>
	<path fill="#FF7D00" fill-opacity="1" stroke-width="0.2" stroke-linejoin="round" d="M 139.138,40.7827L 137.959,42.4321L 136.3,41.4455L 138.595,44.8754L 139.138,40.7827 Z "/>
	<line fill="none" stroke-width="0.640004" stroke-linejoin="round" stroke="#FF7D00" stroke-opacity="1" x1="96.6895" y1="56.7182" x2="95.2014" y2="53.0471"/>
	<path fill="#FF7D00" fill-opacity="1" stroke-width="0.2" stroke-linejoin="round" d="M 97.1073,53.8903L 96.2355,55.7208L 94.4294,55.0401L 97.2894,58.0149L 97.1073,53.8903 Z "/>
	<line fill="none" stroke-width="0.640004" stroke-linejoin="round" stroke="#FF7D00" stroke-opacity="1" x1="76.0865" y1="66.0928" x2="74.6343" y2="63.4087"/>
	<path fill="#FF7D00" fill-opacity="1" stroke-width="0.2" stroke-linejoin="round" d="M 76.1279,63.2355L 75.5046,65.1648L 73.6247,64.7278L 76.8513,67.3002L 76.1279,63.2355 Z "/>
	<path fill="#FF7D00" fill-opacity="1" stroke-width="0.2" stroke-linejoin="round" d="M 150.953,52.258L 149.559,50.7864L 150.843,49.3458L 147.039,50.9452L 150.953,52.258 Z "/>
	<line fill="none" stroke-width="0.640004" stroke-linejoin="round" stroke="#FF7D00" stroke-opacity="1" x1="149.135" y1="50.8442" x2="171.415" y2="50.8446"/>
</svg>
