<?xml version="1.0" encoding="utf-8"?>
<!DOCTYPE svg PUBLIC "-//W3C//DTD SVG 1.1//EN" "http://www.w3.org/Graphics/SVG/1.1/DTD/svg11.dtd">
<svg xmlns="http://www.w3.org/2000/svg" xmlns:xlink="http://www.w3.org/1999/xlink" version="1.1" baseProfile="full" width="234.13" height="152" viewBox="0 0 234.13 152.00" enable-background="new 0 0 234.13 152.00" xml:space="preserve">
	<path fill="#000000" fill-opacity="1" stroke-width="0.32" stroke-linejoin="round" d="M 62.683,117.831L 62.683,115.165L 63.003,115.165L 63.003,117.831L 62.683,117.831 Z M 62.683,112.498L 62.683,109.831L 63.003,109.831L 63.003,112.498L 62.683,112.498 Z M 62.683,107.165L 62.683,104.498L 63.003,104.498L 63.003,107.165L 62.683,107.165 Z M 62.683,101.831L 62.683,99.1647L 63.003,99.1647L 63.003,101.831L 62.683,101.831 Z M 62.683,96.498L 62.683,93.8313L 63.003,93.8313L 63.003,96.498L 62.683,96.498 Z M 62.683,91.1647L 62.683,88.498L 63.003,88.498L 63.003,91.1647L 62.683,91.1647 Z M 62.683,85.8313L 62.683,83.1647L 63.003,83.1647L 63.003,85.8313L 62.683,85.8313 Z M 62.683,80.498L 62.683,77.8313L 63.003,77.8313L 63.003,80.498L 62.683,80.498 Z M 62.683,75.1647L 62.683,72.498L 63.003,72.498L 63.003,75.1647L 62.683,75.1647 Z M 62.683,69.8313L 62.683,67.1647L 63.003,67.1647L 63.003,69.8313L 62.683,69.8313 Z M 62.683,64.498L 62.683,61.8313L 63.003,61.8313L 63.003,64.498L 62.683,64.498 Z M 62.683,59.1647L 62.683,56.498L 63.003,56.498L 63.003,59.1647L 62.683,59.1647 Z M 62.683,53.8313L 62.683,51.1647L 63.003,51.1647L 63.003,53.8313L 62.683,53.8313 Z M 62.683,48.498L 62.683,45.8313L 63.003,45.8313L 63.003,48.498L 62.683,48.498 Z M 62.683,43.1647L 62.683,40.498L 63.003,40.498L 63.003,43.1647L 62.683,43.1647 Z M 62.683,37.8313L 62.683,35.1647L 63.003,35.1647L 63.003,37.8313L 62.683,37.8313 Z M 62.683,32.498L 62.683,29.8313L 63.003,29.8313L 63.003,32.498L 62.683,32.498 Z M 62.683,27.1647L 62.683,24.498L 63.003,24.498L 63.003,27.1647L 62.683,27.1647 Z M 62.683,21.8313L 62.683,19.1647L 63.003,19.1647L 63.003,21.8313L 62.683,21.8313 Z M 62.683,123.165L 62.683,120.498L 63.003,120.498L 63.003,123.165L 62.683,123.165 Z "/>
	<path fill="#000000" fill-opacity="1" stroke-width="0.2" stroke-linejoin="round" d="M 21.945,20.9131L 24.6859,18.4954L 27.1983,20.9021L 24.5623,13.9462L 21.945,20.9131 Z "/>
	<path fill="#000000" fill-opacity="1" stroke-width="0.2" stroke-linejoin="round" d="M 191.562,120.23L 193.945,123.001L 191.507,125.483L 198.495,122.934L 191.562,120.23 Z "/>
	<text transform="matrix(1.0000000000000000 0.0000000000000000 0.0000000000000000 1.0000000000000000 190.00 150.00)" xml:space="preserve">
		<tspan style=" font-family:Segoe UI; font-size:8.436299pt;" letter-spacing="0.00em" fill="#000000" fill-opacity="1" stroke-width="0.2" stroke-linejoin="round" stroke="#000000" stroke-opacity="1">time (s)</tspan>
	</text>
	<text transform="matrix(1.0000000000000000 0.0000000000000000 0.0000000000000000 1.0000000000000000 -3.00 8.00)" xml:space="preserve">
		<tspan style=" font-family:Segoe UI; font-size:8.436299pt;" letter-spacing="0.00em" fill="#000000" fill-opacity="1" stroke-width="0.2" stroke-linejoin="round">Energy (J)</tspan>
	</text>
	<text transform="matrix(1.0000000000000000 0.0000000000000000 0.0000000000000000 1.0000000000000000 39.00 139.00)" xml:space="preserve">
		<tspan style=" font-family:Segoe UI; font-size:8.436299pt;" letter-spacing="0.00em" fill="#000000" fill-opacity="1" stroke-width="0.2" stroke-linejoin="round">c2x</tspan>
	</text>
	<text transform="matrix(1.0000000000000000 0.0000000000000000 0.0000000000000000 1.0000000000000000 148.00 139.00)" xml:space="preserve">
		<tspan style=" font-family:Segoe UI; font-size:8.436299pt;" letter-spacing="0.00em" fill="#000000" fill-opacity="1" stroke-width="0.2" stroke-linejoin="round">c4x</tspan>
	</text>
	<path fill="none" stroke-width="0.319997" stroke-linejoin="round" stroke="#989898" stroke-opacity="1" d="M 24.5518,122.824C 24.5518,122.824 26.0544,96.6194 62.7587,70.7926"/>
	<path fill="none" stroke-width="0.640004" stroke-linejoin="round" stroke="#000000" stroke-opacity="1" d="M 62.7587,70.7926C 84.4429,55.5347 118.413,40.4084 171.619,30.8952"/>
	<path fill="none" stroke-width="0.319997" stroke-linejoin="round" stroke="#989898" stroke-opacity="1" d="M 171.619,30.8952C 180.578,29.2933 190.082,27.8506 200.165,26.5931"/>
	<path fill="#000000" fill-opacity="1" stroke-width="0.640004" stroke-linejoin="round" stroke="#000000" stroke-opacity="1" d="M 62.7778,69.9825C 63.2741,69.9825 63.6765,70.3848 63.6765,70.8811C 63.6765,71.3774 63.2741,71.7798 62.7778,71.7798C 62.2815,71.7798 61.8791,71.3774 61.8791,70.8811C 61.8791,70.3848 62.2815,69.9825 62.7778,69.9825 Z "/>
	<path fill="#000000" fill-opacity="1" stroke-width="0.640004" stroke-linejoin="round" stroke="#000000" stroke-opacity="1" d="M 171.579,30.0319C 172.075,30.0319 172.478,30.4342 172.478,30.9306C 172.478,31.4269 172.075,31.8292 171.579,31.8292C 171.083,31.8292 170.68,31.4269 170.68,30.9306C 170.68,30.4342 171.083,30.0319 171.579,30.0319 Z "/>
	<path fill="#000000" fill-opacity="1" stroke-width="0.32" stroke-linejoin="round" d="M 171.444,117.78L 171.444,115.113L 171.764,115.113L 171.764,117.78L 171.444,117.78 Z M 171.444,112.447L 171.444,109.78L 171.764,109.78L 171.764,112.447L 171.444,112.447 Z M 171.444,107.113L 171.444,104.447L 171.764,104.447L 171.764,107.113L 171.444,107.113 Z M 171.444,101.78L 171.444,99.1133L 171.764,99.1133L 171.764,101.78L 171.444,101.78 Z M 171.444,96.4466L 171.444,93.78L 171.764,93.78L 171.764,96.4466L 171.444,96.4466 Z M 171.444,91.1133L 171.444,88.4466L 171.764,88.4466L 171.764,91.1133L 171.444,91.1133 Z M 171.444,85.78L 171.444,83.1133L 171.764,83.1133L 171.764,85.78L 171.444,85.78 Z M 171.444,80.4466L 171.444,77.78L 171.764,77.78L 171.764,80.4466L 171.444,80.4466 Z M 171.444,75.1133L 171.444,72.4466L 171.764,72.4466L 171.764,75.1133L 171.444,75.1133 Z M 171.444,69.78L 171.444,67.1133L 171.764,67.1133L 171.764,69.78L 171.444,69.78 Z M 171.444,64.4466L 171.444,61.78L 171.764,61.78L 171.764,64.4466L 171.444,64.4466 Z M 171.444,59.1133L 171.444,56.4466L 171.764,56.4466L 171.764,59.1133L 171.444,59.1133 Z M 171.444,53.78L 171.444,51.1133L 171.764,51.1133L 171.764,53.78L 171.444,53.78 Z M 171.444,48.4466L 171.444,45.78L 171.764,45.78L 171.764,48.4466L 171.444,48.4466 Z M 171.444,43.1133L 171.444,40.4466L 171.764,40.4466L 171.764,43.1133L 171.444,43.1133 Z M 171.444,37.78L 171.444,35.1133L 171.764,35.1133L 171.764,37.78L 171.444,37.78 Z M 171.444,32.4466L 171.444,29.78L 171.764,29.78L 171.764,32.4466L 171.444,32.4466 Z M 171.444,27.1133L 171.444,24.4466L 171.764,24.4466L 171.764,27.1133L 171.444,27.1133 Z M 171.444,21.78L 171.444,19.1133L 171.764,19.1133L 171.764,21.78L 171.444,21.78 Z M 171.444,123.113L 171.444,120.447L 171.764,120.447L 171.764,123.113L 171.444,123.113 Z "/>
	<path fill="none" stroke-width="0.319997" stroke-linejoin="round" stroke="#989898" stroke-opacity="1" d="M 24.552,123.082C 24.552,123.082 23.8433,100.892 62.8813,81.7576"/>
	<line fill="none" stroke-width="0.640004" stroke-linejoin="round" stroke="#000000" stroke-opacity="1" x1="17.2231" y1="122.949" x2="195.334" y2="122.949"/>
	<path fill="none" stroke-width="0.640004" stroke-linejoin="round" stroke="#000000" stroke-opacity="1" d="M 62.8813,81.7576C 84.5833,71.1203 118.569,61.427 171.789,57.0149"/>
	<path fill="none" stroke-width="0.319997" stroke-linejoin="round" stroke="#989898" stroke-opacity="1" d="M 171.789,57.0149C 180.728,56.2738 190.21,55.6817 200.267,55.2591"/>
	<line fill="none" stroke-width="0.2" stroke-linejoin="round" x1="63.4905" y1="81.6091" x2="63.153" y2="83.6113"/>
	<path fill="#000000" fill-opacity="1" stroke-width="0.640004" stroke-linejoin="round" stroke="#000000" stroke-opacity="1" d="M 62.8605,81.053C 63.3568,81.053 63.7592,81.4554 63.7592,81.9517C 63.7592,82.448 63.3568,82.8503 62.8605,82.8503C 62.3642,82.8503 61.9619,82.448 61.9619,81.9517C 61.9619,81.4554 62.3642,81.053 62.8605,81.053 Z "/>
	<path fill="#000000" fill-opacity="1" stroke-width="0.640004" stroke-linejoin="round" stroke="#000000" stroke-opacity="1" d="M 171.587,56.0401C 172.084,56.0401 172.486,56.4425 172.486,56.9388C 172.486,57.4352 172.084,57.8375 171.587,57.8375C 171.091,57.8375 170.689,57.4352 170.689,56.9388C 170.689,56.4425 171.091,56.0401 171.587,56.0401 Z "/>
	<path fill="none" stroke-width="0.640004" stroke-linejoin="round" stroke="#000000" stroke-opacity="1" d="M 139.082,48.6017C 139.082,48.6017 107.079,58.0876 132.483,62.9469C 157.886,67.8063 138.722,87.476 138.722,87.476"/>
	<text transform="matrix(1.0000000000000000 0.0000000000000000 0.0000000000000000 1.0000000000000000 86.00 100.00)" xml:space="preserve">
		<tspan style=" font-family:Segoe UI; font-size:8.436299pt;" letter-spacing="0.00em" fill="#000000" fill-opacity="1" stroke-width="0.2" stroke-linejoin="round" stroke="#000000" stroke-opacity="1">admissible region</tspan>
	</text>
	<text transform="matrix(1.0000000000000000 0.0000000000000000 0.0000000000000000 1.0000000000000000 181.00 27.00)" xml:space="preserve">
		<tspan style=" font-family:Segoe UI; font-size:8.436298pt;" letter-spacing="0.00em" fill="#000000" fill-opacity="1" stroke-width="0.2" stroke-linejoin="round" stroke="#000000" stroke-opacity="1">energy with c2_</tspan>
	</text>
	<text transform="matrix(1.0000000000000000 0.0000000000000000 0.0000000000000000 1.0000000000000000 182.00 67.00)" xml:space="preserve">
		<tspan style=" font-family:Segoe UI; font-size:8.436298pt;" letter-spacing="0.00em" fill="#000000" fill-opacity="1" stroke-width="0.2" stroke-linejoin="round" stroke="#000000" stroke-opacity="1">energy with c2-</tspan>
	</text>
	<line fill="none" stroke-width="0.640004" stroke-linejoin="round" stroke="#000000" stroke-opacity="1" x1="24.6557" y1="129.724" x2="24.6562" y2="17.3508"/>
</svg>
