<?xml version="1.0" encoding="utf-8"?>
<!DOCTYPE svg PUBLIC "-//W3C//DTD SVG 1.1//EN" "http://www.w3.org/Graphics/SVG/1.1/DTD/svg11.dtd">
<svg xmlns="http://www.w3.org/2000/svg" xmlns:xlink="http://www.w3.org/1999/xlink" version="1.1" baseProfile="full" width="337.701" height="256.532" viewBox="0 0 337.70 256.53" enable-background="new 0 0 337.70 256.53" xml:space="preserve">
	<path fill="#FFC800" fill-opacity="1" stroke-width="0.32" stroke-linejoin="round" d="M 31.2248,223.374L 36.5581,223.374L 36.5581,224.014L 31.2248,224.014L 31.2248,223.374 Z M 41.8915,223.374L 47.2248,223.374L 47.2248,224.014L 41.8915,224.014L 41.8915,223.374 Z M 20.5581,223.374L 25.8915,223.374L 25.8915,224.014L 20.5581,224.014L 20.5581,223.374 Z "/>
	<path fill="#000000" fill-opacity="1" stroke-width="0.2" stroke-linejoin="round" d="M 18.0526,14.2227L 20.3255,12.2177L 22.409,14.2135L 20.223,8.44514L 18.0526,14.2227 Z "/>
	<path fill="#000000" fill-opacity="1" stroke-width="0.2" stroke-linejoin="round" d="M 322.997,235.732L 324.974,238.03L 322.952,240.088L 328.747,237.975L 322.997,235.732 Z "/>
	<path fill="#000000" fill-opacity="1" stroke-width="0.32" stroke-linejoin="round" d="M 35.2393,221.466L 35.3956,220.692L 35.5862,220.409L 35.8809,220.534L 35.6903,220.817L 35.5594,221.466L 35.2393,221.466 Z M 36.1825,219.525L 36.7788,218.64L 37.0735,218.765L 36.4772,219.65L 36.1825,219.525 Z M 37.6202,217.916L 38.5046,217.32L 38.7309,217.546L 37.8464,218.142L 37.6202,217.916 Z M 39.4631,216.745L 40.5087,216.534L 40.6333,216.829L 39.5877,217.04L 39.4631,216.745 Z M 41.5542,216.323L 42.1772,216.197L 42.6621,216.295L 42.6621,216.615L 42.1772,216.517L 41.6789,216.617L 41.5542,216.323 Z M 43.7077,216.506L 44.7533,216.717L 44.7533,217.037L 43.7077,216.826L 43.7077,216.506 Z M 45.7349,217.242L 46.6194,217.839L 46.4947,218.133L 45.6103,217.537L 45.7349,217.242 Z M 47.4982,218.526L 48.0945,219.41L 47.8682,219.636L 47.2719,218.752L 47.4982,218.526 Z M 48.6908,220.295L 48.9587,220.692L 49.0871,221.328L 48.7923,221.452L 48.664,220.817L 48.4645,220.521L 48.6908,220.295 Z M 49.2982,222.373L 49.5092,223.419L 49.2145,223.544L 49.0034,222.498L 49.2982,222.373 Z M 49.3413,224.527L 49.1303,225.572L 48.8103,225.572L 49.0213,224.527L 49.3413,224.527 Z M 48.8113,226.64L 48.215,227.525L 47.9203,227.4L 48.5166,226.516L 48.8113,226.64 Z M 47.6187,228.409L 47.3815,228.761L 46.7982,229.154L 46.5719,228.928L 47.1552,228.535L 47.324,228.285L 47.6187,228.409 Z M 45.9137,229.751L 45.0421,230.338L 44.9669,230.354L 44.8423,230.059L 44.9174,230.044L 45.6875,229.525L 45.9137,229.751 Z M 43.9213,230.565L 42.8758,230.776L 42.7511,230.481L 43.7967,230.27L 43.9213,230.565 Z M 41.7679,230.834L 40.7223,230.623L 40.7223,230.303L 41.7679,230.514L 41.7679,230.834 Z M 39.6767,230.412L 39.3123,230.338L 38.6834,229.914L 38.8081,229.62L 39.4369,230.044L 39.6767,230.092L 39.6767,230.412 Z M 37.799,229.318L 36.9729,228.761L 36.8993,228.652L 37.1256,228.426L 37.1991,228.535L 37.9236,229.023L 37.799,229.318 Z M 36.303,227.768L 35.7067,226.883L 35.933,226.657L 36.5293,227.541L 36.303,227.768 Z M 35.2825,225.862L 35.0715,224.816L 35.3662,224.691L 35.5773,225.737L 35.2825,225.862 Z M 34.8604,223.771L 34.8172,223.557L 35.0283,222.511L 35.3483,222.511L 35.1372,223.557L 35.1551,223.646L 34.8604,223.771 Z "/>
	<path fill="#000000" fill-opacity="1" stroke-width="0.32" stroke-linejoin="round" d="M 49.7794,31.7435L 49.9357,30.9698L 50.1262,30.6871L 50.4209,30.8118L 50.2304,31.0945L 50.0994,31.7435L 49.7794,31.7435 Z M 50.7225,29.8027L 51.3188,28.9183L 51.6135,29.043L 51.0172,29.9274L 50.7225,29.8027 Z M 52.1602,28.194L 53.0446,27.5977L 53.2709,27.8239L 52.3865,28.4202L 52.1602,28.194 Z M 54.0031,27.0227L 55.0487,26.8116L 55.1734,27.1063L 54.1278,27.3175L 54.0031,27.0227 Z M 56.0943,26.6005L 56.7172,26.4747L 57.2022,26.5726L 57.2022,26.8926L 56.7172,26.7947L 56.2189,26.8953L 56.0943,26.6005 Z M 58.2477,26.7837L 59.2933,26.9948L 59.2933,27.3148L 58.2477,27.1037L 58.2477,26.7837 Z M 60.2749,27.5203L 61.1594,28.1166L 61.0347,28.4114L 60.1503,27.815L 60.2749,27.5203 Z M 62.0382,28.8035L 62.6345,29.688L 62.4082,29.9142L 61.8119,29.0298L 62.0382,28.8035 Z M 63.2308,30.5724L 63.4987,30.9698L 63.6271,31.6056L 63.3324,31.7303L 63.204,31.0945L 63.0045,30.7987L 63.2308,30.5724 Z M 63.8382,32.6512L 64.0493,33.6967L 63.7545,33.8214L 63.5435,32.7759L 63.8382,32.6512 Z M 63.8814,34.8046L 63.6703,35.8502L 63.3503,35.8502L 63.5614,34.8046L 63.8814,34.8046 Z M 63.3513,36.9183L 62.755,37.8027L 62.4603,37.6781L 63.0566,36.7936L 63.3513,36.9183 Z M 62.1587,38.6871L 61.9215,39.039L 61.3382,39.4323L 61.1119,39.2061L 61.6952,38.8128L 61.864,38.5624L 62.1587,38.6871 Z M 60.4538,40.0286L 59.5821,40.6162L 59.5069,40.6314L 59.3822,40.3367L 59.4574,40.3215L 60.2275,39.8023L 60.4538,40.0286 Z M 58.4613,40.8425L 57.4158,41.0536L 57.2911,40.7588L 58.3367,40.5477L 58.4613,40.8425 Z M 56.3078,41.1121L 55.2623,40.901L 55.2623,40.5809L 56.3078,40.7921L 56.3078,41.1121 Z M 54.2167,40.6899L 53.8523,40.6163L 53.2234,40.1923L 53.3481,39.8975L 53.977,40.3215L 54.2167,40.3699L 54.2167,40.6899 Z M 52.3389,39.596L 51.5129,39.0391L 51.4393,38.9298L 51.6656,38.7036L 51.7392,38.8128L 52.4636,39.3012L 52.3389,39.596 Z M 50.843,38.0455L 50.2467,37.161L 50.4729,36.9348L 51.0693,37.8192L 50.843,38.0455 Z M 49.8226,36.1395L 49.6115,35.0939L 49.9062,34.9693L 50.1173,36.0148L 49.8226,36.1395 Z M 49.4004,34.0484L 49.3572,33.8347L 49.5683,32.7891L 49.8883,32.7891L 49.6772,33.8347L 49.6951,33.9237L 49.4004,34.0484 Z "/>
	<path fill="#000000" fill-opacity="1" stroke-width="0.32" stroke-linejoin="round" d="M 49.685,20.5051L 49.685,21.5719L 49.365,21.5719L 49.365,20.5051L 49.685,20.5051 Z M 49.685,22.6385L 49.685,23.7052L 49.365,23.7052L 49.365,22.6385L 49.685,22.6385 Z M 49.685,24.7718L 49.685,25.8385L 49.365,25.8385L 49.365,24.7718L 49.685,24.7718 Z M 49.685,26.9052L 49.685,27.9718L 49.365,27.9718L 49.365,26.9052L 49.685,26.9052 Z M 49.685,29.0385L 49.685,30.1051L 49.365,30.1051L 49.365,29.0385L 49.685,29.0385 Z M 49.685,31.1718L 49.685,32.2385L 49.365,32.2385L 49.365,31.1718L 49.685,31.1718 Z M 49.685,33.3052L 49.685,34.3718L 49.365,34.3718L 49.365,33.3052L 49.685,33.3052 Z M 49.685,35.4385L 49.685,36.5051L 49.365,36.5051L 49.365,35.4385L 49.685,35.4385 Z M 49.685,37.5719L 49.685,38.6385L 49.365,38.6385L 49.365,37.5719L 49.685,37.5719 Z M 49.685,39.7052L 49.685,40.7718L 49.365,40.7718L 49.365,39.7052L 49.685,39.7052 Z M 49.685,41.8385L 49.685,42.9052L 49.365,42.9052L 49.365,41.8385L 49.685,41.8385 Z M 49.685,43.9718L 49.685,45.0385L 49.365,45.0385L 49.365,43.9718L 49.685,43.9718 Z M 49.685,46.1051L 49.685,47.1718L 49.365,47.1718L 49.365,46.1051L 49.685,46.1051 Z M 49.685,48.2385L 49.685,49.3052L 49.365,49.3052L 49.365,48.2385L 49.685,48.2385 Z M 49.685,50.3718L 49.685,51.4385L 49.365,51.4385L 49.365,50.3718L 49.685,50.3718 Z M 49.685,52.5051L 49.685,53.5718L 49.365,53.5718L 49.365,52.5051L 49.685,52.5051 Z M 49.685,54.6385L 49.685,55.7052L 49.365,55.7052L 49.365,54.6385L 49.685,54.6385 Z M 49.685,56.7718L 49.685,57.8385L 49.365,57.8385L 49.365,56.7718L 49.685,56.7718 Z M 49.685,58.9052L 49.685,59.9718L 49.365,59.9718L 49.365,58.9052L 49.685,58.9052 Z M 49.685,61.0385L 49.685,62.1051L 49.365,62.1051L 49.365,61.0385L 49.685,61.0385 Z M 49.685,63.1718L 49.685,64.2385L 49.365,64.2385L 49.365,63.1718L 49.685,63.1718 Z M 49.685,65.3052L 49.685,66.3718L 49.365,66.3718L 49.365,65.3052L 49.685,65.3052 Z M 49.685,67.4385L 49.685,68.5051L 49.365,68.5051L 49.365,67.4385L 49.685,67.4385 Z M 49.685,69.5718L 49.685,70.6385L 49.365,70.6385L 49.365,69.5718L 49.685,69.5718 Z M 49.685,71.7052L 49.685,72.7718L 49.365,72.7718L 49.365,71.7052L 49.685,71.7052 Z M 49.685,73.8385L 49.685,74.9052L 49.365,74.9052L 49.365,73.8385L 49.685,73.8385 Z M 49.685,75.9718L 49.685,77.0385L 49.365,77.0385L 49.365,75.9718L 49.685,75.9718 Z M 49.685,78.1051L 49.685,79.1718L 49.365,79.1718L 49.365,78.1051L 49.685,78.1051 Z M 49.685,80.2385L 49.685,81.3052L 49.365,81.3052L 49.365,80.2385L 49.685,80.2385 Z M 49.685,82.3718L 49.685,83.4385L 49.365,83.4385L 49.365,82.3718L 49.685,82.3718 Z M 49.685,84.5051L 49.685,85.5718L 49.365,85.5718L 49.365,84.5051L 49.685,84.5051 Z M 49.685,86.6385L 49.685,87.7052L 49.365,87.7052L 49.365,86.6385L 49.685,86.6385 Z M 49.685,88.7718L 49.685,89.8385L 49.365,89.8385L 49.365,88.7718L 49.685,88.7718 Z M 49.685,90.9052L 49.685,91.9718L 49.365,91.9718L 49.365,90.9052L 49.685,90.9052 Z M 49.685,93.0385L 49.685,94.1051L 49.365,94.1051L 49.365,93.0385L 49.685,93.0385 Z M 49.685,95.1718L 49.685,96.2385L 49.365,96.2385L 49.365,95.1718L 49.685,95.1718 Z M 49.685,97.3052L 49.685,98.3718L 49.365,98.3718L 49.365,97.3052L 49.685,97.3052 Z M 49.685,99.4385L 49.685,100.505L 49.365,100.505L 49.365,99.4385L 49.685,99.4385 Z M 49.685,101.572L 49.685,102.639L 49.365,102.639L 49.365,101.572L 49.685,101.572 Z M 49.685,103.705L 49.685,104.772L 49.365,104.772L 49.365,103.705L 49.685,103.705 Z M 49.685,105.839L 49.685,106.905L 49.365,106.905L 49.365,105.839L 49.685,105.839 Z M 49.685,107.972L 49.685,109.038L 49.365,109.038L 49.365,107.972L 49.685,107.972 Z M 49.685,110.105L 49.685,111.172L 49.365,111.172L 49.365,110.105L 49.685,110.105 Z M 49.685,112.238L 49.685,113.305L 49.365,113.305L 49.365,112.238L 49.685,112.238 Z M 49.685,114.372L 49.685,115.438L 49.365,115.438L 49.365,114.372L 49.685,114.372 Z M 49.685,116.505L 49.685,117.572L 49.365,117.572L 49.365,116.505L 49.685,116.505 Z M 49.685,118.639L 49.685,119.705L 49.365,119.705L 49.365,118.639L 49.685,118.639 Z M 49.685,120.772L 49.685,121.839L 49.365,121.839L 49.365,120.772L 49.685,120.772 Z M 49.685,122.905L 49.685,123.972L 49.365,123.972L 49.365,122.905L 49.685,122.905 Z M 49.685,125.038L 49.685,126.105L 49.365,126.105L 49.365,125.038L 49.685,125.038 Z M 49.685,127.172L 49.685,128.238L 49.365,128.238L 49.365,127.172L 49.685,127.172 Z M 49.685,129.305L 49.685,130.372L 49.365,130.372L 49.365,129.305L 49.685,129.305 Z M 49.685,131.438L 49.685,132.505L 49.365,132.505L 49.365,131.438L 49.685,131.438 Z M 49.685,133.572L 49.685,134.639L 49.365,134.639L 49.365,133.572L 49.685,133.572 Z M 49.685,135.705L 49.685,136.772L 49.365,136.772L 49.365,135.705L 49.685,135.705 Z M 49.685,137.839L 49.685,138.905L 49.365,138.905L 49.365,137.839L 49.685,137.839 Z M 49.685,139.972L 49.685,141.038L 49.365,141.038L 49.365,139.972L 49.685,139.972 Z M 49.685,142.105L 49.685,143.172L 49.365,143.172L 49.365,142.105L 49.685,142.105 Z M 49.685,144.238L 49.685,145.305L 49.365,145.305L 49.365,144.238L 49.685,144.238 Z M 49.685,146.372L 49.685,147.438L 49.365,147.438L 49.365,146.372L 49.685,146.372 Z M 49.685,148.505L 49.685,149.572L 49.365,149.572L 49.365,148.505L 49.685,148.505 Z M 49.685,150.639L 49.685,151.705L 49.365,151.705L 49.365,150.639L 49.685,150.639 Z M 49.685,152.772L 49.685,153.839L 49.365,153.839L 49.365,152.772L 49.685,152.772 Z M 49.685,154.905L 49.685,155.972L 49.365,155.972L 49.365,154.905L 49.685,154.905 Z M 49.685,157.038L 49.685,158.105L 49.365,158.105L 49.365,157.038L 49.685,157.038 Z M 49.685,159.172L 49.685,160.238L 49.365,160.238L 49.365,159.172L 49.685,159.172 Z M 49.685,161.305L 49.685,162.372L 49.365,162.372L 49.365,161.305L 49.685,161.305 Z M 49.685,163.438L 49.685,164.505L 49.365,164.505L 49.365,163.438L 49.685,163.438 Z M 49.685,165.572L 49.685,166.639L 49.365,166.639L 49.365,165.572L 49.685,165.572 Z M 49.685,167.705L 49.685,168.772L 49.365,168.772L 49.365,167.705L 49.685,167.705 Z M 49.685,169.839L 49.685,170.905L 49.365,170.905L 49.365,169.839L 49.685,169.839 Z M 49.685,171.972L 49.685,173.038L 49.365,173.038L 49.365,171.972L 49.685,171.972 Z M 49.685,174.105L 49.685,175.172L 49.365,175.172L 49.365,174.105L 49.685,174.105 Z M 49.685,176.238L 49.685,177.305L 49.365,177.305L 49.365,176.238L 49.685,176.238 Z M 49.685,178.372L 49.685,179.438L 49.365,179.438L 49.365,178.372L 49.685,178.372 Z M 49.685,180.505L 49.685,181.572L 49.365,181.572L 49.365,180.505L 49.685,180.505 Z M 49.685,182.639L 49.685,183.705L 49.365,183.705L 49.365,182.639L 49.685,182.639 Z M 49.685,184.772L 49.685,185.839L 49.365,185.839L 49.365,184.772L 49.685,184.772 Z M 49.685,186.905L 49.685,187.972L 49.365,187.972L 49.365,186.905L 49.685,186.905 Z M 49.685,189.038L 49.685,190.105L 49.365,190.105L 49.365,189.038L 49.685,189.038 Z M 49.685,191.172L 49.685,192.238L 49.365,192.238L 49.365,191.172L 49.685,191.172 Z M 49.685,193.305L 49.685,194.372L 49.365,194.372L 49.365,193.305L 49.685,193.305 Z M 49.685,195.438L 49.685,196.505L 49.365,196.505L 49.365,195.438L 49.685,195.438 Z M 49.685,197.572L 49.685,198.639L 49.365,198.639L 49.365,197.572L 49.685,197.572 Z M 49.685,199.705L 49.685,200.772L 49.365,200.772L 49.365,199.705L 49.685,199.705 Z M 49.685,201.839L 49.685,202.905L 49.365,202.905L 49.365,201.839L 49.685,201.839 Z M 49.685,203.972L 49.685,205.038L 49.365,205.038L 49.365,203.972L 49.685,203.972 Z M 49.685,206.105L 49.685,207.172L 49.365,207.172L 49.365,206.105L 49.685,206.105 Z M 49.685,208.238L 49.685,209.305L 49.365,209.305L 49.365,208.238L 49.685,208.238 Z M 49.685,210.372L 49.685,211.438L 49.365,211.438L 49.365,210.372L 49.685,210.372 Z M 49.685,212.505L 49.685,213.572L 49.365,213.572L 49.365,212.505L 49.685,212.505 Z M 49.685,214.639L 49.685,215.705L 49.365,215.705L 49.365,214.639L 49.685,214.639 Z M 49.685,216.772L 49.685,217.838L 49.365,217.838L 49.365,216.772L 49.685,216.772 Z M 49.685,218.905L 49.685,219.972L 49.365,219.972L 49.365,218.905L 49.685,218.905 Z M 49.685,221.038L 49.685,222.105L 49.365,222.105L 49.365,221.038L 49.685,221.038 Z M 49.685,223.172L 49.685,224.238L 49.365,224.238L 49.365,223.172L 49.685,223.172 Z M 49.685,225.305L 49.685,226.372L 49.365,226.372L 49.365,225.305L 49.685,225.305 Z M 49.685,227.438L 49.685,228.505L 49.365,228.505L 49.365,227.438L 49.685,227.438 Z M 49.685,229.572L 49.685,230.639L 49.365,230.639L 49.365,229.572L 49.685,229.572 Z M 49.685,231.705L 49.685,232.772L 49.365,232.772L 49.365,231.705L 49.685,231.705 Z M 49.685,233.838L 49.685,234.905L 49.365,234.905L 49.365,233.838L 49.685,233.838 Z M 49.685,235.972L 49.685,237.038L 49.365,237.038L 49.365,235.972L 49.685,235.972 Z M 49.685,238.105L 49.685,239.172L 49.365,239.172L 49.365,238.105L 49.685,238.105 Z M 49.685,240.238L 49.685,241.305L 49.365,241.305L 49.365,240.238L 49.685,240.238 Z M 49.685,242.372L 49.685,243.438L 49.365,243.438L 49.365,242.372L 49.685,242.372 Z M 49.685,244.505L 49.685,245.572L 49.365,245.572L 49.365,244.505L 49.685,244.505 Z M 49.685,18.3718L 49.685,19.4385L 49.365,19.4385L 49.365,18.3718L 49.685,18.3718 Z "/>
	<line fill="none" stroke-width="0.64" stroke-linejoin="round" stroke="#000000" stroke-opacity="1" x1="49.4395" y1="33.7776" x2="49.4395" y2="223.622"/>
	<path fill="none" stroke-width="0.64" stroke-linejoin="round" stroke="#000000" stroke-opacity="1" d="M 49.3794,223.573C 49.3794,227.549 46.1559,230.773 42.1795,230.773C 38.2029,230.773 34.9795,227.55 34.9795,223.573"/>
	<path fill="#000000" fill-opacity="1" stroke-width="0.32" stroke-linejoin="round" d="M 35.1241,20.4953L 35.1241,21.562L 34.8041,21.562L 34.8041,20.4953L 35.1241,20.4953 Z M 35.1241,22.6287L 35.1241,23.6953L 34.8041,23.6953L 34.8041,22.6287L 35.1241,22.6287 Z M 35.1241,24.762L 35.1241,25.8286L 34.8041,25.8286L 34.8041,24.762L 35.1241,24.762 Z M 35.1241,26.8953L 35.1241,27.962L 34.8041,27.962L 34.8041,26.8953L 35.1241,26.8953 Z M 35.1241,29.0286L 35.1241,30.0953L 34.8041,30.0953L 34.8041,29.0286L 35.1241,29.0286 Z M 35.1241,31.1619L 35.1241,32.2287L 34.8041,32.2287L 34.8041,31.1619L 35.1241,31.1619 Z M 35.1241,33.2953L 35.1241,34.362L 34.8041,34.362L 34.8041,33.2953L 35.1241,33.2953 Z M 35.1241,35.4286L 35.1241,36.4953L 34.8041,36.4953L 34.8041,35.4286L 35.1241,35.4286 Z M 35.1241,37.562L 35.1241,38.6287L 34.8041,38.6287L 34.8041,37.562L 35.1241,37.562 Z M 35.1241,39.6953L 35.1241,40.762L 34.8041,40.762L 34.8041,39.6953L 35.1241,39.6953 Z M 35.1241,41.8286L 35.1241,42.8953L 34.8041,42.8953L 34.8041,41.8286L 35.1241,41.8286 Z M 35.1241,43.962L 35.1241,45.0286L 34.8041,45.0286L 34.8041,43.962L 35.1241,43.962 Z M 35.1241,46.0953L 35.1241,47.162L 34.8041,47.162L 34.8041,46.0953L 35.1241,46.0953 Z M 35.1241,48.2287L 35.1241,49.2953L 34.8041,49.2953L 34.8041,48.2287L 35.1241,48.2287 Z M 35.1241,50.362L 35.1241,51.4286L 34.8041,51.4286L 34.8041,50.362L 35.1241,50.362 Z M 35.1241,52.4953L 35.1241,53.562L 34.8041,53.562L 34.8041,52.4953L 35.1241,52.4953 Z M 35.1241,54.6287L 35.1241,55.6953L 34.8041,55.6953L 34.8041,54.6287L 35.1241,54.6287 Z M 35.1241,56.762L 35.1241,57.8286L 34.8041,57.8286L 34.8041,56.762L 35.1241,56.762 Z M 35.1241,58.8953L 35.1241,59.962L 34.8041,59.962L 34.8041,58.8953L 35.1241,58.8953 Z M 35.1241,61.0286L 35.1241,62.0953L 34.8041,62.0953L 34.8041,61.0286L 35.1241,61.0286 Z M 35.1241,63.162L 35.1241,64.2287L 34.8041,64.2287L 34.8041,63.162L 35.1241,63.162 Z M 35.1241,65.2953L 35.1241,66.362L 34.8041,66.362L 34.8041,65.2953L 35.1241,65.2953 Z M 35.1241,67.4286L 35.1241,68.4953L 34.8041,68.4953L 34.8041,67.4286L 35.1241,67.4286 Z M 35.1241,69.562L 35.1241,70.6287L 34.8041,70.6287L 34.8041,69.562L 35.1241,69.562 Z M 35.1241,71.6953L 35.1241,72.762L 34.8041,72.762L 34.8041,71.6953L 35.1241,71.6953 Z M 35.1241,73.8286L 35.1241,74.8953L 34.8041,74.8953L 34.8041,73.8286L 35.1241,73.8286 Z M 35.1241,75.962L 35.1241,77.0286L 34.8041,77.0286L 34.8041,75.962L 35.1241,75.962 Z M 35.1241,78.0953L 35.1241,79.162L 34.8041,79.162L 34.8041,78.0953L 35.1241,78.0953 Z M 35.1241,80.2287L 35.1241,81.2953L 34.8041,81.2953L 34.8041,80.2287L 35.1241,80.2287 Z M 35.1241,82.362L 35.1241,83.4286L 34.8041,83.4286L 34.8041,82.362L 35.1241,82.362 Z M 35.1241,84.4953L 35.1241,85.562L 34.8041,85.562L 34.8041,84.4953L 35.1241,84.4953 Z M 35.1241,86.6287L 35.1241,87.6953L 34.8041,87.6953L 34.8041,86.6287L 35.1241,86.6287 Z M 35.1241,88.762L 35.1241,89.8286L 34.8041,89.8286L 34.8041,88.762L 35.1241,88.762 Z M 35.1241,90.8953L 35.1241,91.962L 34.8041,91.962L 34.8041,90.8953L 35.1241,90.8953 Z M 35.1241,93.0286L 35.1241,94.0953L 34.8041,94.0953L 34.8041,93.0286L 35.1241,93.0286 Z M 35.1241,95.162L 35.1241,96.2287L 34.8041,96.2287L 34.8041,95.162L 35.1241,95.162 Z M 35.1241,97.2953L 35.1241,98.362L 34.8041,98.362L 34.8041,97.2953L 35.1241,97.2953 Z M 35.1241,99.4286L 35.1241,100.495L 34.8041,100.495L 34.8041,99.4286L 35.1241,99.4286 Z M 35.1241,101.562L 35.1241,102.629L 34.8041,102.629L 34.8041,101.562L 35.1241,101.562 Z M 35.1241,103.695L 35.1241,104.762L 34.8041,104.762L 34.8041,103.695L 35.1241,103.695 Z M 35.1241,105.829L 35.1241,106.895L 34.8041,106.895L 34.8041,105.829L 35.1241,105.829 Z M 35.1241,107.962L 35.1241,109.029L 34.8041,109.029L 34.8041,107.962L 35.1241,107.962 Z M 35.1241,110.095L 35.1241,111.162L 34.8041,111.162L 34.8041,110.095L 35.1241,110.095 Z M 35.1241,112.229L 35.1241,113.295L 34.8041,113.295L 34.8041,112.229L 35.1241,112.229 Z M 35.1241,114.362L 35.1241,115.429L 34.8041,115.429L 34.8041,114.362L 35.1241,114.362 Z M 35.1241,116.495L 35.1241,117.562L 34.8041,117.562L 34.8041,116.495L 35.1241,116.495 Z M 35.1241,118.629L 35.1241,119.695L 34.8041,119.695L 34.8041,118.629L 35.1241,118.629 Z M 35.1241,120.762L 35.1241,121.829L 34.8041,121.829L 34.8041,120.762L 35.1241,120.762 Z M 35.1241,122.895L 35.1241,123.962L 34.8041,123.962L 34.8041,122.895L 35.1241,122.895 Z M 35.1241,125.029L 35.1241,126.095L 34.8041,126.095L 34.8041,125.029L 35.1241,125.029 Z M 35.1241,127.162L 35.1241,128.229L 34.8041,128.229L 34.8041,127.162L 35.1241,127.162 Z M 35.1241,129.295L 35.1241,130.362L 34.8041,130.362L 34.8041,129.295L 35.1241,129.295 Z M 35.1241,131.429L 35.1241,132.495L 34.8041,132.495L 34.8041,131.429L 35.1241,131.429 Z M 35.1241,133.562L 35.1241,134.629L 34.8041,134.629L 34.8041,133.562L 35.1241,133.562 Z M 35.1241,135.695L 35.1241,136.762L 34.8041,136.762L 34.8041,135.695L 35.1241,135.695 Z M 35.1241,137.829L 35.1241,138.895L 34.8041,138.895L 34.8041,137.829L 35.1241,137.829 Z M 35.1241,139.962L 35.1241,141.029L 34.8041,141.029L 34.8041,139.962L 35.1241,139.962 Z M 35.1241,142.095L 35.1241,143.162L 34.8041,143.162L 34.8041,142.095L 35.1241,142.095 Z M 35.1241,144.229L 35.1241,145.295L 34.8041,145.295L 34.8041,144.229L 35.1241,144.229 Z M 35.1241,146.362L 35.1241,147.429L 34.8041,147.429L 34.8041,146.362L 35.1241,146.362 Z M 35.1241,148.495L 35.1241,149.562L 34.8041,149.562L 34.8041,148.495L 35.1241,148.495 Z M 35.1241,150.629L 35.1241,151.695L 34.8041,151.695L 34.8041,150.629L 35.1241,150.629 Z M 35.1241,152.762L 35.1241,153.829L 34.8041,153.829L 34.8041,152.762L 35.1241,152.762 Z M 35.1241,154.895L 35.1241,155.962L 34.8041,155.962L 34.8041,154.895L 35.1241,154.895 Z M 35.1241,157.029L 35.1241,158.095L 34.8041,158.095L 34.8041,157.029L 35.1241,157.029 Z M 35.1241,159.162L 35.1241,160.229L 34.8041,160.229L 34.8041,159.162L 35.1241,159.162 Z M 35.1241,161.295L 35.1241,162.362L 34.8041,162.362L 34.8041,161.295L 35.1241,161.295 Z M 35.1241,163.429L 35.1241,164.495L 34.8041,164.495L 34.8041,163.429L 35.1241,163.429 Z M 35.1241,165.562L 35.1241,166.629L 34.8041,166.629L 34.8041,165.562L 35.1241,165.562 Z M 35.1241,167.695L 35.1241,168.762L 34.8041,168.762L 34.8041,167.695L 35.1241,167.695 Z M 35.1241,169.829L 35.1241,170.895L 34.8041,170.895L 34.8041,169.829L 35.1241,169.829 Z M 35.1241,171.962L 35.1241,173.029L 34.8041,173.029L 34.8041,171.962L 35.1241,171.962 Z M 35.1241,174.095L 35.1241,175.162L 34.8041,175.162L 34.8041,174.095L 35.1241,174.095 Z M 35.1241,176.229L 35.1241,177.295L 34.8041,177.295L 34.8041,176.229L 35.1241,176.229 Z M 35.1241,178.362L 35.1241,179.429L 34.8041,179.429L 34.8041,178.362L 35.1241,178.362 Z M 35.1241,180.495L 35.1241,181.562L 34.8041,181.562L 34.8041,180.495L 35.1241,180.495 Z M 35.1241,182.629L 35.1241,183.695L 34.8041,183.695L 34.8041,182.629L 35.1241,182.629 Z M 35.1241,184.762L 35.1241,185.829L 34.8041,185.829L 34.8041,184.762L 35.1241,184.762 Z M 35.1241,186.895L 35.1241,187.962L 34.8041,187.962L 34.8041,186.895L 35.1241,186.895 Z M 35.1241,189.029L 35.1241,190.095L 34.8041,190.095L 34.8041,189.029L 35.1241,189.029 Z M 35.1241,191.162L 35.1241,192.229L 34.8041,192.229L 34.8041,191.162L 35.1241,191.162 Z M 35.1241,193.295L 35.1241,194.362L 34.8041,194.362L 34.8041,193.295L 35.1241,193.295 Z M 35.1241,195.429L 35.1241,196.495L 34.8041,196.495L 34.8041,195.429L 35.1241,195.429 Z M 35.1241,197.562L 35.1241,198.629L 34.8041,198.629L 34.8041,197.562L 35.1241,197.562 Z M 35.1241,199.695L 35.1241,200.762L 34.8041,200.762L 34.8041,199.695L 35.1241,199.695 Z M 35.1241,201.829L 35.1241,202.895L 34.8041,202.895L 34.8041,201.829L 35.1241,201.829 Z M 35.1241,203.962L 35.1241,205.029L 34.8041,205.029L 34.8041,203.962L 35.1241,203.962 Z M 35.1241,206.095L 35.1241,207.162L 34.8041,207.162L 34.8041,206.095L 35.1241,206.095 Z M 35.1241,208.229L 35.1241,209.295L 34.8041,209.295L 34.8041,208.229L 35.1241,208.229 Z M 35.1241,210.362L 35.1241,211.429L 34.8041,211.429L 34.8041,210.362L 35.1241,210.362 Z M 35.1241,212.495L 35.1241,213.562L 34.8041,213.562L 34.8041,212.495L 35.1241,212.495 Z M 35.1241,214.629L 35.1241,215.695L 34.8041,215.695L 34.8041,214.629L 35.1241,214.629 Z M 35.1241,216.762L 35.1241,217.829L 34.8041,217.829L 34.8041,216.762L 35.1241,216.762 Z M 35.1241,218.895L 35.1241,219.962L 34.8041,219.962L 34.8041,218.895L 35.1241,218.895 Z M 35.1241,221.029L 35.1241,222.095L 34.8041,222.095L 34.8041,221.029L 35.1241,221.029 Z M 35.1241,223.162L 35.1241,224.229L 34.8041,224.229L 34.8041,223.162L 35.1241,223.162 Z M 35.1241,225.295L 35.1241,226.362L 34.8041,226.362L 34.8041,225.295L 35.1241,225.295 Z M 35.1241,227.429L 35.1241,228.495L 34.8041,228.495L 34.8041,227.429L 35.1241,227.429 Z M 35.1241,229.562L 35.1241,230.629L 34.8041,230.629L 34.8041,229.562L 35.1241,229.562 Z M 35.1241,231.695L 35.1241,232.762L 34.8041,232.762L 34.8041,231.695L 35.1241,231.695 Z M 35.1241,233.829L 35.1241,234.895L 34.8041,234.895L 34.8041,233.829L 35.1241,233.829 Z M 35.1241,235.962L 35.1241,237.029L 34.8041,237.029L 34.8041,235.962L 35.1241,235.962 Z M 35.1241,238.095L 35.1241,239.162L 34.8041,239.162L 34.8041,238.095L 35.1241,238.095 Z M 35.1241,240.229L 35.1241,241.295L 34.8041,241.295L 34.8041,240.229L 35.1241,240.229 Z M 35.1241,242.362L 35.1241,243.429L 34.8041,243.429L 34.8041,242.362L 35.1241,242.362 Z M 35.1241,244.495L 35.1241,245.562L 34.8041,245.562L 34.8041,244.495L 35.1241,244.495 Z M 35.1241,18.362L 35.1241,19.4286L 34.8041,19.4286L 34.8041,18.362L 35.1241,18.362 Z "/>
	<path fill="#FFC800" fill-opacity="1" stroke-width="0.32" stroke-linejoin="round" d="M 31.2249,33.2738L 36.5582,33.2738L 36.5582,33.9137L 31.2249,33.9137L 31.2249,33.2738 Z M 41.8915,33.2738L 47.2249,33.2738L 47.2249,33.9137L 41.8915,33.9137L 41.8915,33.2738 Z M 52.5582,33.2738L 57.8915,33.2738L 57.8915,33.9137L 52.5582,33.9137L 52.5582,33.2738 Z M 63.2249,33.2738L 64.185,33.2738L 64.185,33.9137L 63.2249,33.9137L 63.2249,33.2738 Z M 20.5582,33.2738L 25.8915,33.2738L 25.8915,33.9137L 20.5582,33.9137L 20.5582,33.2738 Z "/>
	<line fill="none" stroke-width="0.64" stroke-linejoin="round" stroke="#000000" stroke-opacity="1" x1="34.8827" y1="33.8033" x2="34.8827" y2="223.648"/>
	<path fill="none" stroke-width="0.64" stroke-linejoin="round" stroke="#000000" stroke-opacity="1" d="M 49.471,33.7739C 49.471,29.7974 52.6945,26.5739 56.671,26.5739C 60.6475,26.5739 63.871,29.7974 63.871,33.7739"/>
	<path fill="#000000" fill-opacity="1" stroke-width="0.32" stroke-linejoin="round" d="M 64.1383,221.467L 64.2945,220.693L 64.4851,220.41L 64.7798,220.535L 64.5893,220.818L 64.4583,221.467L 64.1383,221.467 Z M 65.0814,219.526L 65.6777,218.641L 65.9724,218.766L 65.3761,219.651L 65.0814,219.526 Z M 66.5191,217.917L 67.4035,217.321L 67.6298,217.547L 66.7453,218.143L 66.5191,217.917 Z M 68.362,216.746L 69.4075,216.535L 69.5322,216.83L 68.4866,217.041L 68.362,216.746 Z M 70.4531,216.324L 71.0761,216.198L 71.561,216.296L 71.561,216.616L 71.0761,216.518L 70.5778,216.618L 70.4531,216.324 Z M 72.6066,216.507L 73.6521,216.718L 73.6521,217.038L 72.6066,216.827L 72.6066,216.507 Z M 74.6338,217.243L 75.5182,217.84L 75.3936,218.134L 74.5091,217.538L 74.6338,217.243 Z M 76.3971,218.527L 76.9934,219.411L 76.7671,219.637L 76.1708,218.753L 76.3971,218.527 Z M 77.5897,220.296L 77.8576,220.693L 77.986,221.329L 77.6913,221.453L 77.5629,220.818L 77.3634,220.522L 77.5897,220.296 Z M 78.1971,222.374L 78.4082,223.42L 78.1134,223.545L 77.9023,222.499L 78.1971,222.374 Z M 78.2403,224.528L 78.0292,225.573L 77.7092,225.573L 77.9203,224.528L 78.2403,224.528 Z M 77.7102,226.641L 77.1139,227.526L 76.8192,227.401L 77.4155,226.517L 77.7102,226.641 Z M 76.5177,228.41L 76.2804,228.762L 75.6971,229.155L 75.4708,228.929L 76.0541,228.536L 76.2229,228.286L 76.5177,228.41 Z M 74.8127,229.752L 73.941,230.339L 73.8659,230.355L 73.7412,230.06L 73.8163,230.045L 74.5864,229.525L 74.8127,229.752 Z M 72.8203,230.566L 71.7747,230.777L 71.6501,230.482L 72.6956,230.271L 72.8203,230.566 Z M 70.6668,230.835L 69.6212,230.624L 69.6212,230.304L 70.6668,230.515L 70.6668,230.835 Z M 68.5757,230.413L 68.2112,230.339L 67.5823,229.915L 67.707,229.621L 68.3358,230.045L 68.5757,230.093L 68.5757,230.413 Z M 66.6979,229.319L 65.8718,228.762L 65.7982,228.653L 66.0245,228.427L 66.0981,228.536L 66.8226,229.024L 66.6979,229.319 Z M 65.2019,227.769L 64.6056,226.884L 64.8319,226.658L 65.4282,227.542L 65.2019,227.769 Z M 64.1815,225.863L 63.9704,224.817L 64.2651,224.692L 64.4762,225.738L 64.1815,225.863 Z M 63.7593,223.772L 63.7161,223.558L 63.9272,222.512L 64.2472,222.512L 64.0361,223.558L 64.054,223.647L 63.7593,223.772 Z "/>
	<path fill="#000000" fill-opacity="1" stroke-width="0.32" stroke-linejoin="round" d="M 78.6783,31.7446L 78.8346,30.9708L 79.0252,30.6882L 79.3199,30.8129L 79.1293,31.0955L 78.9983,31.7446L 78.6783,31.7446 Z M 79.6214,29.8038L 80.2177,28.9193L 80.5125,29.044L 79.9162,29.9285L 79.6214,29.8038 Z M 81.0592,28.1951L 81.9436,27.5987L 82.1698,27.825L 81.2854,28.4213L 81.0592,28.1951 Z M 82.9021,27.0238L 83.9476,26.8126L 84.0723,27.1074L 83.0267,27.3185L 82.9021,27.0238 Z M 84.9932,26.6016L 85.6161,26.4757L 86.1011,26.5736L 86.1011,26.8936L 85.6161,26.7957L 85.1178,26.8963L 84.9932,26.6016 Z M 87.1467,26.7847L 88.1922,26.9959L 88.1922,27.3158L 87.1467,27.1048L 87.1467,26.7847 Z M 89.1739,27.5213L 90.0583,28.1177L 89.9336,28.4124L 89.0492,27.8161L 89.1739,27.5213 Z M 90.9371,28.8046L 91.5334,29.689L 91.3072,29.9153L 90.7108,29.0308L 90.9371,28.8046 Z M 92.1297,30.5735L 92.3977,30.9708L 92.526,31.6067L 92.2313,31.7313L 92.1029,31.0955L 91.9035,30.7997L 92.1297,30.5735 Z M 92.7371,32.6522L 92.9482,33.6978L 92.6535,33.8224L 92.4424,32.7769L 92.7371,32.6522 Z M 92.7803,34.8057L 92.5692,35.8512L 92.2492,35.8512L 92.4603,34.8057L 92.7803,34.8057 Z M 92.2503,36.9193L 91.654,37.8038L 91.3592,37.6791L 91.9555,36.7947L 92.2503,36.9193 Z M 91.0576,38.6881L 90.8204,39.0401L 90.2371,39.4334L 90.0108,39.2071L 90.5942,38.8138L 90.7629,38.5635L 91.0576,38.6881 Z M 89.3527,40.0296L 88.481,40.6173L 88.4059,40.6325L 88.2812,40.3377L 88.3564,40.3225L 89.1264,39.8034L 89.3527,40.0296 Z M 87.3603,40.8436L 86.3147,41.0546L 86.19,40.7599L 87.2356,40.5488L 87.3603,40.8436 Z M 85.2068,41.1131L 84.1612,40.902L 84.1612,40.582L 85.2068,40.7931L 85.2068,41.1131 Z M 83.1156,40.6909L 82.7512,40.6173L 82.1223,40.1933L 82.247,39.8986L 82.8759,40.3226L 83.1156,40.371L 83.1156,40.6909 Z M 81.2379,39.597L 80.4118,39.0401L 80.3382,38.9309L 80.5645,38.7047L 80.6381,38.8138L 81.3626,39.3023L 81.2379,39.597 Z M 79.7419,38.0465L 79.1456,37.162L 79.3719,36.9358L 79.9682,37.8202L 79.7419,38.0465 Z M 78.7215,36.1405L 78.5104,35.095L 78.8051,34.9703L 79.0162,36.0159L 78.7215,36.1405 Z M 78.2993,34.0494L 78.2561,33.8358L 78.4672,32.7902L 78.7872,32.7902L 78.5761,33.8358L 78.594,33.9247L 78.2993,34.0494 Z "/>
	<path fill="#000000" fill-opacity="1" stroke-width="0.32" stroke-linejoin="round" d="M 64.0229,20.4962L 64.0229,21.563L 63.7029,21.563L 63.7029,20.4962L 64.0229,20.4962 Z M 64.0229,22.6297L 64.0229,23.6963L 63.7029,23.6963L 63.7029,22.6297L 64.0229,22.6297 Z M 64.0229,24.763L 64.0229,25.8296L 63.7029,25.8296L 63.7029,24.763L 64.0229,24.763 Z M 64.0229,26.8963L 64.0229,27.963L 63.7029,27.963L 63.7029,26.8963L 64.0229,26.8963 Z M 64.0229,29.0296L 64.0229,30.0963L 63.7029,30.0963L 63.7029,29.0296L 64.0229,29.0296 Z M 64.0229,31.1629L 64.0229,32.2296L 63.7029,32.2296L 63.7029,31.1629L 64.0229,31.1629 Z M 64.0229,33.2963L 64.0229,34.3629L 63.7029,34.3629L 63.7029,33.2963L 64.0229,33.2963 Z M 64.0229,35.4296L 64.0229,36.4962L 63.7029,36.4962L 63.7029,35.4296L 64.0229,35.4296 Z M 64.0229,37.563L 64.0229,38.6297L 63.7029,38.6297L 63.7029,37.563L 64.0229,37.563 Z M 64.0229,39.6963L 64.0229,40.763L 63.7029,40.763L 63.7029,39.6963L 64.0229,39.6963 Z M 64.0229,41.8296L 64.0229,42.8963L 63.7029,42.8963L 63.7029,41.8296L 64.0229,41.8296 Z M 64.0229,43.963L 64.0229,45.0296L 63.7029,45.0296L 63.7029,43.963L 64.0229,43.963 Z M 64.0229,46.0963L 64.0229,47.163L 63.7029,47.163L 63.7029,46.0963L 64.0229,46.0963 Z M 64.0229,48.2296L 64.0229,49.2963L 63.7029,49.2963L 63.7029,48.2296L 64.0229,48.2296 Z M 64.0229,50.3629L 64.0229,51.4296L 63.7029,51.4296L 63.7029,50.3629L 64.0229,50.3629 Z M 64.0229,52.4963L 64.0229,53.5629L 63.7029,53.5629L 63.7029,52.4963L 64.0229,52.4963 Z M 64.0229,54.6297L 64.0229,55.6963L 63.7029,55.6963L 63.7029,54.6297L 64.0229,54.6297 Z M 64.0229,56.763L 64.0229,57.8296L 63.7029,57.8296L 63.7029,56.763L 64.0229,56.763 Z M 64.0229,58.8963L 64.0229,59.963L 63.7029,59.963L 63.7029,58.8963L 64.0229,58.8963 Z M 64.0229,61.0296L 64.0229,62.0963L 63.7029,62.0963L 63.7029,61.0296L 64.0229,61.0296 Z M 64.0229,63.163L 64.0229,64.2296L 63.7029,64.2296L 63.7029,63.163L 64.0229,63.163 Z M 64.0229,65.2963L 64.0229,66.3629L 63.7029,66.3629L 63.7029,65.2963L 64.0229,65.2963 Z M 64.0229,67.4296L 64.0229,68.4963L 63.7029,68.4963L 63.7029,67.4296L 64.0229,67.4296 Z M 64.0229,69.5629L 64.0229,70.6297L 63.7029,70.6297L 63.7029,69.5629L 64.0229,69.5629 Z M 64.0229,71.6963L 64.0229,72.763L 63.7029,72.763L 63.7029,71.6963L 64.0229,71.6963 Z M 64.0229,73.8296L 64.0229,74.8963L 63.7029,74.8963L 63.7029,73.8296L 64.0229,73.8296 Z M 64.0229,75.963L 64.0229,77.0296L 63.7029,77.0296L 63.7029,75.963L 64.0229,75.963 Z M 64.0229,78.0963L 64.0229,79.163L 63.7029,79.163L 63.7029,78.0963L 64.0229,78.0963 Z M 64.0229,80.2296L 64.0229,81.2963L 63.7029,81.2963L 63.7029,80.2296L 64.0229,80.2296 Z M 64.0229,82.3629L 64.0229,83.4296L 63.7029,83.4296L 63.7029,82.3629L 64.0229,82.3629 Z M 64.0229,84.4963L 64.0229,85.5629L 63.7029,85.5629L 63.7029,84.4963L 64.0229,84.4963 Z M 64.0229,86.6297L 64.0229,87.6963L 63.7029,87.6963L 63.7029,86.6297L 64.0229,86.6297 Z M 64.0229,88.763L 64.0229,89.8296L 63.7029,89.8296L 63.7029,88.763L 64.0229,88.763 Z M 64.0229,90.8963L 64.0229,91.963L 63.7029,91.963L 63.7029,90.8963L 64.0229,90.8963 Z M 64.0229,93.0296L 64.0229,94.0963L 63.7029,94.0963L 63.7029,93.0296L 64.0229,93.0296 Z M 64.0229,95.163L 64.0229,96.2296L 63.7029,96.2296L 63.7029,95.163L 64.0229,95.163 Z M 64.0229,97.2963L 64.0229,98.3629L 63.7029,98.3629L 63.7029,97.2963L 64.0229,97.2963 Z M 64.0229,99.4296L 64.0229,100.496L 63.7029,100.496L 63.7029,99.4296L 64.0229,99.4296 Z M 64.0229,101.563L 64.0229,102.63L 63.7029,102.63L 63.7029,101.563L 64.0229,101.563 Z M 64.0229,103.696L 64.0229,104.763L 63.7029,104.763L 63.7029,103.696L 64.0229,103.696 Z M 64.0229,105.83L 64.0229,106.896L 63.7029,106.896L 63.7029,105.83L 64.0229,105.83 Z M 64.0229,107.963L 64.0229,109.03L 63.7029,109.03L 63.7029,107.963L 64.0229,107.963 Z M 64.0229,110.096L 64.0229,111.163L 63.7029,111.163L 63.7029,110.096L 64.0229,110.096 Z M 64.0229,112.23L 64.0229,113.296L 63.7029,113.296L 63.7029,112.23L 64.0229,112.23 Z M 64.0229,114.363L 64.0229,115.43L 63.7029,115.43L 63.7029,114.363L 64.0229,114.363 Z M 64.0229,116.496L 64.0229,117.563L 63.7029,117.563L 63.7029,116.496L 64.0229,116.496 Z M 64.0229,118.63L 64.0229,119.696L 63.7029,119.696L 63.7029,118.63L 64.0229,118.63 Z M 64.0229,120.763L 64.0229,121.83L 63.7029,121.83L 63.7029,120.763L 64.0229,120.763 Z M 64.0229,122.896L 64.0229,123.963L 63.7029,123.963L 63.7029,122.896L 64.0229,122.896 Z M 64.0229,125.03L 64.0229,126.096L 63.7029,126.096L 63.7029,125.03L 64.0229,125.03 Z M 64.0229,127.163L 64.0229,128.23L 63.7029,128.23L 63.7029,127.163L 64.0229,127.163 Z M 64.0229,129.296L 64.0229,130.363L 63.7029,130.363L 63.7029,129.296L 64.0229,129.296 Z M 64.0229,131.43L 64.0229,132.496L 63.7029,132.496L 63.7029,131.43L 64.0229,131.43 Z M 64.0229,133.563L 64.0229,134.63L 63.7029,134.63L 63.7029,133.563L 64.0229,133.563 Z M 64.0229,135.696L 64.0229,136.763L 63.7029,136.763L 63.7029,135.696L 64.0229,135.696 Z M 64.0229,137.83L 64.0229,138.896L 63.7029,138.896L 63.7029,137.83L 64.0229,137.83 Z M 64.0229,139.963L 64.0229,141.03L 63.7029,141.03L 63.7029,139.963L 64.0229,139.963 Z M 64.0229,142.096L 64.0229,143.163L 63.7029,143.163L 63.7029,142.096L 64.0229,142.096 Z M 64.0229,144.23L 64.0229,145.296L 63.7029,145.296L 63.7029,144.23L 64.0229,144.23 Z M 64.0229,146.363L 64.0229,147.43L 63.7029,147.43L 63.7029,146.363L 64.0229,146.363 Z M 64.0229,148.496L 64.0229,149.563L 63.7029,149.563L 63.7029,148.496L 64.0229,148.496 Z M 64.0229,150.63L 64.0229,151.696L 63.7029,151.696L 63.7029,150.63L 64.0229,150.63 Z M 64.0229,152.763L 64.0229,153.83L 63.7029,153.83L 63.7029,152.763L 64.0229,152.763 Z M 64.0229,154.896L 64.0229,155.963L 63.7029,155.963L 63.7029,154.896L 64.0229,154.896 Z M 64.0229,157.03L 64.0229,158.096L 63.7029,158.096L 63.7029,157.03L 64.0229,157.03 Z M 64.0229,159.163L 64.0229,160.23L 63.7029,160.23L 63.7029,159.163L 64.0229,159.163 Z M 64.0229,161.296L 64.0229,162.363L 63.7029,162.363L 63.7029,161.296L 64.0229,161.296 Z M 64.0229,163.43L 64.0229,164.496L 63.7029,164.496L 63.7029,163.43L 64.0229,163.43 Z M 64.0229,165.563L 64.0229,166.63L 63.7029,166.63L 63.7029,165.563L 64.0229,165.563 Z M 64.0229,167.696L 64.0229,168.763L 63.7029,168.763L 63.7029,167.696L 64.0229,167.696 Z M 64.0229,169.83L 64.0229,170.896L 63.7029,170.896L 63.7029,169.83L 64.0229,169.83 Z M 64.0229,171.963L 64.0229,173.03L 63.7029,173.03L 63.7029,171.963L 64.0229,171.963 Z M 64.0229,174.096L 64.0229,175.163L 63.7029,175.163L 63.7029,174.096L 64.0229,174.096 Z M 64.0229,176.23L 64.0229,177.296L 63.7029,177.296L 63.7029,176.23L 64.0229,176.23 Z M 64.0229,178.363L 64.0229,179.43L 63.7029,179.43L 63.7029,178.363L 64.0229,178.363 Z M 64.0229,180.496L 64.0229,181.563L 63.7029,181.563L 63.7029,180.496L 64.0229,180.496 Z M 64.0229,182.63L 64.0229,183.696L 63.7029,183.696L 63.7029,182.63L 64.0229,182.63 Z M 64.0229,184.763L 64.0229,185.83L 63.7029,185.83L 63.7029,184.763L 64.0229,184.763 Z M 64.0229,186.896L 64.0229,187.963L 63.7029,187.963L 63.7029,186.896L 64.0229,186.896 Z M 64.0229,189.03L 64.0229,190.096L 63.7029,190.096L 63.7029,189.03L 64.0229,189.03 Z M 64.0229,191.163L 64.0229,192.23L 63.7029,192.23L 63.7029,191.163L 64.0229,191.163 Z M 64.0229,193.296L 64.0229,194.363L 63.7029,194.363L 63.7029,193.296L 64.0229,193.296 Z M 64.0229,195.43L 64.0229,196.496L 63.7029,196.496L 63.7029,195.43L 64.0229,195.43 Z M 64.0229,197.563L 64.0229,198.63L 63.7029,198.63L 63.7029,197.563L 64.0229,197.563 Z M 64.0229,199.696L 64.0229,200.763L 63.7029,200.763L 63.7029,199.696L 64.0229,199.696 Z M 64.0229,201.83L 64.0229,202.896L 63.7029,202.896L 63.7029,201.83L 64.0229,201.83 Z M 64.0229,203.963L 64.0229,205.03L 63.7029,205.03L 63.7029,203.963L 64.0229,203.963 Z M 64.0229,206.096L 64.0229,207.163L 63.7029,207.163L 63.7029,206.096L 64.0229,206.096 Z M 64.0229,208.23L 64.0229,209.296L 63.7029,209.296L 63.7029,208.23L 64.0229,208.23 Z M 64.0229,210.363L 64.0229,211.43L 63.7029,211.43L 63.7029,210.363L 64.0229,210.363 Z M 64.0229,212.496L 64.0229,213.563L 63.7029,213.563L 63.7029,212.496L 64.0229,212.496 Z M 64.0229,214.63L 64.0229,215.696L 63.7029,215.696L 63.7029,214.63L 64.0229,214.63 Z M 64.0229,216.763L 64.0229,217.83L 63.7029,217.83L 63.7029,216.763L 64.0229,216.763 Z M 64.0229,218.896L 64.0229,219.963L 63.7029,219.963L 63.7029,218.896L 64.0229,218.896 Z M 64.0229,221.03L 64.0229,222.096L 63.7029,222.096L 63.7029,221.03L 64.0229,221.03 Z M 64.0229,223.163L 64.0229,224.23L 63.7029,224.23L 63.7029,223.163L 64.0229,223.163 Z M 64.0229,225.296L 64.0229,226.363L 63.7029,226.363L 63.7029,225.296L 64.0229,225.296 Z M 64.0229,227.43L 64.0229,228.496L 63.7029,228.496L 63.7029,227.43L 64.0229,227.43 Z M 64.0229,229.563L 64.0229,230.63L 63.7029,230.63L 63.7029,229.563L 64.0229,229.563 Z M 64.0229,231.696L 64.0229,232.763L 63.7029,232.763L 63.7029,231.696L 64.0229,231.696 Z M 64.0229,233.83L 64.0229,234.896L 63.7029,234.896L 63.7029,233.83L 64.0229,233.83 Z M 64.0229,235.963L 64.0229,237.03L 63.7029,237.03L 63.7029,235.963L 64.0229,235.963 Z M 64.0229,238.096L 64.0229,239.163L 63.7029,239.163L 63.7029,238.096L 64.0229,238.096 Z M 64.0229,240.23L 64.0229,241.296L 63.7029,241.296L 63.7029,240.23L 64.0229,240.23 Z M 64.0229,242.363L 64.0229,243.43L 63.7029,243.43L 63.7029,242.363L 64.0229,242.363 Z M 64.0229,244.496L 64.0229,245.563L 63.7029,245.563L 63.7029,244.496L 64.0229,244.496 Z M 64.0229,18.3629L 64.0229,19.4296L 63.7029,19.4296L 63.7029,18.3629L 64.0229,18.3629 Z "/>
	<path fill="#000000" fill-opacity="1" stroke-width="0.32" stroke-linejoin="round" d="M 78.5839,20.5061L 78.5839,21.5728L 78.2639,21.5728L 78.2639,20.5061L 78.5839,20.5061 Z M 78.5839,22.6395L 78.5839,23.7061L 78.2639,23.7061L 78.2639,22.6395L 78.5839,22.6395 Z M 78.5839,24.7728L 78.5839,25.8394L 78.2639,25.8394L 78.2639,24.7728L 78.5839,24.7728 Z M 78.5839,26.9061L 78.5839,27.9728L 78.2639,27.9728L 78.2639,26.9061L 78.5839,26.9061 Z M 78.5839,29.0394L 78.5839,30.1061L 78.2639,30.1061L 78.2639,29.0394L 78.5839,29.0394 Z M 78.5839,31.1727L 78.5839,32.2395L 78.2639,32.2395L 78.2639,31.1727L 78.5839,31.1727 Z M 78.5839,33.3062L 78.5839,34.3728L 78.2639,34.3728L 78.2639,33.3062L 78.5839,33.3062 Z M 78.5839,35.4395L 78.5839,36.5061L 78.2639,36.5061L 78.2639,35.4395L 78.5839,35.4395 Z M 78.5839,37.5728L 78.5839,38.6395L 78.2639,38.6395L 78.2639,37.5728L 78.5839,37.5728 Z M 78.5839,39.7061L 78.5839,40.7728L 78.2639,40.7728L 78.2639,39.7061L 78.5839,39.7061 Z M 78.5839,41.8395L 78.5839,42.9061L 78.2639,42.9061L 78.2639,41.8395L 78.5839,41.8395 Z M 78.5839,43.9728L 78.5839,45.0394L 78.2639,45.0394L 78.2639,43.9728L 78.5839,43.9728 Z M 78.5839,46.1061L 78.5839,47.1728L 78.2639,47.1728L 78.2639,46.1061L 78.5839,46.1061 Z M 78.5839,48.2395L 78.5839,49.3062L 78.2639,49.3062L 78.2639,48.2395L 78.5839,48.2395 Z M 78.5839,50.3728L 78.5839,51.4395L 78.2639,51.4395L 78.2639,50.3728L 78.5839,50.3728 Z M 78.5839,52.5061L 78.5839,53.5728L 78.2639,53.5728L 78.2639,52.5061L 78.5839,52.5061 Z M 78.5839,54.6395L 78.5839,55.7061L 78.2639,55.7061L 78.2639,54.6395L 78.5839,54.6395 Z M 78.5839,56.7728L 78.5839,57.8395L 78.2639,57.8395L 78.2639,56.7728L 78.5839,56.7728 Z M 78.5839,58.9061L 78.5839,59.9728L 78.2639,59.9728L 78.2639,58.9061L 78.5839,58.9061 Z M 78.5839,61.0394L 78.5839,62.1061L 78.2639,62.1061L 78.2639,61.0394L 78.5839,61.0394 Z M 78.5839,63.1728L 78.5839,64.2395L 78.2639,64.2395L 78.2639,63.1728L 78.5839,63.1728 Z M 78.5839,65.3062L 78.5839,66.3728L 78.2639,66.3728L 78.2639,65.3062L 78.5839,65.3062 Z M 78.5839,67.4395L 78.5839,68.5061L 78.2639,68.5061L 78.2639,67.4395L 78.5839,67.4395 Z M 78.5839,69.5728L 78.5839,70.6395L 78.2639,70.6395L 78.2639,69.5728L 78.5839,69.5728 Z M 78.5839,71.7061L 78.5839,72.7728L 78.2639,72.7728L 78.2639,71.7061L 78.5839,71.7061 Z M 78.5839,73.8395L 78.5839,74.9061L 78.2639,74.9061L 78.2639,73.8395L 78.5839,73.8395 Z M 78.5839,75.9728L 78.5839,77.0394L 78.2639,77.0394L 78.2639,75.9728L 78.5839,75.9728 Z M 78.5839,78.1061L 78.5839,79.1728L 78.2639,79.1728L 78.2639,78.1061L 78.5839,78.1061 Z M 78.5839,80.2395L 78.5839,81.3062L 78.2639,81.3062L 78.2639,80.2395L 78.5839,80.2395 Z M 78.5839,82.3728L 78.5839,83.4395L 78.2639,83.4395L 78.2639,82.3728L 78.5839,82.3728 Z M 78.5839,84.5061L 78.5839,85.5728L 78.2639,85.5728L 78.2639,84.5061L 78.5839,84.5061 Z M 78.5839,86.6395L 78.5839,87.7061L 78.2639,87.7061L 78.2639,86.6395L 78.5839,86.6395 Z M 78.5839,88.7728L 78.5839,89.8395L 78.2639,89.8395L 78.2639,88.7728L 78.5839,88.7728 Z M 78.5839,90.9061L 78.5839,91.9728L 78.2639,91.9728L 78.2639,90.9061L 78.5839,90.9061 Z M 78.5839,93.0394L 78.5839,94.1061L 78.2639,94.1061L 78.2639,93.0394L 78.5839,93.0394 Z M 78.5839,95.1728L 78.5839,96.2395L 78.2639,96.2395L 78.2639,95.1728L 78.5839,95.1728 Z M 78.5839,97.3062L 78.5839,98.3728L 78.2639,98.3728L 78.2639,97.3062L 78.5839,97.3062 Z M 78.5839,99.4395L 78.5839,100.506L 78.2639,100.506L 78.2639,99.4395L 78.5839,99.4395 Z M 78.5839,101.573L 78.5839,102.639L 78.2639,102.639L 78.2639,101.573L 78.5839,101.573 Z M 78.5839,103.706L 78.5839,104.773L 78.2639,104.773L 78.2639,103.706L 78.5839,103.706 Z M 78.5839,105.839L 78.5839,106.906L 78.2639,106.906L 78.2639,105.839L 78.5839,105.839 Z M 78.5839,107.973L 78.5839,109.039L 78.2639,109.039L 78.2639,107.973L 78.5839,107.973 Z M 78.5839,110.106L 78.5839,111.173L 78.2639,111.173L 78.2639,110.106L 78.5839,110.106 Z M 78.5839,112.239L 78.5839,113.306L 78.2639,113.306L 78.2639,112.239L 78.5839,112.239 Z M 78.5839,114.373L 78.5839,115.439L 78.2639,115.439L 78.2639,114.373L 78.5839,114.373 Z M 78.5839,116.506L 78.5839,117.573L 78.2639,117.573L 78.2639,116.506L 78.5839,116.506 Z M 78.5839,118.639L 78.5839,119.706L 78.2639,119.706L 78.2639,118.639L 78.5839,118.639 Z M 78.5839,120.773L 78.5839,121.839L 78.2639,121.839L 78.2639,120.773L 78.5839,120.773 Z M 78.5839,122.906L 78.5839,123.973L 78.2639,123.973L 78.2639,122.906L 78.5839,122.906 Z M 78.5839,125.039L 78.5839,126.106L 78.2639,126.106L 78.2639,125.039L 78.5839,125.039 Z M 78.5839,127.173L 78.5839,128.239L 78.2639,128.239L 78.2639,127.173L 78.5839,127.173 Z M 78.5839,129.306L 78.5839,130.373L 78.2639,130.373L 78.2639,129.306L 78.5839,129.306 Z M 78.5839,131.439L 78.5839,132.506L 78.2639,132.506L 78.2639,131.439L 78.5839,131.439 Z M 78.5839,133.573L 78.5839,134.639L 78.2639,134.639L 78.2639,133.573L 78.5839,133.573 Z M 78.5839,135.706L 78.5839,136.773L 78.2639,136.773L 78.2639,135.706L 78.5839,135.706 Z M 78.5839,137.839L 78.5839,138.906L 78.2639,138.906L 78.2639,137.839L 78.5839,137.839 Z M 78.5839,139.973L 78.5839,141.039L 78.2639,141.039L 78.2639,139.973L 78.5839,139.973 Z M 78.5839,142.106L 78.5839,143.173L 78.2639,143.173L 78.2639,142.106L 78.5839,142.106 Z M 78.5839,144.239L 78.5839,145.306L 78.2639,145.306L 78.2639,144.239L 78.5839,144.239 Z M 78.5839,146.373L 78.5839,147.439L 78.2639,147.439L 78.2639,146.373L 78.5839,146.373 Z M 78.5839,148.506L 78.5839,149.573L 78.2639,149.573L 78.2639,148.506L 78.5839,148.506 Z M 78.5839,150.639L 78.5839,151.706L 78.2639,151.706L 78.2639,150.639L 78.5839,150.639 Z M 78.5839,152.773L 78.5839,153.839L 78.2639,153.839L 78.2639,152.773L 78.5839,152.773 Z M 78.5839,154.906L 78.5839,155.973L 78.2639,155.973L 78.2639,154.906L 78.5839,154.906 Z M 78.5839,157.039L 78.5839,158.106L 78.2639,158.106L 78.2639,157.039L 78.5839,157.039 Z M 78.5839,159.173L 78.5839,160.239L 78.2639,160.239L 78.2639,159.173L 78.5839,159.173 Z M 78.5839,161.306L 78.5839,162.373L 78.2639,162.373L 78.2639,161.306L 78.5839,161.306 Z M 78.5839,163.439L 78.5839,164.506L 78.2639,164.506L 78.2639,163.439L 78.5839,163.439 Z M 78.5839,165.573L 78.5839,166.639L 78.2639,166.639L 78.2639,165.573L 78.5839,165.573 Z M 78.5839,167.706L 78.5839,168.773L 78.2639,168.773L 78.2639,167.706L 78.5839,167.706 Z M 78.5839,169.839L 78.5839,170.906L 78.2639,170.906L 78.2639,169.839L 78.5839,169.839 Z M 78.5839,171.973L 78.5839,173.039L 78.2639,173.039L 78.2639,171.973L 78.5839,171.973 Z M 78.5839,174.106L 78.5839,175.173L 78.2639,175.173L 78.2639,174.106L 78.5839,174.106 Z M 78.5839,176.239L 78.5839,177.306L 78.2639,177.306L 78.2639,176.239L 78.5839,176.239 Z M 78.5839,178.373L 78.5839,179.439L 78.2639,179.439L 78.2639,178.373L 78.5839,178.373 Z M 78.5839,180.506L 78.5839,181.573L 78.2639,181.573L 78.2639,180.506L 78.5839,180.506 Z M 78.5839,182.639L 78.5839,183.706L 78.2639,183.706L 78.2639,182.639L 78.5839,182.639 Z M 78.5839,184.773L 78.5839,185.839L 78.2639,185.839L 78.2639,184.773L 78.5839,184.773 Z M 78.5839,186.906L 78.5839,187.973L 78.2639,187.973L 78.2639,186.906L 78.5839,186.906 Z M 78.5839,189.039L 78.5839,190.106L 78.2639,190.106L 78.2639,189.039L 78.5839,189.039 Z M 78.5839,191.173L 78.5839,192.239L 78.2639,192.239L 78.2639,191.173L 78.5839,191.173 Z M 78.5839,193.306L 78.5839,194.373L 78.2639,194.373L 78.2639,193.306L 78.5839,193.306 Z M 78.5839,195.439L 78.5839,196.506L 78.2639,196.506L 78.2639,195.439L 78.5839,195.439 Z M 78.5839,197.573L 78.5839,198.639L 78.2639,198.639L 78.2639,197.573L 78.5839,197.573 Z M 78.5839,199.706L 78.5839,200.773L 78.2639,200.773L 78.2639,199.706L 78.5839,199.706 Z M 78.5839,201.839L 78.5839,202.906L 78.2639,202.906L 78.2639,201.839L 78.5839,201.839 Z M 78.5839,203.973L 78.5839,205.039L 78.2639,205.039L 78.2639,203.973L 78.5839,203.973 Z M 78.5839,206.106L 78.5839,207.173L 78.2639,207.173L 78.2639,206.106L 78.5839,206.106 Z M 78.5839,208.239L 78.5839,209.306L 78.2639,209.306L 78.2639,208.239L 78.5839,208.239 Z M 78.5839,210.373L 78.5839,211.439L 78.2639,211.439L 78.2639,210.373L 78.5839,210.373 Z M 78.5839,212.506L 78.5839,213.573L 78.2639,213.573L 78.2639,212.506L 78.5839,212.506 Z M 78.5839,214.639L 78.5839,215.706L 78.2639,215.706L 78.2639,214.639L 78.5839,214.639 Z M 78.5839,216.773L 78.5839,217.839L 78.2639,217.839L 78.2639,216.773L 78.5839,216.773 Z M 78.5839,218.906L 78.5839,219.973L 78.2639,219.973L 78.2639,218.906L 78.5839,218.906 Z M 78.5839,221.039L 78.5839,222.106L 78.2639,222.106L 78.2639,221.039L 78.5839,221.039 Z M 78.5839,223.173L 78.5839,224.239L 78.2639,224.239L 78.2639,223.173L 78.5839,223.173 Z M 78.5839,225.306L 78.5839,226.373L 78.2639,226.373L 78.2639,225.306L 78.5839,225.306 Z M 78.5839,227.439L 78.5839,228.506L 78.2639,228.506L 78.2639,227.439L 78.5839,227.439 Z M 78.5839,229.573L 78.5839,230.639L 78.2639,230.639L 78.2639,229.573L 78.5839,229.573 Z M 78.5839,231.706L 78.5839,232.773L 78.2639,232.773L 78.2639,231.706L 78.5839,231.706 Z M 78.5839,233.839L 78.5839,234.906L 78.2639,234.906L 78.2639,233.839L 78.5839,233.839 Z M 78.5839,235.973L 78.5839,237.039L 78.2639,237.039L 78.2639,235.973L 78.5839,235.973 Z M 78.5839,238.106L 78.5839,239.173L 78.2639,239.173L 78.2639,238.106L 78.5839,238.106 Z M 78.5839,240.239L 78.5839,241.306L 78.2639,241.306L 78.2639,240.239L 78.5839,240.239 Z M 78.5839,242.373L 78.5839,243.439L 78.2639,243.439L 78.2639,242.373L 78.5839,242.373 Z M 78.5839,244.506L 78.5839,245.573L 78.2639,245.573L 78.2639,244.506L 78.5839,244.506 Z M 78.5839,18.3728L 78.5839,19.4395L 78.2639,19.4395L 78.2639,18.3728L 78.5839,18.3728 Z "/>
	<text transform="matrix(0.9999998807907103 0.0000000000000000 0.0000000000000000 0.9999998807907103 29.00 16.00)" xml:space="preserve">
		<tspan style=" font-family:Segoe UI; font-size:10.000000pt;" letter-spacing="0.00em" fill="#000000" fill-opacity="1" stroke-width="0.32" stroke-linejoin="round">V1</tspan>
	</text>
	<text transform="matrix(0.9999998807907103 0.0000000000000000 0.0000000000000000 0.9999998807907103 65.00 32.00)" xml:space="preserve">
		<tspan style=" font-family:Segoe UI; font-size:10.000000pt;" letter-spacing="0.00em" fill="#000000" fill-opacity="1" stroke-width="0.32" stroke-linejoin="round">V4</tspan>
	</text>
	<text transform="matrix(0.9999998807907103 0.0000000000000000 0.0000000000000000 0.9999998807907103 47.00 16.00)" xml:space="preserve">
		<tspan style=" font-family:Segoe UI; font-size:10.000000pt;" letter-spacing="0.00em" fill="#000000" fill-opacity="1" stroke-width="0.32" stroke-linejoin="round">V3</tspan>
	</text>
	<path fill="#FFC800" fill-opacity="1" stroke-width="0.2" stroke-linejoin="round" d="M 35.0047,222.77C 35.5184,222.77 35.9347,223.186 35.9347,223.7C 35.9347,224.214 35.5184,224.63 35.0047,224.63C 34.4911,224.63 34.0748,224.214 34.0748,223.7C 34.0748,223.186 34.4911,222.77 35.0047,222.77 Z "/>
	<path fill="#FFC800" fill-opacity="1" stroke-width="0.32" stroke-linejoin="round" d="M 34.6615,227.02L 34.6614,224.375L 35.3014,224.375L 35.3014,227.02L 34.6615,227.02 Z M 34.6616,237.687L 34.6615,232.354L 35.3015,232.354L 35.3016,237.687L 34.6616,237.687 Z "/>
	<path fill="#FFC800" fill-opacity="1" stroke-width="0.2" stroke-linejoin="round" d="M 49.3348,222.747C 49.8484,222.747 50.2648,223.163 50.2648,223.677C 50.2648,224.19 49.8484,224.607 49.3348,224.607C 48.8211,224.607 48.4048,224.19 48.4048,223.677C 48.4048,223.163 48.8211,222.747 49.3348,222.747 Z "/>
	<path fill="#FFC800" fill-opacity="1" stroke-width="0.2" stroke-linejoin="round" d="M 49.4098,32.465C 49.9234,32.465 50.3398,32.8814 50.3398,33.395C 50.3398,33.9086 49.9234,34.325 49.4098,34.325C 48.8961,34.325 48.4798,33.9086 48.4798,33.395C 48.4798,32.8814 48.8961,32.465 49.4098,32.465 Z "/>
	<path fill="#FFC800" fill-opacity="1" stroke-width="0.2" stroke-linejoin="round" d="M 63.7398,32.4418C 64.2534,32.4418 64.6698,32.8582 64.6698,33.3717C 64.6698,33.8854 64.2534,34.3018 63.7398,34.3018C 63.2262,34.3018 62.8098,33.8854 62.8098,33.3717C 62.8098,32.8582 63.2262,32.4418 63.7398,32.4418 Z "/>
	<path fill="#FFC800" fill-opacity="1" stroke-width="0.32" stroke-linejoin="round" d="M 49.1345,227.018L 49.1345,224.373L 49.7745,224.373L 49.7745,227.018L 49.1345,227.018 Z M 49.1346,237.685L 49.1346,232.351L 49.7746,232.351L 49.7746,237.685L 49.1346,237.685 Z "/>
	<path fill="#FFC800" fill-opacity="1" stroke-width="0.32" stroke-linejoin="round" d="M 63.5468,227.006L 63.5468,221.673L 64.1868,221.673L 64.1868,227.006L 63.5468,227.006 Z M 63.5468,216.34L 63.5468,211.006L 64.1868,211.006L 64.1868,216.34L 63.5468,216.34 Z M 63.5468,205.673L 63.5468,200.34L 64.1868,200.34L 64.1868,205.673L 63.5468,205.673 Z M 63.5468,195.006L 63.5468,189.673L 64.1868,189.673L 64.1868,195.006L 63.5468,195.006 Z M 63.5468,184.34L 63.5468,179.006L 64.1868,179.006L 64.1868,184.34L 63.5468,184.34 Z M 63.5468,173.673L 63.5468,168.34L 64.1868,168.34L 64.1868,173.673L 63.5468,173.673 Z M 63.5468,163.006L 63.5468,157.673L 64.1868,157.673L 64.1868,163.006L 63.5468,163.006 Z M 63.5468,152.34L 63.5468,147.006L 64.1868,147.006L 64.1868,152.34L 63.5468,152.34 Z M 63.5468,141.673L 63.5468,136.34L 64.1868,136.34L 64.1868,141.673L 63.5468,141.673 Z M 63.5468,131.006L 63.5468,125.673L 64.1868,125.673L 64.1868,131.006L 63.5468,131.006 Z M 63.5468,120.34L 63.5468,115.006L 64.1868,115.006L 64.1868,120.34L 63.5468,120.34 Z M 63.5468,109.673L 63.5468,104.34L 64.1868,104.34L 64.1868,109.673L 63.5468,109.673 Z M 63.5468,99.0064L 63.5468,93.6731L 64.1868,93.6731L 64.1868,99.0064L 63.5468,99.0064 Z M 63.5468,88.3397L 63.5468,83.0064L 64.1868,83.0064L 64.1868,88.3397L 63.5468,88.3397 Z M 63.5468,77.6731L 63.5468,72.3397L 64.1868,72.3397L 64.1868,77.6731L 63.5468,77.6731 Z M 63.5468,67.0064L 63.5468,61.6731L 64.1868,61.6731L 64.1868,67.0064L 63.5468,67.0064 Z M 63.5468,56.3397L 63.5468,51.0064L 64.1868,51.0064L 64.1868,56.3397L 63.5468,56.3397 Z M 63.5468,45.6731L 63.5468,40.3397L 64.1868,40.3397L 64.1868,45.6731L 63.5468,45.6731 Z M 63.5468,35.0064L 63.5468,33.4475L 64.1868,33.4475L 64.1868,35.0064L 63.5468,35.0064 Z M 63.5468,237.673L 63.5468,232.34L 64.1868,232.34L 64.1868,237.673L 63.5468,237.673 Z "/>
	<text transform="matrix(0.9999998807907103 0.0000000000000000 0.0000000000000000 0.9999998807907103 52.00 223.00)" xml:space="preserve">
		<tspan style=" font-family:Segoe UI; font-size:10.000000pt;" letter-spacing="0.00em" fill="#000000" fill-opacity="1" stroke-width="0.32" stroke-linejoin="round">V2</tspan>
	</text>
	<path fill="#000000" fill-opacity="1" stroke-width="0.32" stroke-linejoin="round" d="M 93.0573,221.482L 93.2136,220.708L 93.4041,220.426L 93.6989,220.55L 93.5083,220.833L 93.3773,221.482L 93.0573,221.482 Z M 94.0004,219.541L 94.5967,218.657L 94.8914,218.781L 94.2951,219.666L 94.0004,219.541 Z M 95.4381,217.932L 96.3225,217.336L 96.5488,217.562L 95.6644,218.159L 95.4381,217.932 Z M 97.281,216.761L 98.3266,216.55L 98.4513,216.845L 97.4057,217.056L 97.281,216.761 Z M 99.3722,216.339L 99.9951,216.213L 100.48,216.311L 100.48,216.631L 99.9951,216.533L 99.4968,216.634L 99.3722,216.339 Z M 101.526,216.522L 102.571,216.733L 102.571,217.053L 101.526,216.842L 101.526,216.522 Z M 103.553,217.259L 104.437,217.855L 104.313,218.15L 103.428,217.553L 103.553,217.259 Z M 105.316,218.542L 105.912,219.426L 105.686,219.653L 105.09,218.768L 105.316,218.542 Z M 106.509,220.311L 106.777,220.708L 106.905,221.344L 106.61,221.469L 106.482,220.833L 106.282,220.537L 106.509,220.311 Z M 107.116,222.39L 107.327,223.435L 107.032,223.56L 106.821,222.514L 107.116,222.39 Z M 107.159,224.543L 106.948,225.589L 106.628,225.589L 106.839,224.543L 107.159,224.543 Z M 106.629,226.657L 106.033,227.541L 105.738,227.416L 106.335,226.532L 106.629,226.657 Z M 105.437,228.425L 105.199,228.777L 104.616,229.171L 104.39,228.944L 104.973,228.551L 105.142,228.301L 105.437,228.425 Z M 103.732,229.767L 102.86,230.355L 102.785,230.37L 102.66,230.075L 102.735,230.06L 103.505,229.541L 103.732,229.767 Z M 101.739,230.581L 100.694,230.792L 100.569,230.497L 101.615,230.286L 101.739,230.581 Z M 99.5858,230.85L 98.5402,230.639L 98.5402,230.319L 99.5858,230.53L 99.5858,230.85 Z M 97.4947,230.428L 97.1302,230.355L 96.5013,229.931L 96.626,229.636L 97.2549,230.06L 97.4947,230.108L 97.4947,230.428 Z M 95.6169,229.334L 94.7908,228.777L 94.7172,228.668L 94.9435,228.442L 95.0171,228.551L 95.7416,229.04L 95.6169,229.334 Z M 94.1209,227.784L 93.5246,226.899L 93.7509,226.673L 94.3472,227.558L 94.1209,227.784 Z M 93.1005,225.878L 92.8894,224.832L 93.1841,224.708L 93.3952,225.753L 93.1005,225.878 Z M 92.6783,223.787L 92.6351,223.573L 92.8462,222.528L 93.1662,222.528L 92.9551,223.573L 92.973,223.662L 92.6783,223.787 Z "/>
	<path fill="#000000" fill-opacity="1" stroke-width="0.32" stroke-linejoin="round" d="M 107.597,31.7598L 107.754,30.9861L 107.944,30.7034L 108.239,30.8281L 108.048,31.1107L 107.917,31.7598L 107.597,31.7598 Z M 108.54,29.819L 109.137,28.9346L 109.431,29.0592L 108.835,29.9437L 108.54,29.819 Z M 109.978,28.2103L 110.863,27.6139L 111.089,27.8402L 110.204,28.4365L 109.978,28.2103 Z M 111.821,27.039L 112.867,26.8279L 112.991,27.1226L 111.946,27.3338L 111.821,27.039 Z M 113.912,26.6168L 114.535,26.491L 115.02,26.5889L 115.02,26.9088L 114.535,26.8109L 114.037,26.9115L 113.912,26.6168 Z M 116.066,26.7999L 117.111,27.0111L 117.111,27.3311L 116.066,27.1199L 116.066,26.7999 Z M 118.093,27.5365L 118.977,28.1329L 118.853,28.4276L 117.968,27.8313L 118.093,27.5365 Z M 119.856,28.8198L 120.452,29.7042L 120.226,29.9305L 119.63,29.046L 119.856,28.8198 Z M 121.049,30.5887L 121.317,30.9861L 121.445,31.6219L 121.15,31.7466L 121.022,31.1107L 120.822,30.815L 121.049,30.5887 Z M 121.656,32.6675L 121.867,33.713L 121.572,33.8377L 121.361,32.7921L 121.656,32.6675 Z M 121.699,34.8209L 121.488,35.8665L 121.168,35.8665L 121.379,34.8209L 121.699,34.8209 Z M 121.169,36.9346L 120.573,37.819L 120.278,37.6944L 120.875,36.8099L 121.169,36.9346 Z M 119.977,38.7034L 119.739,39.0553L 119.156,39.4486L 118.93,39.2223L 119.513,38.829L 119.682,38.5787L 119.977,38.7034 Z M 118.272,40.0448L 117.4,40.6325L 117.325,40.6477L 117.2,40.3529L 117.275,40.3378L 118.045,39.8186L 118.272,40.0448 Z M 116.279,40.8588L 115.234,41.0698L 115.109,40.7751L 116.155,40.564L 116.279,40.8588 Z M 114.126,41.1283L 113.08,40.9173L 113.08,40.5972L 114.126,40.8084L 114.126,41.1283 Z M 112.035,40.7062L 111.67,40.6326L 111.041,40.2086L 111.166,39.9138L 111.795,40.3378L 112.035,40.3862L 112.035,40.7062 Z M 110.157,39.6123L 109.331,39.0553L 109.257,38.9461L 109.484,38.7199L 109.557,38.8291L 110.282,39.3175L 110.157,39.6123 Z M 108.661,38.0618L 108.065,37.1773L 108.291,36.9511L 108.887,37.8355L 108.661,38.0618 Z M 107.641,36.1558L 107.429,35.1102L 107.724,34.9855L 107.935,36.0311L 107.641,36.1558 Z M 107.218,34.0646L 107.175,33.851L 107.386,32.8054L 107.706,32.8054L 107.495,33.851L 107.513,33.94L 107.218,34.0646 Z "/>
	<path fill="#000000" fill-opacity="1" stroke-width="0.32" stroke-linejoin="round" d="M 92.942,20.5114L 92.942,21.5781L 92.622,21.5781L 92.622,20.5114L 92.942,20.5114 Z M 92.942,22.6448L 92.942,23.7114L 92.622,23.7114L 92.622,22.6448L 92.942,22.6448 Z M 92.942,24.7781L 92.942,25.8447L 92.622,25.8447L 92.622,24.7781L 92.942,24.7781 Z M 92.942,26.9115L 92.942,27.9781L 92.622,27.9781L 92.622,26.9115L 92.942,26.9115 Z M 92.942,29.0448L 92.942,30.1114L 92.622,30.1114L 92.622,29.0448L 92.942,29.0448 Z M 92.942,31.1781L 92.942,32.2448L 92.622,32.2448L 92.622,31.1781L 92.942,31.1781 Z M 92.942,33.3114L 92.942,34.3781L 92.622,34.3781L 92.622,33.3114L 92.942,33.3114 Z M 92.942,35.4447L 92.942,36.5114L 92.622,36.5114L 92.622,35.4447L 92.942,35.4447 Z M 92.942,37.5781L 92.942,38.6448L 92.622,38.6448L 92.622,37.5781L 92.942,37.5781 Z M 92.942,39.7114L 92.942,40.7781L 92.622,40.7781L 92.622,39.7114L 92.942,39.7114 Z M 92.942,41.8447L 92.942,42.9114L 92.622,42.9114L 92.622,41.8447L 92.942,41.8447 Z M 92.942,43.9781L 92.942,45.0448L 92.622,45.0448L 92.622,43.9781L 92.942,43.9781 Z M 92.942,46.1114L 92.942,47.1781L 92.622,47.1781L 92.622,46.1114L 92.942,46.1114 Z M 92.942,48.2448L 92.942,49.3114L 92.622,49.3114L 92.622,48.2448L 92.942,48.2448 Z M 92.942,50.3781L 92.942,51.4447L 92.622,51.4447L 92.622,50.3781L 92.942,50.3781 Z M 92.942,52.5114L 92.942,53.5781L 92.622,53.5781L 92.622,52.5114L 92.942,52.5114 Z M 92.942,54.6448L 92.942,55.7114L 92.622,55.7114L 92.622,54.6448L 92.942,54.6448 Z M 92.942,56.7781L 92.942,57.8447L 92.622,57.8447L 92.622,56.7781L 92.942,56.7781 Z M 92.942,58.9114L 92.942,59.9781L 92.622,59.9781L 92.622,58.9114L 92.942,58.9114 Z M 92.942,61.0448L 92.942,62.1114L 92.622,62.1114L 92.622,61.0448L 92.942,61.0448 Z M 92.942,63.1781L 92.942,64.2448L 92.622,64.2448L 92.622,63.1781L 92.942,63.1781 Z M 92.942,65.3114L 92.942,66.3781L 92.622,66.3781L 92.622,65.3114L 92.942,65.3114 Z M 92.942,67.4447L 92.942,68.5114L 92.622,68.5114L 92.622,67.4447L 92.942,67.4447 Z M 92.942,69.5781L 92.942,70.6448L 92.622,70.6448L 92.622,69.5781L 92.942,69.5781 Z M 92.942,71.7114L 92.942,72.7781L 92.622,72.7781L 92.622,71.7114L 92.942,71.7114 Z M 92.942,73.8447L 92.942,74.9114L 92.622,74.9114L 92.622,73.8447L 92.942,73.8447 Z M 92.942,75.9781L 92.942,77.0448L 92.622,77.0448L 92.622,75.9781L 92.942,75.9781 Z M 92.942,78.1114L 92.942,79.1781L 92.622,79.1781L 92.622,78.1114L 92.942,78.1114 Z M 92.942,80.2448L 92.942,81.3114L 92.622,81.3114L 92.622,80.2448L 92.942,80.2448 Z M 92.942,82.3781L 92.942,83.4447L 92.622,83.4447L 92.622,82.3781L 92.942,82.3781 Z M 92.942,84.5114L 92.942,85.5781L 92.622,85.5781L 92.622,84.5114L 92.942,84.5114 Z M 92.942,86.6448L 92.942,87.7114L 92.622,87.7114L 92.622,86.6448L 92.942,86.6448 Z M 92.942,88.7781L 92.942,89.8447L 92.622,89.8447L 92.622,88.7781L 92.942,88.7781 Z M 92.942,90.9114L 92.942,91.9781L 92.622,91.9781L 92.622,90.9114L 92.942,90.9114 Z M 92.942,93.0448L 92.942,94.1114L 92.622,94.1114L 92.622,93.0448L 92.942,93.0448 Z M 92.942,95.1781L 92.942,96.2448L 92.622,96.2448L 92.622,95.1781L 92.942,95.1781 Z M 92.942,97.3114L 92.942,98.3781L 92.622,98.3781L 92.622,97.3114L 92.942,97.3114 Z M 92.942,99.4447L 92.942,100.511L 92.622,100.511L 92.622,99.4447L 92.942,99.4447 Z M 92.942,101.578L 92.942,102.645L 92.622,102.645L 92.622,101.578L 92.942,101.578 Z M 92.942,103.711L 92.942,104.778L 92.622,104.778L 92.622,103.711L 92.942,103.711 Z M 92.942,105.845L 92.942,106.911L 92.622,106.911L 92.622,105.845L 92.942,105.845 Z M 92.942,107.978L 92.942,109.045L 92.622,109.045L 92.622,107.978L 92.942,107.978 Z M 92.942,110.111L 92.942,111.178L 92.622,111.178L 92.622,110.111L 92.942,110.111 Z M 92.942,112.245L 92.942,113.311L 92.622,113.311L 92.622,112.245L 92.942,112.245 Z M 92.942,114.378L 92.942,115.445L 92.622,115.445L 92.622,114.378L 92.942,114.378 Z M 92.942,116.511L 92.942,117.578L 92.622,117.578L 92.622,116.511L 92.942,116.511 Z M 92.942,118.645L 92.942,119.711L 92.622,119.711L 92.622,118.645L 92.942,118.645 Z M 92.942,120.778L 92.942,121.845L 92.622,121.845L 92.622,120.778L 92.942,120.778 Z M 92.942,122.911L 92.942,123.978L 92.622,123.978L 92.622,122.911L 92.942,122.911 Z M 92.942,125.045L 92.942,126.111L 92.622,126.111L 92.622,125.045L 92.942,125.045 Z M 92.942,127.178L 92.942,128.245L 92.622,128.245L 92.622,127.178L 92.942,127.178 Z M 92.942,129.311L 92.942,130.378L 92.622,130.378L 92.622,129.311L 92.942,129.311 Z M 92.942,131.445L 92.942,132.511L 92.622,132.511L 92.622,131.445L 92.942,131.445 Z M 92.942,133.578L 92.942,134.645L 92.622,134.645L 92.622,133.578L 92.942,133.578 Z M 92.942,135.711L 92.942,136.778L 92.622,136.778L 92.622,135.711L 92.942,135.711 Z M 92.942,137.845L 92.942,138.911L 92.622,138.911L 92.622,137.845L 92.942,137.845 Z M 92.942,139.978L 92.942,141.045L 92.622,141.045L 92.622,139.978L 92.942,139.978 Z M 92.942,142.111L 92.942,143.178L 92.622,143.178L 92.622,142.111L 92.942,142.111 Z M 92.942,144.245L 92.942,145.311L 92.622,145.311L 92.622,144.245L 92.942,144.245 Z M 92.942,146.378L 92.942,147.445L 92.622,147.445L 92.622,146.378L 92.942,146.378 Z M 92.942,148.511L 92.942,149.578L 92.622,149.578L 92.622,148.511L 92.942,148.511 Z M 92.942,150.645L 92.942,151.711L 92.622,151.711L 92.622,150.645L 92.942,150.645 Z M 92.942,152.778L 92.942,153.845L 92.622,153.845L 92.622,152.778L 92.942,152.778 Z M 92.942,154.911L 92.942,155.978L 92.622,155.978L 92.622,154.911L 92.942,154.911 Z M 92.942,157.045L 92.942,158.111L 92.622,158.111L 92.622,157.045L 92.942,157.045 Z M 92.942,159.178L 92.942,160.245L 92.622,160.245L 92.622,159.178L 92.942,159.178 Z M 92.942,161.311L 92.942,162.378L 92.622,162.378L 92.622,161.311L 92.942,161.311 Z M 92.942,163.445L 92.942,164.511L 92.622,164.511L 92.622,163.445L 92.942,163.445 Z M 92.942,165.578L 92.942,166.645L 92.622,166.645L 92.622,165.578L 92.942,165.578 Z M 92.942,167.711L 92.942,168.778L 92.622,168.778L 92.622,167.711L 92.942,167.711 Z M 92.942,169.845L 92.942,170.911L 92.622,170.911L 92.622,169.845L 92.942,169.845 Z M 92.942,171.978L 92.942,173.045L 92.622,173.045L 92.622,171.978L 92.942,171.978 Z M 92.942,174.111L 92.942,175.178L 92.622,175.178L 92.622,174.111L 92.942,174.111 Z M 92.942,176.245L 92.942,177.311L 92.622,177.311L 92.622,176.245L 92.942,176.245 Z M 92.942,178.378L 92.942,179.445L 92.622,179.445L 92.622,178.378L 92.942,178.378 Z M 92.942,180.511L 92.942,181.578L 92.622,181.578L 92.622,180.511L 92.942,180.511 Z M 92.942,182.645L 92.942,183.711L 92.622,183.711L 92.622,182.645L 92.942,182.645 Z M 92.942,184.778L 92.942,185.845L 92.622,185.845L 92.622,184.778L 92.942,184.778 Z M 92.942,186.911L 92.942,187.978L 92.622,187.978L 92.622,186.911L 92.942,186.911 Z M 92.942,189.045L 92.942,190.111L 92.622,190.111L 92.622,189.045L 92.942,189.045 Z M 92.942,191.178L 92.942,192.245L 92.622,192.245L 92.622,191.178L 92.942,191.178 Z M 92.942,193.311L 92.942,194.378L 92.622,194.378L 92.622,193.311L 92.942,193.311 Z M 92.942,195.445L 92.942,196.511L 92.622,196.511L 92.622,195.445L 92.942,195.445 Z M 92.942,197.578L 92.942,198.645L 92.622,198.645L 92.622,197.578L 92.942,197.578 Z M 92.942,199.711L 92.942,200.778L 92.622,200.778L 92.622,199.711L 92.942,199.711 Z M 92.942,201.845L 92.942,202.911L 92.622,202.911L 92.622,201.845L 92.942,201.845 Z M 92.942,203.978L 92.942,205.045L 92.622,205.045L 92.622,203.978L 92.942,203.978 Z M 92.942,206.111L 92.942,207.178L 92.622,207.178L 92.622,206.111L 92.942,206.111 Z M 92.942,208.245L 92.942,209.311L 92.622,209.311L 92.622,208.245L 92.942,208.245 Z M 92.942,210.378L 92.942,211.445L 92.622,211.445L 92.622,210.378L 92.942,210.378 Z M 92.942,212.511L 92.942,213.578L 92.622,213.578L 92.622,212.511L 92.942,212.511 Z M 92.942,214.645L 92.942,215.711L 92.622,215.711L 92.622,214.645L 92.942,214.645 Z M 92.942,216.778L 92.942,217.845L 92.622,217.845L 92.622,216.778L 92.942,216.778 Z M 92.942,218.911L 92.942,219.978L 92.622,219.978L 92.622,218.911L 92.942,218.911 Z M 92.942,221.045L 92.942,222.111L 92.622,222.111L 92.622,221.045L 92.942,221.045 Z M 92.942,223.178L 92.942,224.245L 92.622,224.245L 92.622,223.178L 92.942,223.178 Z M 92.942,225.311L 92.942,226.378L 92.622,226.378L 92.622,225.311L 92.942,225.311 Z M 92.942,227.445L 92.942,228.511L 92.622,228.511L 92.622,227.445L 92.942,227.445 Z M 92.942,229.578L 92.942,230.645L 92.622,230.645L 92.622,229.578L 92.942,229.578 Z M 92.942,231.711L 92.942,232.778L 92.622,232.778L 92.622,231.711L 92.942,231.711 Z M 92.942,233.845L 92.942,234.911L 92.622,234.911L 92.622,233.845L 92.942,233.845 Z M 92.942,235.978L 92.942,237.045L 92.622,237.045L 92.622,235.978L 92.942,235.978 Z M 92.942,238.111L 92.942,239.178L 92.622,239.178L 92.622,238.111L 92.942,238.111 Z M 92.942,240.245L 92.942,241.311L 92.622,241.311L 92.622,240.245L 92.942,240.245 Z M 92.942,242.378L 92.942,243.445L 92.622,243.445L 92.622,242.378L 92.942,242.378 Z M 92.942,244.511L 92.942,245.578L 92.622,245.578L 92.622,244.511L 92.942,244.511 Z M 92.942,18.3781L 92.942,19.4447L 92.622,19.4447L 92.622,18.3781L 92.942,18.3781 Z "/>
	<path fill="#000000" fill-opacity="1" stroke-width="0.32" stroke-linejoin="round" d="M 107.503,20.5213L 107.503,21.588L 107.183,21.588L 107.183,20.5213L 107.503,20.5213 Z M 107.503,22.6547L 107.503,23.7213L 107.183,23.7213L 107.183,22.6547L 107.503,22.6547 Z M 107.503,24.788L 107.503,25.8546L 107.183,25.8546L 107.183,24.788L 107.503,24.788 Z M 107.503,26.9214L 107.503,27.9881L 107.183,27.9881L 107.183,26.9214L 107.503,26.9214 Z M 107.503,29.0547L 107.503,30.1214L 107.183,30.1214L 107.183,29.0547L 107.503,29.0547 Z M 107.503,31.188L 107.503,32.2547L 107.183,32.2547L 107.183,31.188L 107.503,31.188 Z M 107.503,33.3214L 107.503,34.388L 107.183,34.388L 107.183,33.3214L 107.503,33.3214 Z M 107.503,35.4547L 107.503,36.5213L 107.183,36.5213L 107.183,35.4547L 107.503,35.4547 Z M 107.503,37.588L 107.503,38.6547L 107.183,38.6547L 107.183,37.588L 107.503,37.588 Z M 107.503,39.7213L 107.503,40.788L 107.183,40.788L 107.183,39.7213L 107.503,39.7213 Z M 107.503,41.8547L 107.503,42.9213L 107.183,42.9213L 107.183,41.8547L 107.503,41.8547 Z M 107.503,43.9881L 107.503,45.0547L 107.183,45.0547L 107.183,43.9881L 107.503,43.9881 Z M 107.503,46.1214L 107.503,47.188L 107.183,47.188L 107.183,46.1214L 107.503,46.1214 Z M 107.503,48.2547L 107.503,49.3214L 107.183,49.3214L 107.183,48.2547L 107.503,48.2547 Z M 107.503,50.388L 107.503,51.4547L 107.183,51.4547L 107.183,50.388L 107.503,50.388 Z M 107.503,52.5214L 107.503,53.588L 107.183,53.588L 107.183,52.5214L 107.503,52.5214 Z M 107.503,54.6547L 107.503,55.7213L 107.183,55.7213L 107.183,54.6547L 107.503,54.6547 Z M 107.503,56.788L 107.503,57.8547L 107.183,57.8547L 107.183,56.788L 107.503,56.788 Z M 107.503,58.9213L 107.503,59.9881L 107.183,59.9881L 107.183,58.9213L 107.503,58.9213 Z M 107.503,61.0547L 107.503,62.1214L 107.183,62.1214L 107.183,61.0547L 107.503,61.0547 Z M 107.503,63.188L 107.503,64.2547L 107.183,64.2547L 107.183,63.188L 107.503,63.188 Z M 107.503,65.3214L 107.503,66.388L 107.183,66.388L 107.183,65.3214L 107.503,65.3214 Z M 107.503,67.4547L 107.503,68.5214L 107.183,68.5214L 107.183,67.4547L 107.503,67.4547 Z M 107.503,69.588L 107.503,70.6547L 107.183,70.6547L 107.183,69.588L 107.503,69.588 Z M 107.503,71.7213L 107.503,72.788L 107.183,72.788L 107.183,71.7213L 107.503,71.7213 Z M 107.503,73.8547L 107.503,74.9213L 107.183,74.9213L 107.183,73.8547L 107.503,73.8547 Z M 107.503,75.9881L 107.503,77.0547L 107.183,77.0547L 107.183,75.9881L 107.503,75.9881 Z M 107.503,78.1214L 107.503,79.188L 107.183,79.188L 107.183,78.1214L 107.503,78.1214 Z M 107.503,80.2547L 107.503,81.3214L 107.183,81.3214L 107.183,80.2547L 107.503,80.2547 Z M 107.503,82.388L 107.503,83.4547L 107.183,83.4547L 107.183,82.388L 107.503,82.388 Z M 107.503,84.5214L 107.503,85.588L 107.183,85.588L 107.183,84.5214L 107.503,84.5214 Z M 107.503,86.6547L 107.503,87.7213L 107.183,87.7213L 107.183,86.6547L 107.503,86.6547 Z M 107.503,88.788L 107.503,89.8547L 107.183,89.8547L 107.183,88.788L 107.503,88.788 Z M 107.503,90.9213L 107.503,91.9881L 107.183,91.9881L 107.183,90.9213L 107.503,90.9213 Z M 107.503,93.0547L 107.503,94.1214L 107.183,94.1214L 107.183,93.0547L 107.503,93.0547 Z M 107.503,95.188L 107.503,96.2547L 107.183,96.2547L 107.183,95.188L 107.503,95.188 Z M 107.503,97.3214L 107.503,98.388L 107.183,98.388L 107.183,97.3214L 107.503,97.3214 Z M 107.503,99.4547L 107.503,100.521L 107.183,100.521L 107.183,99.4547L 107.503,99.4547 Z M 107.503,101.588L 107.503,102.655L 107.183,102.655L 107.183,101.588L 107.503,101.588 Z M 107.503,103.721L 107.503,104.788L 107.183,104.788L 107.183,103.721L 107.503,103.721 Z M 107.503,105.855L 107.503,106.921L 107.183,106.921L 107.183,105.855L 107.503,105.855 Z M 107.503,107.988L 107.503,109.055L 107.183,109.055L 107.183,107.988L 107.503,107.988 Z M 107.503,110.121L 107.503,111.188L 107.183,111.188L 107.183,110.121L 107.503,110.121 Z M 107.503,112.255L 107.503,113.321L 107.183,113.321L 107.183,112.255L 107.503,112.255 Z M 107.503,114.388L 107.503,115.455L 107.183,115.455L 107.183,114.388L 107.503,114.388 Z M 107.503,116.521L 107.503,117.588L 107.183,117.588L 107.183,116.521L 107.503,116.521 Z M 107.503,118.655L 107.503,119.721L 107.183,119.721L 107.183,118.655L 107.503,118.655 Z M 107.503,120.788L 107.503,121.855L 107.183,121.855L 107.183,120.788L 107.503,120.788 Z M 107.503,122.921L 107.503,123.988L 107.183,123.988L 107.183,122.921L 107.503,122.921 Z M 107.503,125.055L 107.503,126.121L 107.183,126.121L 107.183,125.055L 107.503,125.055 Z M 107.503,127.188L 107.503,128.255L 107.183,128.255L 107.183,127.188L 107.503,127.188 Z M 107.503,129.321L 107.503,130.388L 107.183,130.388L 107.183,129.321L 107.503,129.321 Z M 107.503,131.455L 107.503,132.521L 107.183,132.521L 107.183,131.455L 107.503,131.455 Z M 107.503,133.588L 107.503,134.655L 107.183,134.655L 107.183,133.588L 107.503,133.588 Z M 107.503,135.721L 107.503,136.788L 107.183,136.788L 107.183,135.721L 107.503,135.721 Z M 107.503,137.855L 107.503,138.921L 107.183,138.921L 107.183,137.855L 107.503,137.855 Z M 107.503,139.988L 107.503,141.055L 107.183,141.055L 107.183,139.988L 107.503,139.988 Z M 107.503,142.121L 107.503,143.188L 107.183,143.188L 107.183,142.121L 107.503,142.121 Z M 107.503,144.255L 107.503,145.321L 107.183,145.321L 107.183,144.255L 107.503,144.255 Z M 107.503,146.388L 107.503,147.455L 107.183,147.455L 107.183,146.388L 107.503,146.388 Z M 107.503,148.521L 107.503,149.588L 107.183,149.588L 107.183,148.521L 107.503,148.521 Z M 107.503,150.655L 107.503,151.721L 107.183,151.721L 107.183,150.655L 107.503,150.655 Z M 107.503,152.788L 107.503,153.855L 107.183,153.855L 107.183,152.788L 107.503,152.788 Z M 107.503,154.921L 107.503,155.988L 107.183,155.988L 107.183,154.921L 107.503,154.921 Z M 107.503,157.055L 107.503,158.121L 107.183,158.121L 107.183,157.055L 107.503,157.055 Z M 107.503,159.188L 107.503,160.255L 107.183,160.255L 107.183,159.188L 107.503,159.188 Z M 107.503,161.321L 107.503,162.388L 107.183,162.388L 107.183,161.321L 107.503,161.321 Z M 107.503,163.455L 107.503,164.521L 107.183,164.521L 107.183,163.455L 107.503,163.455 Z M 107.503,165.588L 107.503,166.655L 107.183,166.655L 107.183,165.588L 107.503,165.588 Z M 107.503,167.721L 107.503,168.788L 107.183,168.788L 107.183,167.721L 107.503,167.721 Z M 107.503,169.855L 107.503,170.921L 107.183,170.921L 107.183,169.855L 107.503,169.855 Z M 107.503,171.988L 107.503,173.055L 107.183,173.055L 107.183,171.988L 107.503,171.988 Z M 107.503,174.121L 107.503,175.188L 107.183,175.188L 107.183,174.121L 107.503,174.121 Z M 107.503,176.255L 107.503,177.321L 107.183,177.321L 107.183,176.255L 107.503,176.255 Z M 107.503,178.388L 107.503,179.455L 107.183,179.455L 107.183,178.388L 107.503,178.388 Z M 107.503,180.521L 107.503,181.588L 107.183,181.588L 107.183,180.521L 107.503,180.521 Z M 107.503,182.655L 107.503,183.721L 107.183,183.721L 107.183,182.655L 107.503,182.655 Z M 107.503,184.788L 107.503,185.855L 107.183,185.855L 107.183,184.788L 107.503,184.788 Z M 107.503,186.921L 107.503,187.988L 107.183,187.988L 107.183,186.921L 107.503,186.921 Z M 107.503,189.055L 107.503,190.121L 107.183,190.121L 107.183,189.055L 107.503,189.055 Z M 107.503,191.188L 107.503,192.255L 107.183,192.255L 107.183,191.188L 107.503,191.188 Z M 107.503,193.321L 107.503,194.388L 107.183,194.388L 107.183,193.321L 107.503,193.321 Z M 107.503,195.455L 107.503,196.521L 107.183,196.521L 107.183,195.455L 107.503,195.455 Z M 107.503,197.588L 107.503,198.655L 107.183,198.655L 107.183,197.588L 107.503,197.588 Z M 107.503,199.721L 107.503,200.788L 107.183,200.788L 107.183,199.721L 107.503,199.721 Z M 107.503,201.855L 107.503,202.921L 107.183,202.921L 107.183,201.855L 107.503,201.855 Z M 107.503,203.988L 107.503,205.055L 107.183,205.055L 107.183,203.988L 107.503,203.988 Z M 107.503,206.121L 107.503,207.188L 107.183,207.188L 107.183,206.121L 107.503,206.121 Z M 107.503,208.255L 107.503,209.321L 107.183,209.321L 107.183,208.255L 107.503,208.255 Z M 107.503,210.388L 107.503,211.455L 107.183,211.455L 107.183,210.388L 107.503,210.388 Z M 107.503,212.521L 107.503,213.588L 107.183,213.588L 107.183,212.521L 107.503,212.521 Z M 107.503,214.655L 107.503,215.721L 107.183,215.721L 107.183,214.655L 107.503,214.655 Z M 107.503,216.788L 107.503,217.855L 107.183,217.855L 107.183,216.788L 107.503,216.788 Z M 107.503,218.921L 107.503,219.988L 107.183,219.988L 107.183,218.921L 107.503,218.921 Z M 107.503,221.055L 107.503,222.121L 107.183,222.121L 107.183,221.055L 107.503,221.055 Z M 107.503,223.188L 107.503,224.255L 107.183,224.255L 107.183,223.188L 107.503,223.188 Z M 107.503,225.321L 107.503,226.388L 107.183,226.388L 107.183,225.321L 107.503,225.321 Z M 107.503,227.455L 107.503,228.521L 107.183,228.521L 107.183,227.455L 107.503,227.455 Z M 107.503,229.588L 107.503,230.655L 107.183,230.655L 107.183,229.588L 107.503,229.588 Z M 107.503,231.721L 107.503,232.788L 107.183,232.788L 107.183,231.721L 107.503,231.721 Z M 107.503,233.855L 107.503,234.921L 107.183,234.921L 107.183,233.855L 107.503,233.855 Z M 107.503,235.988L 107.503,237.055L 107.183,237.055L 107.183,235.988L 107.503,235.988 Z M 107.503,238.121L 107.503,239.188L 107.183,239.188L 107.183,238.121L 107.503,238.121 Z M 107.503,240.255L 107.503,241.321L 107.183,241.321L 107.183,240.255L 107.503,240.255 Z M 107.503,242.388L 107.503,243.455L 107.183,243.455L 107.183,242.388L 107.503,242.388 Z M 107.503,244.521L 107.503,245.588L 107.183,245.588L 107.183,244.521L 107.503,244.521 Z M 107.503,18.388L 107.503,19.4547L 107.183,19.4547L 107.183,18.388L 107.503,18.388 Z "/>
	<path fill="none" stroke-width="0.64" stroke-linejoin="round" stroke="#000000" stroke-opacity="1" d="M 10.0117,238.006L 300.032,238.006L 303.819,244.394L 308.939,233.194L 312.459,238.006L 327.212,238.006"/>
	<line fill="none" stroke-width="0.64" stroke-linejoin="round" stroke="#000000" stroke-opacity="1" x1="20.3262" y1="248.037" x2="20.3267" y2="10.8367"/>
	<text transform="matrix(1.0000000000000000 0.0000000000000000 0.0000000000000000 1.0000000000000000 332.00 251.00)" xml:space="preserve">
		<tspan style=" font-family:Segoe UI; font-size:10.000000pt;" letter-spacing="0.00em" fill="#000000" fill-opacity="1" stroke-width="0.32" stroke-linejoin="round">x</tspan>
	</text>
	<text transform="matrix(0.9999999403953552 0.0000000000000000 0.0000000000000000 0.9999999403953552 5.00 6.00)" xml:space="preserve">
		<tspan style=" font-family:Segoe UI; font-size:10.000000pt;" letter-spacing="0.00em" fill="#000000" fill-opacity="1" stroke-width="0.32" stroke-linejoin="round">y</tspan>
	</text>
	<text transform="matrix(0.9999998807907103 0.0000000000000000 0.0000000000000000 0.9999998807907103 0.00 38.00)" xml:space="preserve">
		<tspan style=" font-family:Segoe UI; font-size:10.000000pt;" letter-spacing="0.00em" fill="#000000" fill-opacity="1" stroke-width="0.32" stroke-linejoin="round">ty1</tspan>
	</text>
	<text transform="matrix(0.9999998807907103 0.0000000000000000 0.0000000000000000 0.9999998807907103 1.00 228.00)" xml:space="preserve">
		<tspan style=" font-family:Segoe UI; font-size:10.000000pt;" letter-spacing="0.00em" fill="#000000" fill-opacity="1" stroke-width="0.32" stroke-linejoin="round">ty2</tspan>
	</text>
	<text transform="matrix(0.9999998807907103 0.0000000000000000 0.0000000000000000 0.9999998807907103 24.00 253.00)" xml:space="preserve">
		<tspan style=" font-family:Segoe UI; font-size:10.000000pt;" letter-spacing="0.00em" fill="#000000" fill-opacity="1" stroke-width="0.32" stroke-linejoin="round">ty3</tspan>
	</text>
	<text transform="matrix(0.9999998807907103 0.0000000000000000 0.0000000000000000 0.9999998807907103 41.00 253.00)" xml:space="preserve">
		<tspan style=" font-family:Segoe UI; font-size:10.000000pt;" letter-spacing="0.00em" fill="#000000" fill-opacity="1" stroke-width="0.32" stroke-linejoin="round">ty4</tspan>
	</text>
	<text transform="matrix(0.9999998807907103 0.0000000000000000 0.0000000000000000 0.9999998807907103 59.00 253.00)" xml:space="preserve">
		<tspan style=" font-family:Segoe UI; font-size:10.000000pt;" letter-spacing="0.00em" fill="#000000" fill-opacity="1" stroke-width="0.32" stroke-linejoin="round">ty5</tspan>
	</text>
</svg>
