<?xml version="1.0" encoding="utf-8"?>
<!DOCTYPE svg PUBLIC "-//W3C//DTD SVG 1.1//EN" "http://www.w3.org/Graphics/SVG/1.1/DTD/svg11.dtd">
<svg xmlns="http://www.w3.org/2000/svg" xmlns:xlink="http://www.w3.org/1999/xlink" version="1.1" baseProfile="full" width="369.8" height="438.357" viewBox="0 0 369.80 438.36" enable-background="new 0 0 369.80 438.36" xml:space="preserve">
	<line fill="none" stroke-width="0.64" stroke-linejoin="round" stroke="#989898" stroke-opacity="1" x1="43.6657" y1="17.6322" x2="43.6657" y2="430.178"/>
	<path fill="#ECECEC" fill-opacity="1" stroke-width="0.64" stroke-linejoin="round" d="M 246.181,123.591C 246.181,82.6438 212.986,49.449 172.038,49.449C 131.09,49.449 96.2957,83.9442 97.9238,125.174L 43.6919,125.066C 43.6919,69.1503 89.0209,23.8212 144.937,23.8212C 200.853,23.8212 246.182,69.1503 246.182,125.066"/>
	<path fill="#000000" fill-opacity="1" stroke-width="0.2" stroke-linejoin="round" d="M 12.1513,14.2225L 14.4243,12.2176L 16.5077,14.2134L 14.3218,8.44508L 12.1513,14.2225 Z "/>
	<path fill="#000000" fill-opacity="1" stroke-width="0.2" stroke-linejoin="round" d="M 355.096,325.732L 357.072,328.03L 355.05,330.088L 360.846,327.975L 355.096,325.732 Z "/>
	<line fill="none" stroke-width="0.64" stroke-linejoin="round" stroke="#989898" stroke-opacity="1" x1="246.178" y1="17.3729" x2="246.178" y2="429.919"/>
	<line fill="none" stroke-width="0.64" stroke-linejoin="round" stroke="#989898" stroke-opacity="1" x1="28.9815" y1="17.3633" x2="28.9815" y2="429.909"/>
	<ellipse fill="none" stroke-width="0.64" stroke-linejoin="round" stroke="#989898" stroke-opacity="1" cx="152.266" cy="313.189" rx="108.541" ry="108.541"/>
	<ellipse fill="none" stroke-width="0.64" stroke-linejoin="round" stroke="#989898" stroke-opacity="1" cx="144.937" cy="125.066" rx="101.245" ry="101.245"/>
	<text transform="matrix(0.9999998807907103 0.0000000000000000 0.0000000000000000 0.9999998807907103 202.00 40.00)" xml:space="preserve">
		<tspan style=" font-family:Segoe UI; font-size:10.000000pt;" letter-spacing="0.00em" fill="#000000" fill-opacity="1" stroke-width="0.32" stroke-linejoin="round">V4</tspan>
	</text>
	<text transform="matrix(0.9999998807907103 0.0000000000000000 0.0000000000000000 0.9999998807907103 38.00 12.00)" xml:space="preserve">
		<tspan style=" font-family:Segoe UI; font-size:10.000000pt;" letter-spacing="0.00em" fill="#000000" fill-opacity="1" stroke-width="0.32" stroke-linejoin="round">V5</tspan>
	</text>
	<ellipse fill="none" stroke-width="0.64" stroke-linejoin="round" stroke="#989898" stroke-opacity="1" cx="206.473" cy="313.189" rx="108.541" ry="108.541"/>
	<path fill="none" stroke-width="0.64" stroke-linejoin="round" stroke="#000000" stroke-opacity="1" d="M 4.11041,328.006L 332.131,328.006L 335.918,334.394L 341.038,323.194L 344.558,328.006L 359.31,328.006"/>
	<line fill="none" stroke-width="0.64" stroke-linejoin="round" stroke="#000000" stroke-opacity="1" x1="14.4249" y1="438.037" x2="14.4255" y2="10.8362"/>
	<text transform="matrix(1.0000000000000000 0.0000000000000000 0.0000000000000000 1.0000000000000000 364.00 341.00)" xml:space="preserve">
		<tspan style=" font-family:Segoe UI; font-size:10.000000pt;" letter-spacing="0.00em" fill="#000000" fill-opacity="1" stroke-width="0.32" stroke-linejoin="round">x</tspan>
	</text>
	<text transform="matrix(0.9999999403953552 0.0000000000000000 0.0000000000000000 0.9999999403953552 0.00 6.00)" xml:space="preserve">
		<tspan style=" font-family:Segoe UI; font-size:10.000000pt;" letter-spacing="0.00em" fill="#000000" fill-opacity="1" stroke-width="0.32" stroke-linejoin="round">y</tspan>
	</text>
	<text transform="matrix(0.9999998807907103 0.0000000000000000 0.0000000000000000 0.9999998807907103 48.00 120.00)" xml:space="preserve">
		<tspan style=" font-family:Segoe UI; font-size:10.000000pt;" letter-spacing="0.00em" fill="#000000" fill-opacity="1" stroke-width="0.32" stroke-linejoin="round">t</tspan>
		<tspan style=" font-family:Segoe UI; font-size:10.000000pt;" letter-spacing="0.00em" fill="#000000" fill-opacity="1" stroke-width="0.32" stroke-linejoin="round">4</tspan>
	</text>
	<line fill="none" stroke-width="0.64" stroke-linejoin="round" stroke="#000000" stroke-opacity="1" x1="28.9815" y1="123.803" x2="28.9815" y2="313.648"/>
	<path fill="none" stroke-width="0.64" stroke-linejoin="round" stroke="#000000" stroke-opacity="1" d="M 246.107,313.189C 246.107,373.134 197.512,421.73 137.566,421.73C 77.6205,421.73 29.025,373.134 29.025,313.189"/>
	<ellipse fill="none" stroke-width="0.64" stroke-linejoin="round" stroke="#989898" stroke-opacity="1" cx="172.038" cy="123.591" rx="74.1425" ry="74.1425"/>
	<text transform="matrix(0.9999998807907103 0.0000000000000000 0.0000000000000000 0.9999998807907103 67.00 375.00)" xml:space="preserve">
		<tspan style=" font-family:Segoe UI; font-size:10.000000pt;" letter-spacing="0.00em" fill="#000000" fill-opacity="1" stroke-width="0.32" stroke-linejoin="round">V6</tspan>
	</text>
	<line fill="none" stroke-width="0.64" stroke-linejoin="round" stroke="#000000" stroke-opacity="1" x1="246.178" y1="123.798" x2="246.178" y2="313.642"/>
	<path fill="#FFC800" fill-opacity="1" stroke-width="0.2" stroke-linejoin="round" d="M 35.0576,229.237L 33.0526,226.964L 35.0484,224.881L 29.2801,227.067L 35.0576,229.237 Z "/>
	<line fill="none" stroke-width="0.64" stroke-linejoin="round" stroke="#989898" stroke-opacity="1" x1="98.0253" y1="17.6322" x2="98.0253" y2="430.178"/>
	<line fill="none" stroke-width="0.64" stroke-linejoin="round" stroke="#000000" stroke-opacity="1" x1="43.6657" y1="123.803" x2="43.6657" y2="313.648"/>
	<path fill="#FFC800" fill-opacity="1" stroke-width="0.32" stroke-linejoin="round" d="M 98.2453,139.808L 98.2453,145.142L 97.6053,145.142L 97.6053,139.808L 98.2453,139.808 Z M 98.2453,150.475L 98.2453,155.808L 97.6053,155.808L 97.6053,150.475L 98.2453,150.475 Z M 98.2453,161.142L 98.2453,166.475L 97.6053,166.475L 97.6053,161.142L 98.2453,161.142 Z M 98.2453,171.808L 98.2453,177.142L 97.6053,177.142L 97.6053,171.808L 98.2453,171.808 Z M 98.2453,182.475L 98.2453,187.808L 97.6053,187.808L 97.6053,182.475L 98.2453,182.475 Z M 98.2453,193.142L 98.2453,198.475L 97.6053,198.475L 97.6053,193.142L 98.2453,193.142 Z M 98.2453,203.808L 98.2453,209.142L 97.6053,209.142L 97.6053,203.808L 98.2453,203.808 Z M 98.2453,214.475L 98.2453,219.808L 97.6053,219.808L 97.6053,214.475L 98.2453,214.475 Z M 98.2453,225.142L 98.2453,230.475L 97.6053,230.475L 97.6053,225.142L 98.2453,225.142 Z M 98.2453,235.808L 98.2453,241.142L 97.6053,241.142L 97.6053,235.808L 98.2453,235.808 Z M 98.2453,246.475L 98.2453,251.808L 97.6053,251.808L 97.6053,246.475L 98.2453,246.475 Z M 98.2453,257.142L 98.2453,262.475L 97.6053,262.475L 97.6053,257.142L 98.2453,257.142 Z M 98.2453,267.808L 98.2453,273.142L 97.6053,273.142L 97.6053,267.808L 98.2453,267.808 Z M 98.2453,278.475L 98.2453,283.808L 97.6053,283.808L 97.6053,278.475L 98.2453,278.475 Z M 98.2453,289.142L 98.2453,294.475L 97.6053,294.475L 97.6053,289.142L 98.2453,289.142 Z M 98.2453,299.808L 98.2453,305.142L 97.6053,305.142L 97.6053,299.808L 98.2453,299.808 Z M 98.2453,310.475L 98.2453,313.648L 97.6053,313.648L 97.6053,310.475L 98.2453,310.475 Z M 98.2453,129.142L 98.2453,134.475L 97.6053,134.475L 97.6053,129.142L 98.2453,129.142 Z "/>
	<path fill="none" stroke-width="0.64" stroke-linejoin="round" stroke="#000000" stroke-opacity="1" d="M 260.807,313.189C 260.807,373.134 212.212,421.73 152.266,421.73C 92.3205,421.73 43.725,373.134 43.725,313.189"/>
	<path fill="#FFC800" fill-opacity="1" stroke-width="0.32" stroke-linejoin="round" d="M 314.796,323.842L 314.772,324.319L 314.035,329.151L 313.398,329.086L 314.136,324.254L 314.156,323.842L 314.796,323.842 Z M 313.23,334.423L 313.123,335.128L 311.964,339.634L 311.337,339.506L 312.496,334.999L 312.593,334.358L 313.23,334.423 Z M 310.636,344.799L 310.44,345.56L 308.866,349.861L 308.255,349.671L 309.829,345.37L 310.009,344.671L 310.636,344.799 Z M 307.033,354.869L 306.779,355.562L 304.771,359.731L 304.182,359.481L 306.19,355.313L 306.422,354.679L 307.033,354.869 Z M 302.457,364.535L 302.195,365.079L 299.723,369.148L 299.16,368.843L 301.633,364.773L 301.867,364.286L 302.457,364.535 Z M 296.954,373.706L 296.742,374.054L 293.774,378.024L 293.243,377.666L 296.212,373.696L 296.391,373.401L 296.954,373.706 Z M 290.58,382.295L 290.476,382.435L 286.985,386.275L 286.491,385.868L 289.982,382.027L 290.049,381.937L 290.58,382.295 Z M 283.37,390.237L 279.423,393.825L 278.971,393.372L 282.917,389.785L 283.37,390.237 Z M 275.432,397.406L 271.161,400.6L 270.753,400.106L 275.025,396.912L 275.432,397.406 Z M 266.833,403.765L 262.275,406.534L 261.917,406.004L 266.475,403.235L 266.833,403.765 Z M 257.654,409.252L 252.849,411.567L 252.544,411.004L 257.349,408.69L 257.654,409.252 Z M 247.981,413.812L 242.973,415.645L 242.723,415.055L 247.732,413.222L 247.981,413.812 Z M 237.906,417.397L 232.741,418.725L 232.551,418.114L 237.716,416.786L 237.906,417.397 Z M 227.527,419.973L 222.254,420.778L 222.126,420.151L 227.398,419.346L 227.527,419.973 Z M 216.944,421.521L 211.617,421.79L 211.552,421.153L 216.879,420.884L 216.944,421.521 Z M 206.258,422.039L 200.932,421.77L 200.932,421.13L 206.258,421.399L 206.258,422.039 Z M 195.605,421.501L 195.343,421.488L 190.298,420.718L 190.363,420.081L 195.408,420.851L 195.605,420.861L 195.605,421.501 Z M 185.026,419.913L 184.534,419.838L 179.819,418.626L 179.948,417.999L 184.663,419.211L 185.09,419.276L 185.026,419.913 Z M 174.654,417.298L 174.101,417.156L 169.599,415.508L 169.789,414.896L 174.292,416.544L 174.782,416.671L 174.654,417.298 Z M 164.59,413.674L 164.1,413.495L 159.737,411.393L 159.987,410.804L 164.349,412.905L 164.781,413.063L 164.59,413.674 Z M 154.932,409.079L 154.583,408.911L 150.33,406.326L 150.635,405.764L 154.889,408.348L 155.182,408.489L 154.932,409.079 Z M 145.772,403.557L 145.608,403.458L 141.465,400.36L 141.824,399.83L 145.966,402.927L 146.077,402.995L 145.772,403.557 Z M 137.174,397.142L 133.227,393.555L 133.634,393.062L 137.581,396.649L 137.174,397.142 Z M 129.28,389.926L 125.692,385.979L 126.145,385.527L 129.732,389.473L 129.28,389.926 Z M 122.127,381.975L 118.933,377.704L 119.427,377.296L 122.621,381.567L 122.127,381.975 Z M 115.785,373.364L 113.016,368.806L 113.546,368.448L 116.315,373.006L 115.785,373.364 Z M 110.316,364.175L 108.002,359.371L 108.564,359.065L 110.879,363.87L 110.316,364.175 Z M 105.776,354.494L 103.943,349.486L 104.533,349.237L 106.366,354.245L 105.776,354.494 Z M 102.211,344.413L 100.883,339.248L 101.494,339.058L 102.822,344.223L 102.211,344.413 Z M 99.6562,334.029L 98.8516,328.757L 99.4786,328.628L 100.283,333.901L 99.6562,334.029 Z M 98.1301,323.444L 97.8611,318.117L 98.4978,318.053L 98.7668,323.379L 98.1301,323.444 Z M 315.334,313.189L 315.065,318.515L 314.425,318.515L 314.694,313.189L 315.334,313.189 Z "/>
	<path fill="#FFC800" fill-opacity="1" stroke-width="0.2" stroke-linejoin="round" d="M 91.8884,224.881L 93.8934,227.154L 91.8976,229.237L 97.6659,227.051L 91.8884,224.881 Z "/>
	<line fill="none" stroke-width="0.64" stroke-linejoin="round" stroke="#FFC800" stroke-opacity="1" x1="31.5632" y1="227.066" x2="95.4033" y2="227.066"/>
	<path fill="#FFC800" fill-opacity="1" stroke-width="0.2" stroke-linejoin="round" d="M 35.0674,191.094L 33.0624,188.821L 35.0582,186.737L 29.2899,188.923L 35.0674,191.094 Z "/>
	<path fill="#FFC800" fill-opacity="1" stroke-width="0.2" stroke-linejoin="round" d="M 37.5982,186.737L 39.6031,189.01L 37.6073,191.094L 43.3756,188.908L 37.5982,186.737 Z "/>
	<line fill="none" stroke-width="0.64" stroke-linejoin="round" stroke="#FFC800" stroke-opacity="1" x1="31.573" y1="188.922" x2="42.0228" y2="188.922"/>
	<path fill="#FFC800" fill-opacity="1" stroke-width="0.32" stroke-linejoin="round" d="M 98.4242,112.937L 99.0885,108.585L 99.3282,107.653L 99.9552,107.781L 99.7155,108.713L 99.0609,113.002L 98.4242,112.937 Z M 100.656,102.487L 100.923,101.449L 102.399,97.4173L 103.01,97.6074L 101.535,101.639L 101.283,102.616L 100.656,102.487 Z M 104.457,92.4698L 106.563,88.098L 106.829,87.6605L 107.391,87.9661L 107.125,88.4036L 105.047,92.7191L 104.457,92.4698 Z M 109.598,83.1024L 110.293,81.9586L 112.704,78.7345L 113.234,79.0928L 110.823,82.3169L 110.16,83.408L 109.598,83.1024 Z M 116.081,74.5745L 119.385,70.9386L 119.719,70.6355L 120.171,71.0881L 119.838,71.3912L 116.574,74.9819L 116.081,74.5745 Z M 123.665,67.0485L 124.673,66.1328L 127.878,63.7359L 128.286,64.2295L 125.08,66.6265L 124.118,67.501L 123.665,67.0485 Z M 132.293,60.6995L 136.545,58.1165L 136.895,57.9475L 137.201,58.5099L 136.85,58.6788L 132.651,61.2299L 132.293,60.6995 Z M 141.7,55.6329L 143.054,54.9809L 146.681,53.6534L 146.93,54.2428L 143.303,55.5703L 142.006,56.1953L 141.7,55.6329 Z M 151.776,51.9933L 156.941,50.6652L 157.131,51.2763L 151.966,52.6044L 151.776,51.9933 Z M 162.243,49.8465L 164.425,49.5134L 167.579,49.3542L 167.644,49.9909L 164.49,50.1502L 162.371,50.4735L 162.243,49.8465 Z M 172.938,49.1745L 178.265,49.4434L 178.265,50.0834L 172.938,49.8145L 172.938,49.1745 Z M 183.583,50.1135L 187.045,50.6418L 188.85,51.106L 188.722,51.733L 186.916,51.2688L 183.518,50.7503L 183.583,50.1135 Z M 194.015,52.4341L 194.181,52.4768L 199.059,54.262L 198.868,54.8731L 193.991,53.0878L 193.887,53.0612L 194.015,52.4341 Z M 203.972,56.4015L 207.532,58.1165L 208.739,58.8501L 208.434,59.4125L 207.226,58.6788L 203.722,56.991L 203.972,56.4015 Z M 213.297,61.6193L 213.671,61.8462L 217.617,64.7968L 217.259,65.3272L 213.313,62.3766L 212.992,62.1816L 213.297,61.6193 Z M 221.722,68.2401L 224.691,70.9386L 225.6,71.9389L 225.148,72.3914L 224.239,71.3911L 221.315,68.7338L 221.722,68.2401 Z M 229.187,75.8857L 229.497,76.2263L 232.433,80.1533L 231.94,80.5607L 229.003,76.6337L 228.735,76.3383L 229.187,75.8857 Z M 235.398,84.6163L 237.513,88.098L 238.073,89.2606L 237.511,89.5661L 236.951,88.4035L 234.868,84.9746L 235.398,84.6163 Z M 240.388,94.0654L 240.649,94.6072L 242.286,99.0802L 241.697,99.3295L 240.059,94.8566L 239.826,94.371L 240.388,94.0654 Z M 243.861,104.202L 244.988,108.585L 245.115,109.415L 244.487,109.543L 244.361,108.713L 243.25,104.392L 243.861,104.202 Z M 245.919,114.687L 246.116,115.978L 246.321,120.033L 245.684,120.097L 245.48,116.043L 245.292,114.816L 245.919,114.687 Z M 97.5757,123.591L 97.8446,118.265L 98.4846,118.265L 98.2157,123.591L 97.5757,123.591 Z "/>
	<path fill="none" stroke-width="0.64" stroke-linejoin="round" stroke="#000000" stroke-opacity="1" d="M 43.6919,125.066C 43.6919,69.1503 89.0209,23.8212 144.937,23.8212C 200.853,23.8212 246.182,69.1503 246.182,125.066"/>
	<path fill="#FFC800" fill-opacity="1" stroke-width="0.2" stroke-linejoin="round" d="M 97.9627,122.646C 98.4763,122.646 98.8927,123.063 98.8927,123.576C 98.8927,124.09 98.4763,124.506 97.9627,124.506C 97.4491,124.506 97.0327,124.09 97.0327,123.576C 97.0327,123.063 97.4491,122.646 97.9627,122.646 Z "/>
	<path fill="#FFC800" fill-opacity="1" stroke-width="0.2" stroke-linejoin="round" d="M 43.5894,122.62C 44.103,122.62 44.5194,123.036 44.5194,123.55C 44.5194,124.063 44.103,124.48 43.5894,124.48C 43.0758,124.48 42.6594,124.063 42.6594,123.55C 42.6594,123.036 43.0758,122.62 43.5894,122.62 Z "/>
	<text transform="matrix(0.9999998807907103 0.0000000000000000 0.0000000000000000 0.9999998807907103 189.00 70.00)" xml:space="preserve">
		<tspan style=" font-family:Segoe UI; font-size:10.000000pt;" letter-spacing="0.00em" fill="#000000" fill-opacity="1" stroke-width="0.32" stroke-linejoin="round">V4&apos;</tspan>
	</text>
	<text transform="matrix(0.9999998807907103 0.0000000000000000 0.0000000000000000 0.9999998807907103 102.00 120.00)" xml:space="preserve">
		<tspan style=" font-family:Segoe UI; font-size:10.000000pt;" letter-spacing="0.00em" fill="#000000" fill-opacity="1" stroke-width="0.32" stroke-linejoin="round">t</tspan>
		<tspan style=" font-family:Segoe UI; font-size:10.000000pt;" letter-spacing="0.00em" fill="#000000" fill-opacity="1" stroke-width="0.32" stroke-linejoin="round">4&apos;</tspan>
	</text>
	<text transform="matrix(0.9999998807907103 0.0000000000000000 0.0000000000000000 0.9999998807907103 91.00 12.00)" xml:space="preserve">
		<tspan style=" font-family:Segoe UI; font-size:10.000000pt;" letter-spacing="0.00em" fill="#000000" fill-opacity="1" stroke-width="0.32" stroke-linejoin="round">V5&apos;</tspan>
	</text>
	<text transform="matrix(0.9999998807907103 0.0000000000000000 0.0000000000000000 0.9999998807907103 123.00 375.00)" xml:space="preserve">
		<tspan style=" font-family:Segoe UI; font-size:10.000000pt;" letter-spacing="0.00em" fill="#000000" fill-opacity="1" stroke-width="0.32" stroke-linejoin="round">V6&apos;</tspan>
	</text>
	<text transform="matrix(0.9999998807907103 0.0000000000000000 0.0000000000000000 0.9999998807907103 48.00 193.00)" xml:space="preserve">
		<tspan style=" font-family:Segoe UI; font-size:10.000000pt;" letter-spacing="0.00em" fill="#000000" fill-opacity="1" stroke-width="0.32" stroke-linejoin="round">l</tspan>
	</text>
	<text transform="matrix(0.9999998807907103 0.0000000000000000 0.0000000000000000 0.9999998807907103 102.00 231.00)" xml:space="preserve">
		<tspan style=" font-family:Segoe UI; font-size:10.000000pt;" letter-spacing="0.00em" fill="#000000" fill-opacity="1" stroke-width="0.32" stroke-linejoin="round">l&apos;</tspan>
	</text>
</svg>
