<?xml version="1.0" encoding="utf-8"?>
<!DOCTYPE svg PUBLIC "-//W3C//DTD SVG 1.1//EN" "http://www.w3.org/Graphics/SVG/1.1/DTD/svg11.dtd">
<svg xmlns="http://www.w3.org/2000/svg" xmlns:xlink="http://www.w3.org/1999/xlink" version="1.1" baseProfile="full" width="316.587" height="438.357" viewBox="0 0 316.59 438.36" enable-background="new 0 0 316.59 438.36" xml:space="preserve">
	<path fill="#FFC800" fill-opacity="1" stroke-width="0.32" stroke-linejoin="round" d="M 31.2248,313.374L 36.5581,313.374L 36.5581,314.014L 31.2248,314.014L 31.2248,313.374 Z M 41.8915,313.374L 47.2248,313.374L 47.2248,314.014L 41.8915,314.014L 41.8915,313.374 Z M 52.5581,313.374L 57.8915,313.374L 57.8915,314.014L 52.5581,314.014L 52.5581,313.374 Z M 63.2248,313.374L 68.5581,313.375L 68.5581,314.015L 63.2248,314.014L 63.2248,313.374 Z M 73.8915,313.375L 79.2248,313.375L 79.2248,314.015L 73.8915,314.015L 73.8915,313.375 Z M 84.5581,313.375L 89.8915,313.375L 89.8915,314.015L 84.5581,314.015L 84.5581,313.375 Z M 95.2248,313.375L 100.558,313.375L 100.558,314.015L 95.2248,314.015L 95.2248,313.375 Z M 105.891,313.375L 111.225,313.375L 111.225,314.015L 105.891,314.015L 105.891,313.375 Z M 116.558,313.375L 121.891,313.375L 121.891,314.015L 116.558,314.015L 116.558,313.375 Z M 127.225,313.376L 132.558,313.376L 132.558,314.016L 127.225,314.016L 127.225,313.376 Z M 137.891,313.376L 143.225,313.376L 143.225,314.016L 137.891,314.016L 137.891,313.376 Z M 148.558,313.376L 153.891,313.376L 153.891,314.016L 148.558,314.016L 148.558,313.376 Z M 159.225,313.376L 164.558,313.376L 164.558,314.016L 159.225,314.016L 159.225,313.376 Z M 169.891,313.376L 175.225,313.376L 175.225,314.016L 169.891,314.016L 169.891,313.376 Z M 180.558,313.376L 185.891,313.377L 185.891,314.017L 180.558,314.016L 180.558,313.376 Z M 191.225,313.377L 196.558,313.377L 196.558,314.017L 191.225,314.017L 191.225,313.377 Z M 201.891,313.377L 207.225,313.377L 207.225,314.017L 201.891,314.017L 201.891,313.377 Z M 212.558,313.377L 217.891,313.377L 217.891,314.017L 212.558,314.017L 212.558,313.377 Z M 223.225,313.377L 228.558,313.377L 228.558,314.017L 223.225,314.017L 223.225,313.377 Z M 233.891,313.377L 239.225,313.378L 239.225,314.018L 233.891,314.017L 233.891,313.377 Z M 244.558,313.378L 249.891,313.378L 249.891,314.018L 244.558,314.018L 244.558,313.378 Z M 20.5581,313.374L 25.8915,313.374L 25.8915,314.014L 20.5581,314.014L 20.5581,313.374 Z "/>
	<path fill="#000000" fill-opacity="1" stroke-width="0.2" stroke-linejoin="round" d="M 18.0526,14.2224L 20.3255,12.2175L 22.409,14.2133L 20.223,8.44496L 18.0526,14.2224 Z "/>
	<path fill="#000000" fill-opacity="1" stroke-width="0.2" stroke-linejoin="round" d="M 300.997,325.732L 302.974,328.03L 300.952,330.088L 306.747,327.975L 300.997,325.732 Z "/>
	<line fill="none" stroke-width="0.64" stroke-linejoin="round" stroke="#989898" stroke-opacity="1" x1="252.079" y1="17.3728" x2="252.079" y2="429.919"/>
	<line fill="none" stroke-width="0.64" stroke-linejoin="round" stroke="#989898" stroke-opacity="1" x1="34.8827" y1="17.3632" x2="34.8827" y2="429.909"/>
	<ellipse fill="none" stroke-width="0.64" stroke-linejoin="round" stroke="#989898" stroke-opacity="1" cx="150.838" cy="125.066" rx="101.245" ry="101.245"/>
	<text transform="matrix(0.9999998807907103 0.0000000000000000 0.0000000000000000 0.9999998807907103 217.00 37.00)" xml:space="preserve">
		<tspan style=" font-family:Segoe UI; font-size:10.000000pt;" letter-spacing="0.00em" fill="#000000" fill-opacity="1" stroke-width="0.32" stroke-linejoin="round">V4</tspan>
	</text>
	<path fill="#FFC800" fill-opacity="1" stroke-width="0.32" stroke-linejoin="round" d="M 49.247,317.006L 49.247,311.673L 49.887,311.673L 49.887,317.006L 49.247,317.006 Z M 49.247,306.34L 49.247,301.006L 49.887,301.006L 49.887,306.34L 49.247,306.34 Z M 49.247,295.673L 49.247,290.34L 49.887,290.34L 49.887,295.673L 49.247,295.673 Z M 49.247,285.006L 49.247,279.673L 49.887,279.673L 49.887,285.006L 49.247,285.006 Z M 49.247,274.34L 49.247,269.006L 49.887,269.006L 49.887,274.34L 49.247,274.34 Z M 49.247,263.673L 49.247,258.34L 49.887,258.34L 49.887,263.673L 49.247,263.673 Z M 49.247,253.006L 49.247,247.673L 49.887,247.673L 49.887,253.006L 49.247,253.006 Z M 49.247,242.34L 49.247,237.006L 49.887,237.006L 49.887,242.34L 49.247,242.34 Z M 49.247,231.673L 49.247,226.34L 49.887,226.34L 49.887,231.673L 49.247,231.673 Z M 49.247,221.006L 49.247,215.673L 49.887,215.673L 49.887,221.006L 49.247,221.006 Z M 49.247,210.34L 49.247,205.006L 49.887,205.006L 49.887,210.34L 49.247,210.34 Z M 49.247,199.673L 49.247,194.34L 49.887,194.34L 49.887,199.673L 49.247,199.673 Z M 49.247,189.006L 49.247,183.673L 49.887,183.673L 49.887,189.006L 49.247,189.006 Z M 49.247,178.34L 49.247,173.006L 49.887,173.006L 49.887,178.34L 49.247,178.34 Z M 49.247,167.673L 49.247,162.34L 49.887,162.34L 49.887,167.673L 49.247,167.673 Z M 49.247,157.006L 49.247,151.673L 49.887,151.673L 49.887,157.006L 49.247,157.006 Z M 49.247,146.34L 49.247,141.006L 49.887,141.006L 49.887,146.34L 49.247,146.34 Z M 49.247,135.673L 49.247,130.34L 49.887,130.34L 49.887,135.673L 49.247,135.673 Z M 49.247,125.006L 49.247,123.447L 49.887,123.447L 49.887,125.006L 49.247,125.006 Z M 49.247,327.673L 49.247,322.34L 49.887,322.34L 49.887,327.673L 49.247,327.673 Z "/>
	<text transform="matrix(0.9999998807907103 0.0000000000000000 0.0000000000000000 0.9999998807907103 39.00 9.00)" xml:space="preserve">
		<tspan style=" font-family:Segoe UI; font-size:10.000000pt;" letter-spacing="0.00em" fill="#000000" fill-opacity="1" stroke-width="0.32" stroke-linejoin="round">V1</tspan>
	</text>
	<path fill="none" stroke-width="0.64" stroke-linejoin="round" stroke="#000000" stroke-opacity="1" d="M 10.0117,328.006L 278.032,328.006L 281.819,334.394L 286.939,323.194L 290.459,328.006L 305.212,328.006"/>
	<line fill="none" stroke-width="0.64" stroke-linejoin="round" stroke="#000000" stroke-opacity="1" x1="20.3262" y1="438.036" x2="20.3268" y2="10.8361"/>
	<text transform="matrix(1.0000000000000000 0.0000000000000000 0.0000000000000000 1.0000000000000000 310.00 341.00)" xml:space="preserve">
		<tspan style=" font-family:Segoe UI; font-size:10.000000pt;" letter-spacing="0.00em" fill="#000000" fill-opacity="1" stroke-width="0.32" stroke-linejoin="round">x</tspan>
	</text>
	<text transform="matrix(0.9999999403953552 0.0000000000000000 0.0000000000000000 0.9999999403953552 5.00 6.00)" xml:space="preserve">
		<tspan style=" font-family:Segoe UI; font-size:10.000000pt;" letter-spacing="0.00em" fill="#000000" fill-opacity="1" stroke-width="0.32" stroke-linejoin="round">y</tspan>
	</text>
	<text transform="matrix(0.9999998807907103 0.0000000000000000 0.0000000000000000 0.9999998807907103 0.00 128.00)" xml:space="preserve">
		<tspan style=" font-family:Segoe UI; font-size:10.000000pt;" letter-spacing="0.00em" fill="#000000" fill-opacity="1" stroke-width="0.32" stroke-linejoin="round">ty1</tspan>
	</text>
	<text transform="matrix(0.9999998807907103 0.0000000000000000 0.0000000000000000 0.9999998807907103 1.00 318.00)" xml:space="preserve">
		<tspan style=" font-family:Segoe UI; font-size:10.000000pt;" letter-spacing="0.00em" fill="#000000" fill-opacity="1" stroke-width="0.32" stroke-linejoin="round">ty2</tspan>
	</text>
	<text transform="matrix(0.9999998807907103 0.0000000000000000 0.0000000000000000 0.9999998807907103 24.00 343.00)" xml:space="preserve">
		<tspan style=" font-family:Segoe UI; font-size:10.000000pt;" letter-spacing="0.00em" fill="#000000" fill-opacity="1" stroke-width="0.32" stroke-linejoin="round">ty3</tspan>
	</text>
	<text transform="matrix(0.9999998807907103 0.0000000000000000 0.0000000000000000 0.9999998807907103 51.00 342.00)" xml:space="preserve">
		<tspan style=" font-family:Segoe UI; font-size:10.000000pt;" letter-spacing="0.00em" fill="#000000" fill-opacity="1" stroke-width="0.32" stroke-linejoin="round">ty4</tspan>
	</text>
	<text transform="matrix(0.9999998807907103 0.0000000000000000 0.0000000000000000 0.9999998807907103 256.00 343.00)" xml:space="preserve">
		<tspan style=" font-family:Segoe UI; font-size:10.000000pt;" letter-spacing="0.00em" fill="#000000" fill-opacity="1" stroke-width="0.32" stroke-linejoin="round">ty5</tspan>
	</text>
	<ellipse fill="none" stroke-width="0.64" stroke-linejoin="round" stroke="#989898" stroke-opacity="1" cx="143.467" cy="313.189" rx="108.541" ry="108.541"/>
	<line fill="none" stroke-width="0.64" stroke-linejoin="round" stroke="#000000" stroke-opacity="1" x1="34.8827" y1="123.803" x2="34.8827" y2="313.648"/>
	<path fill="#FFC800" fill-opacity="1" stroke-width="0.32" stroke-linejoin="round" d="M 31.2249,123.274L 36.5582,123.274L 36.5582,123.914L 31.2249,123.914L 31.2249,123.274 Z M 41.8915,123.274L 47.2249,123.274L 47.2249,123.914L 41.8915,123.914L 41.8915,123.274 Z M 52.5582,123.274L 57.8915,123.274L 57.8915,123.914L 52.5582,123.914L 52.5582,123.274 Z M 63.2249,123.274L 68.5582,123.274L 68.5582,123.914L 63.2249,123.914L 63.2249,123.274 Z M 73.8915,123.274L 79.2249,123.275L 79.2249,123.915L 73.8915,123.915L 73.8915,123.274 Z M 84.5582,123.275L 89.8915,123.275L 89.8915,123.915L 84.5582,123.915L 84.5582,123.275 Z M 95.2249,123.275L 100.558,123.275L 100.558,123.915L 95.2249,123.915L 95.2249,123.275 Z M 105.892,123.275L 111.225,123.275L 111.225,123.915L 105.892,123.915L 105.892,123.275 Z M 116.558,123.275L 121.892,123.275L 121.892,123.915L 116.558,123.915L 116.558,123.275 Z M 127.225,123.275L 132.558,123.275L 132.558,123.915L 127.225,123.915L 127.225,123.275 Z M 137.892,123.276L 143.225,123.276L 143.225,123.916L 137.892,123.915L 137.892,123.276 Z M 148.558,123.276L 153.892,123.276L 153.892,123.916L 148.558,123.916L 148.558,123.276 Z M 159.225,123.276L 164.558,123.276L 164.558,123.916L 159.225,123.916L 159.225,123.276 Z M 169.892,123.276L 175.225,123.276L 175.225,123.916L 169.892,123.916L 169.892,123.276 Z M 180.558,123.276L 185.892,123.276L 185.892,123.916L 180.558,123.916L 180.558,123.276 Z M 191.225,123.276L 196.558,123.276L 196.558,123.916L 191.225,123.916L 191.225,123.276 Z M 201.892,123.277L 207.225,123.277L 207.225,123.917L 201.892,123.917L 201.892,123.277 Z M 212.558,123.277L 217.892,123.277L 217.892,123.917L 212.558,123.917L 212.558,123.277 Z M 223.225,123.277L 228.558,123.277L 228.558,123.917L 223.225,123.917L 223.225,123.277 Z M 233.892,123.277L 239.225,123.277L 239.225,123.917L 233.892,123.917L 233.892,123.277 Z M 244.558,123.277L 249.892,123.277L 249.892,123.917L 244.558,123.917L 244.558,123.277 Z M 20.5582,123.274L 25.8915,123.274L 25.8915,123.914L 20.5582,123.914L 20.5582,123.274 Z "/>
	<path fill="none" stroke-width="0.64" stroke-linejoin="round" stroke="#000000" stroke-opacity="1" d="M 252.008,313.189C 252.008,373.134 203.413,421.73 143.467,421.73C 83.5218,421.73 34.9263,373.134 34.9263,313.189"/>
	<path fill="#FFC800" fill-opacity="1" stroke-width="0.32" stroke-linejoin="round" d="M 34.5615,317.02L 34.5614,314.375L 35.2014,314.375L 35.2015,317.02L 34.5615,317.02 Z M 34.5616,327.687L 34.5615,322.354L 35.2015,322.354L 35.2016,327.687L 34.5616,327.687 Z "/>
	<path fill="none" stroke-width="0.64" stroke-linejoin="round" stroke="#000000" stroke-opacity="1" d="M 49.5931,125.066C 49.5931,69.1502 94.9222,23.8211 150.838,23.8211C 206.754,23.8211 252.083,69.1502 252.083,125.066"/>
	<path fill="#FFC800" fill-opacity="1" stroke-width="0.2" stroke-linejoin="round" d="M 49.5098,122.465C 50.0234,122.465 50.4398,122.881 50.4398,123.395C 50.4398,123.909 50.0234,124.325 49.5098,124.325C 48.9962,124.325 48.5798,123.909 48.5798,123.395C 48.5798,122.881 48.9962,122.465 49.5098,122.465 Z "/>
	<path fill="#FFC800" fill-opacity="1" stroke-width="0.2" stroke-linejoin="round" d="M 34.9047,312.77C 35.4184,312.77 35.8348,313.186 35.8348,313.7C 35.8348,314.214 35.4184,314.63 34.9047,314.63C 34.3911,314.63 33.9748,314.214 33.9748,313.7C 33.9748,313.186 34.3911,312.77 34.9047,312.77 Z "/>
	<text transform="matrix(0.9999998807907103 0.0000000000000000 0.0000000000000000 0.9999998807907103 210.00 417.00)" xml:space="preserve">
		<tspan style=" font-family:Segoe UI; font-size:10.000000pt;" letter-spacing="0.00em" fill="#000000" fill-opacity="1" stroke-width="0.32" stroke-linejoin="round">V2</tspan>
	</text>
	<text transform="matrix(0.9999998807907103 0.0000000000000000 0.0000000000000000 0.9999998807907103 256.00 10.00)" xml:space="preserve">
		<tspan style=" font-family:Segoe UI; font-size:10.000000pt;" letter-spacing="0.00em" fill="#000000" fill-opacity="1" stroke-width="0.32" stroke-linejoin="round">V3</tspan>
	</text>
	<path fill="#FFC800" fill-opacity="1" stroke-width="0.32" stroke-linejoin="round" d="M 251.754,317.024L 251.752,311.691L 252.392,311.691L 252.394,317.024L 251.754,317.024 Z M 251.749,306.358L 251.746,301.024L 252.386,301.024L 252.389,306.357L 251.749,306.358 Z M 251.744,295.691L 251.741,290.358L 252.381,290.357L 252.384,295.691L 251.744,295.691 Z M 251.739,285.024L 251.736,279.691L 252.376,279.691L 252.379,285.024L 251.739,285.024 Z M 251.733,274.358L 251.731,269.024L 252.371,269.024L 252.373,274.357L 251.733,274.358 Z M 251.728,263.691L 251.725,258.358L 252.365,258.357L 252.368,263.691L 251.728,263.691 Z M 251.723,253.024L 251.72,247.691L 252.36,247.691L 252.363,253.024L 251.723,253.024 Z M 251.718,242.358L 251.715,237.024L 252.355,237.024L 252.358,242.357L 251.718,242.358 Z M 251.712,231.691L 251.71,226.358L 252.35,226.357L 252.352,231.691L 251.712,231.691 Z M 251.707,221.024L 251.705,215.691L 252.345,215.691L 252.347,221.024L 251.707,221.024 Z M 251.702,210.358L 251.699,205.024L 252.339,205.024L 252.342,210.357L 251.702,210.358 Z M 251.697,199.691L 251.694,194.358L 252.334,194.357L 252.337,199.691L 251.697,199.691 Z M 251.692,189.024L 251.689,183.691L 252.329,183.691L 252.332,189.024L 251.692,189.024 Z M 251.686,178.358L 251.684,173.024L 252.324,173.024L 252.326,178.357L 251.686,178.358 Z M 251.681,167.691L 251.679,162.358L 252.319,162.357L 252.321,167.691L 251.681,167.691 Z M 251.676,157.024L 251.673,151.691L 252.313,151.691L 252.316,157.024L 251.676,157.024 Z M 251.671,146.358L 251.668,141.024L 252.308,141.024L 252.311,146.357L 251.671,146.358 Z M 251.665,135.691L 251.663,130.358L 252.303,130.357L 252.305,135.691L 251.665,135.691 Z M 251.66,125.024L 251.66,123.465L 252.299,123.465L 252.3,125.024L 251.66,125.024 Z M 251.759,327.691L 251.757,322.358L 252.397,322.357L 252.399,327.691L 251.759,327.691 Z "/>
	<line fill="none" stroke-width="0.64" stroke-linejoin="round" stroke="#000000" stroke-opacity="1" x1="252.079" y1="123.797" x2="252.079" y2="313.642"/>
	<path fill="#FFC800" fill-opacity="1" stroke-width="0.2" stroke-linejoin="round" d="M 252.04,122.442C 252.553,122.442 252.97,122.858 252.97,123.372C 252.97,123.885 252.553,124.302 252.04,124.302C 251.526,124.302 251.11,123.885 251.11,123.372C 251.11,122.858 251.526,122.442 252.04,122.442 Z "/>
	<path fill="#FFC800" fill-opacity="1" stroke-width="0.2" stroke-linejoin="round" d="M 251.935,312.747C 252.448,312.747 252.865,313.163 252.865,313.677C 252.865,314.19 252.448,314.607 251.935,314.607C 251.421,314.607 251.005,314.19 251.005,313.677C 251.005,313.163 251.421,312.747 251.935,312.747 Z "/>
</svg>
