<?xml version="1.0" encoding="utf-8"?>
<!DOCTYPE svg PUBLIC "-//W3C//DTD SVG 1.1//EN" "http://www.w3.org/Graphics/SVG/1.1/DTD/svg11.dtd">
<svg xmlns="http://www.w3.org/2000/svg" xmlns:xlink="http://www.w3.org/1999/xlink" version="1.1" baseProfile="full" width="373.629" height="192.433" viewBox="0 0 373.63 192.43" enable-background="new 0 0 373.63 192.43" xml:space="preserve">
	<rect x="87.8254" y="28.6703" fill="#ECECEC" fill-opacity="1" stroke-width="0.64" stroke-linejoin="round" width="199.19" height="113.126"/>
	<line fill="none" stroke-width="0.64" stroke-linejoin="round" stroke="#000000" stroke-opacity="1" x1="81.2745" y1="114.443" x2="220.918" y2="22.5329"/>
	<line fill="none" stroke-width="0.64" stroke-linejoin="round" stroke="#000000" stroke-opacity="1" x1="81.2745" y1="110.443" x2="214.84" y2="22.5329"/>
	<line fill="none" stroke-width="0.64" stroke-linejoin="round" stroke="#000000" stroke-opacity="1" x1="81.2745" y1="106.443" x2="208.763" y2="22.5329"/>
	<line fill="none" stroke-width="0.64" stroke-linejoin="round" stroke="#000000" stroke-opacity="1" x1="81.2745" y1="102.443" x2="202.685" y2="22.5329"/>
	<line fill="none" stroke-width="0.64" stroke-linejoin="round" stroke="#000000" stroke-opacity="1" x1="81.2745" y1="126.443" x2="239.15" y2="22.5329"/>
	<line fill="none" stroke-width="0.64" stroke-linejoin="round" stroke="#000000" stroke-opacity="1" x1="81.2745" y1="130.443" x2="245.227" y2="22.5329"/>
	<line fill="none" stroke-width="0.64" stroke-linejoin="round" stroke="#000000" stroke-opacity="1" x1="81.2745" y1="134.443" x2="251.305" y2="22.5329"/>
	<line fill="none" stroke-width="0.64" stroke-linejoin="round" stroke="#000000" stroke-opacity="1" x1="81.2745" y1="138.443" x2="257.382" y2="22.5329"/>
	<line fill="none" stroke-width="0.64" stroke-linejoin="round" stroke="#000000" stroke-opacity="1" x1="81.2745" y1="98.4426" x2="196.608" y2="22.5329"/>
	<line fill="none" stroke-width="0.64" stroke-linejoin="round" stroke="#000000" stroke-opacity="1" x1="81.2745" y1="94.4426" x2="190.531" y2="22.5329"/>
	<line fill="none" stroke-width="0.64" stroke-linejoin="round" stroke="#000000" stroke-opacity="1" x1="81.2745" y1="90.4426" x2="184.453" y2="22.5329"/>
	<line fill="none" stroke-width="0.64" stroke-linejoin="round" stroke="#000000" stroke-opacity="1" x1="81.2745" y1="86.4426" x2="178.376" y2="22.5329"/>
	<line fill="none" stroke-width="0.64" stroke-linejoin="round" stroke="#000000" stroke-opacity="1" x1="81.2745" y1="118.443" x2="226.995" y2="22.5329"/>
	<line fill="none" stroke-width="0.64" stroke-linejoin="round" stroke="#000000" stroke-opacity="1" x1="81.2745" y1="122.443" x2="233.072" y2="22.5329"/>
	<line fill="none" stroke-width="0.64" stroke-linejoin="round" stroke="#000000" stroke-opacity="1" x1="81.2745" y1="54.962" x2="130.546" y2="22.5329"/>
	<line fill="none" stroke-width="0.64" stroke-linejoin="round" stroke="#000000" stroke-opacity="1" x1="81.2745" y1="50.962" x2="124.468" y2="22.5329"/>
	<line fill="none" stroke-width="0.64" stroke-linejoin="round" stroke="#000000" stroke-opacity="1" x1="81.2745" y1="46.962" x2="118.391" y2="22.5329"/>
	<line fill="none" stroke-width="0.64" stroke-linejoin="round" stroke="#000000" stroke-opacity="1" x1="81.2745" y1="42.962" x2="112.313" y2="22.5329"/>
	<line fill="none" stroke-width="0.64" stroke-linejoin="round" stroke="#000000" stroke-opacity="1" x1="81.2745" y1="66.962" x2="148.778" y2="22.5329"/>
	<line fill="none" stroke-width="0.64" stroke-linejoin="round" stroke="#000000" stroke-opacity="1" x1="81.2745" y1="70.962" x2="154.855" y2="22.5329"/>
	<line fill="none" stroke-width="0.64" stroke-linejoin="round" stroke="#000000" stroke-opacity="1" x1="81.2745" y1="74.962" x2="160.933" y2="22.5329"/>
	<line fill="none" stroke-width="0.64" stroke-linejoin="round" stroke="#000000" stroke-opacity="1" x1="81.2745" y1="78.962" x2="167.01" y2="22.5329"/>
	<line fill="none" stroke-width="0.64" stroke-linejoin="round" stroke="#000000" stroke-opacity="1" x1="81.2745" y1="82.4426" x2="172.298" y2="22.5329"/>
	<line fill="none" stroke-width="0.64" stroke-linejoin="round" stroke="#000000" stroke-opacity="1" x1="81.2745" y1="38.962" x2="106.236" y2="22.5329"/>
	<line fill="none" stroke-width="0.64" stroke-linejoin="round" stroke="#000000" stroke-opacity="1" x1="81.2745" y1="34.962" x2="100.159" y2="22.5329"/>
	<line fill="none" stroke-width="0.64" stroke-linejoin="round" stroke="#000000" stroke-opacity="1" x1="136.623" y1="22.5329" x2="81.2745" y2="58.962"/>
	<line fill="none" stroke-width="0.64" stroke-linejoin="round" stroke="#000000" stroke-opacity="1" x1="81.2745" y1="62.962" x2="142.7" y2="22.5329"/>
	<line fill="none" stroke-width="0.64" stroke-linejoin="round" stroke="#000000" stroke-opacity="1" x1="123.01" y1="147.492" x2="292.944" y2="35.6462"/>
	<line fill="none" stroke-width="0.64" stroke-linejoin="round" stroke="#000000" stroke-opacity="1" x1="116.933" y1="147.492" x2="292.944" y2="31.6462"/>
	<line fill="none" stroke-width="0.64" stroke-linejoin="round" stroke="#000000" stroke-opacity="1" x1="110.856" y1="147.492" x2="292.944" y2="27.6462"/>
	<line fill="none" stroke-width="0.64" stroke-linejoin="round" stroke="#000000" stroke-opacity="1" x1="141.243" y1="147.492" x2="292.944" y2="47.6462"/>
	<line fill="none" stroke-width="0.64" stroke-linejoin="round" stroke="#000000" stroke-opacity="1" x1="147.32" y1="147.492" x2="292.944" y2="51.6462"/>
	<line fill="none" stroke-width="0.64" stroke-linejoin="round" stroke="#000000" stroke-opacity="1" x1="153.397" y1="147.492" x2="292.944" y2="55.6462"/>
	<line fill="none" stroke-width="0.64" stroke-linejoin="round" stroke="#000000" stroke-opacity="1" x1="159.475" y1="147.492" x2="292.944" y2="59.6462"/>
	<line fill="none" stroke-width="0.64" stroke-linejoin="round" stroke="#000000" stroke-opacity="1" x1="98.7008" y1="147.492" x2="288.558" y2="22.5329"/>
	<line fill="none" stroke-width="0.64" stroke-linejoin="round" stroke="#000000" stroke-opacity="1" x1="92.6234" y1="147.492" x2="282.481" y2="22.5329"/>
	<line fill="none" stroke-width="0.64" stroke-linejoin="round" stroke="#000000" stroke-opacity="1" x1="81.2745" y1="142.962" x2="264.249" y2="22.5329"/>
	<line fill="none" stroke-width="0.64" stroke-linejoin="round" stroke="#000000" stroke-opacity="1" x1="81.2745" y1="146.962" x2="270.326" y2="22.5329"/>
	<line fill="none" stroke-width="0.64" stroke-linejoin="round" stroke="#000000" stroke-opacity="1" x1="129.088" y1="147.492" x2="292.944" y2="39.6462"/>
	<line fill="none" stroke-width="0.64" stroke-linejoin="round" stroke="#000000" stroke-opacity="1" x1="135.165" y1="147.492" x2="292.944" y2="43.6462"/>
	<line fill="none" stroke-width="0.64" stroke-linejoin="round" stroke="#000000" stroke-opacity="1" x1="274.946" y1="147.492" x2="292.944" y2="135.646"/>
	<line fill="none" stroke-width="0.64" stroke-linejoin="round" stroke="#000000" stroke-opacity="1" x1="268.868" y1="147.492" x2="292.944" y2="131.646"/>
	<line fill="none" stroke-width="0.64" stroke-linejoin="round" stroke="#000000" stroke-opacity="1" x1="262.791" y1="147.492" x2="292.944" y2="127.646"/>
	<line fill="none" stroke-width="0.64" stroke-linejoin="round" stroke="#000000" stroke-opacity="1" x1="214.171" y1="147.492" x2="292.944" y2="95.6462"/>
	<line fill="none" stroke-width="0.64" stroke-linejoin="round" stroke="#000000" stroke-opacity="1" x1="208.094" y1="147.492" x2="292.944" y2="91.6462"/>
	<line fill="none" stroke-width="0.64" stroke-linejoin="round" stroke="#000000" stroke-opacity="1" x1="202.017" y1="147.492" x2="292.944" y2="87.6462"/>
	<line fill="none" stroke-width="0.64" stroke-linejoin="round" stroke="#000000" stroke-opacity="1" x1="195.939" y1="147.492" x2="292.944" y2="83.6462"/>
	<line fill="none" stroke-width="0.64" stroke-linejoin="round" stroke="#000000" stroke-opacity="1" x1="232.404" y1="147.492" x2="292.944" y2="107.646"/>
	<line fill="none" stroke-width="0.64" stroke-linejoin="round" stroke="#000000" stroke-opacity="1" x1="238.481" y1="147.492" x2="292.944" y2="111.646"/>
	<line fill="none" stroke-width="0.64" stroke-linejoin="round" stroke="#000000" stroke-opacity="1" x1="244.559" y1="147.492" x2="292.944" y2="115.646"/>
	<line fill="none" stroke-width="0.64" stroke-linejoin="round" stroke="#000000" stroke-opacity="1" x1="250.636" y1="147.492" x2="292.944" y2="119.646"/>
	<line fill="none" stroke-width="0.64" stroke-linejoin="round" stroke="#000000" stroke-opacity="1" x1="256.713" y1="147.492" x2="292.944" y2="123.646"/>
	<line fill="none" stroke-width="0.64" stroke-linejoin="round" stroke="#000000" stroke-opacity="1" x1="189.862" y1="147.492" x2="292.944" y2="79.6462"/>
	<line fill="none" stroke-width="0.64" stroke-linejoin="round" stroke="#000000" stroke-opacity="1" x1="183.784" y1="147.492" x2="292.944" y2="75.6462"/>
	<line fill="none" stroke-width="0.64" stroke-linejoin="round" stroke="#000000" stroke-opacity="1" x1="177.707" y1="147.492" x2="292.944" y2="71.6462"/>
	<line fill="none" stroke-width="0.64" stroke-linejoin="round" stroke="#000000" stroke-opacity="1" x1="165.552" y1="147.492" x2="292.944" y2="63.6462"/>
	<line fill="none" stroke-width="0.64" stroke-linejoin="round" stroke="#000000" stroke-opacity="1" x1="171.63" y1="147.492" x2="292.944" y2="67.6462"/>
	<line fill="none" stroke-width="0.64" stroke-linejoin="round" stroke="#000000" stroke-opacity="1" x1="220.249" y1="147.492" x2="292.944" y2="99.6462"/>
	<line fill="none" stroke-width="0.64" stroke-linejoin="round" stroke="#000000" stroke-opacity="1" x1="226.326" y1="147.492" x2="292.944" y2="103.646"/>
	<line fill="none" stroke-width="0.64" stroke-linejoin="round" stroke="#000000" stroke-opacity="1" x1="86.546" y1="147.492" x2="276.403" y2="22.5329"/>
	<line fill="none" stroke-width="0.64" stroke-linejoin="round" stroke="#000000" stroke-opacity="1" x1="104.778" y1="147.492" x2="292.944" y2="23.6462"/>
	<path fill="#FFFFFF" fill-opacity="1" fill-rule="evenodd" stroke-width="0.64" stroke-linejoin="round" d="M 96.8091,15.9084L 296.154,19.5982L 294.828,139.182L 246.658,53.9253L 94.4984,22.9653L 96.8091,15.9084 Z "/>
	<path fill="#FFFFFF" fill-opacity="1" stroke-width="0.64" stroke-linejoin="round" stroke="#000000" stroke-opacity="1" d="M 87.8254,28.6703L 240.411,59.6693L 287.016,141.796L 87.8254,141.796L 87.8254,28.6703 Z "/>
	<path fill="#000000" fill-opacity="1" stroke-width="0.2" stroke-linejoin="round" d="M 40.2846,16.3558L 42.5576,14.3509L 44.641,16.3467L 42.4551,10.5783L 40.2846,16.3558 Z "/>
	<path fill="#000000" fill-opacity="1" stroke-width="0.2" stroke-linejoin="round" d="M 311.23,168.865L 313.206,171.163L 311.184,173.221L 316.979,171.108L 311.23,168.865 Z "/>
	<line fill="none" stroke-width="0.640004" stroke-linejoin="round" stroke="#000000" stroke-opacity="1" x1="33.7496" y1="171.139" x2="314.874" y2="171.139"/>
	<line fill="none" stroke-width="0.640004" stroke-linejoin="round" stroke="#000000" stroke-opacity="1" x1="42.5583" y1="179.17" x2="42.5588" y2="12.9691"/>
	<text transform="matrix(1.0000000000000000 0.0000000000000000 0.0000000000000000 1.0000000000000000 314.00 185.00)" xml:space="preserve">
		<tspan style=" font-family:Segoe UI; font-size:10.000000pt;" letter-spacing="0.00em" fill="#000000" fill-opacity="1" stroke-width="0.2" stroke-linejoin="round" stroke="#000000" stroke-opacity="1">flight time</tspan>
	</text>
	<text transform="matrix(1.0000000000000000 0.0000000000000000 0.0000000000000000 1.0000000000000000 0.00 6.00)" xml:space="preserve">
		<tspan style=" font-family:Segoe UI; font-size:10.000000pt;" letter-spacing="0.00em" fill="#000000" fill-opacity="1" stroke-width="0.2" stroke-linejoin="round">energy</tspan>
	</text>
	<path fill="#FFC800" fill-opacity="1" stroke-width="0.2" stroke-linejoin="round" d="M 87.9715,140.777C 88.4851,140.777 88.9015,141.194 88.9015,141.707C 88.9015,142.221 88.4851,142.637 87.9715,142.637C 87.4579,142.637 87.0415,142.221 87.0415,141.707C 87.0415,141.194 87.4579,140.777 87.9715,140.777 Z "/>
	<text transform="matrix(1.0000000000000000 0.0000000000000000 0.0000000000000000 1.0000000000000000 99.00 135.00)" xml:space="preserve">
		<tspan style=" font-family:Segoe UI; font-size:10.000000pt;" letter-spacing="0.00em" fill="#000000" fill-opacity="1" stroke-width="0.32" stroke-linejoin="round">c2</tspan>
	</text>
	<path fill="#FFC800" fill-opacity="1" stroke-width="0.2" stroke-linejoin="round" d="M 87.9182,27.6612C 88.4318,27.6612 88.8482,28.0775 88.8482,28.5912C 88.8482,29.1048 88.4318,29.5211 87.9182,29.5211C 87.4046,29.5211 86.9882,29.1048 86.9882,28.5912C 86.9882,28.0775 87.4046,27.6612 87.9182,27.6612 Z "/>
	<path fill="#FFC800" fill-opacity="1" stroke-width="0.2" stroke-linejoin="round" d="M 287.131,140.834C 287.645,140.834 288.061,141.251 288.061,141.764C 288.061,142.278 287.645,142.694 287.131,142.694C 286.618,142.694 286.201,142.278 286.201,141.764C 286.201,141.251 286.618,140.834 287.131,140.834 Z "/>
	<text transform="matrix(1.0000000000000000 0.0000000000000000 0.0000000000000000 1.0000000000000000 99.00 46.00)" xml:space="preserve">
		<tspan style=" font-family:Segoe UI; font-size:10.000000pt;" letter-spacing="0.00em" fill="#000000" fill-opacity="1" stroke-width="0.32" stroke-linejoin="round">c3</tspan>
	</text>
	<path fill="#FFC800" fill-opacity="1" stroke-width="0.32" stroke-linejoin="round" d="M 53.5716,28.359L 58.9049,28.3592L 58.9049,28.9991L 53.5716,28.999L 53.5716,28.359 Z M 64.2383,28.3593L 69.5716,28.3595L 69.5716,28.9994L 64.2383,28.9992L 64.2383,28.3593 Z M 74.9049,28.3596L 80.2383,28.3597L 80.2383,28.9997L 74.9049,28.9995L 74.9049,28.3596 Z M 85.5716,28.3598L 87.2945,28.3599L 87.2945,28.9998L 85.5716,28.9998L 85.5716,28.3598 Z M 42.9049,28.3587L 48.2383,28.3589L 48.2382,28.9989L 42.9049,28.9987L 42.9049,28.3587 Z "/>
	<path fill="#FFC800" fill-opacity="1" stroke-width="0.32" stroke-linejoin="round" d="M 53.5475,141.418L 58.8808,141.418L 58.8808,142.058L 53.5475,142.058L 53.5475,141.418 Z M 64.2141,141.418L 69.5475,141.419L 69.5475,142.059L 64.2141,142.058L 64.2141,141.418 Z M 74.8808,141.419L 80.2141,141.419L 80.2141,142.059L 74.8808,142.059L 74.8808,141.419 Z M 85.5475,141.419L 87.3422,141.419L 87.3422,142.059L 85.5475,142.059L 85.5475,141.419 Z M 42.8808,141.418L 48.2141,141.418L 48.2141,142.058L 42.8808,142.058L 42.8808,141.418 Z "/>
	<path fill="#FFC800" fill-opacity="1" stroke-width="0.32" stroke-linejoin="round" d="M 87.6389,160.144L 87.6391,154.811L 88.2791,154.811L 88.2789,160.144L 87.6389,160.144 Z M 87.6394,149.478L 87.6396,144.144L 88.2796,144.144L 88.2794,149.478L 87.6394,149.478 Z M 87.6385,170.811L 87.6387,165.478L 88.2787,165.478L 88.2785,170.811L 87.6385,170.811 Z "/>
	<path fill="#FFC800" fill-opacity="1" stroke-width="0.32" stroke-linejoin="round" d="M 286.728,160.086L 286.728,154.753L 287.368,154.753L 287.368,160.086L 286.728,160.086 Z M 286.728,149.419L 286.728,144.086L 287.368,144.086L 287.368,149.419L 286.728,149.419 Z M 286.727,170.753L 286.728,165.419L 287.368,165.419L 287.367,170.753L 286.727,170.753 Z "/>
	<text transform="matrix(0.9999999403953552 0.0000000000000000 0.0000000000000000 0.9999999403953552 3.00 144.00)" xml:space="preserve">
		<tspan style=" font-family:Segoe UI; font-size:10.000000pt;" letter-spacing="0.00em" fill="#000000" fill-opacity="1" stroke-width="0.32" stroke-linejoin="round">c2y</tspan>
	</text>
	<text transform="matrix(0.9999998807907103 0.0000000000000000 0.0000000000000000 0.9999998807907103 74.00 192.00)" xml:space="preserve">
		<tspan style=" font-family:Segoe UI; font-size:10.000000pt;" letter-spacing="0.00em" fill="#000000" fill-opacity="1" stroke-width="0.32" stroke-linejoin="round">c2x</tspan>
	</text>
	<text transform="matrix(0.9999998807907103 0.0000000000000000 0.0000000000000000 0.9999998807907103 273.00 192.00)" xml:space="preserve">
		<tspan style=" font-family:Segoe UI; font-size:10.000000pt;" letter-spacing="0.00em" fill="#000000" fill-opacity="1" stroke-width="0.32" stroke-linejoin="round">c4x</tspan>
	</text>
	<text transform="matrix(0.9999999403953552 0.0000000000000000 0.0000000000000000 0.9999999403953552 3.00 31.00)" xml:space="preserve">
		<tspan style=" font-family:Segoe UI; font-size:10.000000pt;" letter-spacing="0.00em" fill="#000000" fill-opacity="1" stroke-width="0.32" stroke-linejoin="round">c3y</tspan>
	</text>
	<text transform="matrix(1.0000000000000000 0.0000000000000000 0.0000000000000000 1.0000000000000000 164.00 99.00)" xml:space="preserve">
		<tspan style=" font-family:Segoe UI; font-size:10.000000pt;" letter-spacing="0.00em" fill="#000000" fill-opacity="1" stroke-width="0.32" stroke-linejoin="round">C</tspan>
	</text>
	<path fill="#ECECEC" fill-opacity="1" fill-rule="evenodd" stroke-width="0.64" stroke-linejoin="round" d="M 271.411,28.5172L 286.877,28.5703L 287.019,125.361L 246.632,53.8773L 122.619,28.6772L 271.411,28.5172 Z "/>
	<path fill="#FFC800" fill-opacity="1" stroke-width="0.2" stroke-linejoin="round" d="M 240.412,58.7857C 240.926,58.7857 241.342,59.2021 241.342,59.7157C 241.342,60.2293 240.926,60.6457 240.412,60.6457C 239.899,60.6457 239.482,60.2293 239.482,59.7157C 239.482,59.2021 239.899,58.7857 240.412,58.7857 Z "/>
	<text transform="matrix(0.9999998807907103 0.0000000000000000 0.0000000000000000 0.9999998807907103 258.00 57.00)" xml:space="preserve">
		<tspan style=" font-family:Segoe UI; font-size:10.000000pt;" letter-spacing="0.00em" fill="#000000" fill-opacity="1" stroke-width="0.32" stroke-linejoin="round">c1</tspan>
	</text>
	<text transform="matrix(1.0000000000000000 0.0000000000000000 0.0000000000000000 1.0000000000000000 259.00 135.00)" xml:space="preserve">
		<tspan style=" font-family:Segoe UI; font-size:10.000000pt;" letter-spacing="0.00em" fill="#000000" fill-opacity="1" stroke-width="0.32" stroke-linejoin="round">c4</tspan>
	</text>
</svg>
