<?xml version="1.0" encoding="utf-8"?>
<!DOCTYPE svg PUBLIC "-//W3C//DTD SVG 1.1//EN" "http://www.w3.org/Graphics/SVG/1.1/DTD/svg11.dtd">
<svg xmlns="http://www.w3.org/2000/svg" xmlns:xlink="http://www.w3.org/1999/xlink" version="1.1" baseProfile="full" width="403.2" height="302.4" viewBox="0 0 403.20 302.40" enable-background="new 0 0 403.20 302.40" xml:space="preserve">
	<path fill="#ECECEC" fill-opacity="0.501961" stroke-width="0.32" stroke-linejoin="round" d="M 0,247.759L 227.843,146.169L 403.2,150.15L 403.2,273.849L 0,247.759 Z "/>
	<line fill="none" stroke-width="0.64" stroke-linejoin="round" stroke="#000000" stroke-opacity="1" x1="19.6911" y1="244.564" x2="56.0711" y2="227.904"/>
	<path fill="none" stroke-width="0.64" stroke-linejoin="round" stroke="#000000" stroke-opacity="1" d="M 19.8503,205.903L 19.8504,244.644L 67.5301,247.157"/>
	<path fill="#000000" fill-opacity="1" stroke-width="0.2" stroke-linejoin="round" d="M 63.6,244.701L 65.5307,247.037L 63.4689,249.056L 69.3046,247.056L 63.6,244.701 Z "/>
	<path fill="#000000" fill-opacity="1" stroke-width="0.2" stroke-linejoin="round" d="M 52.513,227.135L 55.3596,228.176L 54.6,230.959L 58.626,226.286L 52.513,227.135 Z "/>
	<path fill="#000000" fill-opacity="1" stroke-width="0.2" stroke-linejoin="round" d="M 17.6441,209.558L 19.8958,207.53L 22.0002,209.503L 19.7535,203.758L 17.6441,209.558 Z "/>
	<text transform="matrix(0.9999998807907103 0.0000000000000000 0.0000000000000000 0.9999998807907103 13.00 257.00)" xml:space="preserve">
		<tspan style=" font-family:Segoe UI; font-size:10.000000pt;" letter-spacing="0.00em" fill="#000000" fill-opacity="1" stroke-width="0.32" stroke-linejoin="round">Ow</tspan>
	</text>
	<text transform="matrix(0.9999998807907103 0.0000000000000000 0.0000000000000000 0.9999998807907103 69.00 259.00)" xml:space="preserve">
		<tspan style=" font-family:Segoe UI; font-size:10.000000pt;" letter-spacing="0.00em" fill="#000000" fill-opacity="1" stroke-width="0.32" stroke-linejoin="round">x</tspan>
	</text>
	<text transform="matrix(0.9999998807907103 0.0000000000000000 0.0000000000000000 0.9999998807907103 50.00 220.00)" xml:space="preserve">
		<tspan style=" font-family:Segoe UI; font-size:10.000000pt;" letter-spacing="0.00em" fill="#000000" fill-opacity="1" stroke-width="0.32" stroke-linejoin="round">y</tspan>
	</text>
	<text transform="matrix(0.9999998807907103 0.0000000000000000 0.0000000000000000 0.9999998807907103 10.00 203.00)" xml:space="preserve">
		<tspan style=" font-family:Segoe UI; font-size:10.000000pt;" letter-spacing="0.00em" fill="#000000" fill-opacity="1" stroke-width="0.32" stroke-linejoin="round">z</tspan>
	</text>
</svg>
