<?xml version="1.0" encoding="utf-8"?>
<!DOCTYPE svg PUBLIC "-//W3C//DTD SVG 1.1//EN" "http://www.w3.org/Graphics/SVG/1.1/DTD/svg11.dtd">
<svg xmlns="http://www.w3.org/2000/svg" xmlns:xlink="http://www.w3.org/1999/xlink" version="1.1" baseProfile="full" width="384" height="325.483" viewBox="0 0 384.00 325.48" enable-background="new 0 0 384.00 325.48" xml:space="preserve">
	<path fill="#F5F5F5" fill-opacity="1" stroke-width="0.2" stroke-linejoin="round" d="M 49.4778,304.793C 49.4778,304.793 59.8838,312.489 61.2031,312.817C 70.4387,315.113 100.88,325.129 113.911,320.385C 113.911,320.385 128.5,319.757 145.034,312.787C 161.568,305.816 145.52,259.494 145.52,259.494C 145.52,259.494 142.162,253.056 134.147,241.332C 117.856,217.504 93.7304,210.865 93.7304,210.865C 93.7304,210.865 63.8068,187.881 25.8309,187.809C 25.8308,187.809 -22.5721,198.76 27.1148,283.808L 49.4778,304.793 Z "/>
	<path fill="#E4E4E4" fill-opacity="1" stroke-width="0.2" stroke-linejoin="round" d="M 127.585,194.528C 127.585,194.528 134.147,175.099 158.461,168.667C 182.776,162.236 231.405,165.373 280.034,151.647C 328.663,137.921 369.049,168.667 369.049,168.667C 369.049,168.667 406.979,216.59 336.467,259.494C 265.955,302.397 189.561,259.945 182.776,254C 175.991,248.054 138.074,250.144 129.784,235.179C 121.493,220.214 121.425,207.496 127.585,194.528 Z "/>
	<path fill="#006432" fill-opacity="1" stroke-width="0.2" stroke-linejoin="round" d="M 169.325,153.322C 169.325,153.322 214.385,166.482 231.405,160.286C 231.405,160.286 248.77,157.351 265.304,150.381C 281.838,143.411 280.034,102.437 280.034,102.437C 280.034,102.437 278.742,90.4098 280.034,76.2665C 282.449,49.8338 244.543,30.6534 244.543,30.6534C 244.543,30.6534 236.268,14.3982 134.147,38.7128C 134.147,38.7128 106.559,38.7128 123.093,135.971C 123.093,135.971 144.361,149.327 149.368,151.111C 154.375,152.894 169.083,153.135 169.325,153.322 Z "/>
	<path fill="#FFC800" fill-opacity="1" stroke-width="0.2" stroke-linejoin="round" d="M 319.549,240.66C 320.743,240.66 321.711,241.628 321.711,242.822C 321.711,244.016 320.743,244.984 319.549,244.984C 318.355,244.984 317.387,244.016 317.387,242.822C 317.387,241.628 318.355,240.66 319.549,240.66 Z "/>
	<path fill="#FFC800" fill-opacity="1" stroke-width="0.2" stroke-linejoin="round" d="M 269.076,214.84C 270.27,214.84 271.238,215.808 271.238,217.002C 271.238,218.196 270.27,219.164 269.076,219.164C 267.882,219.164 266.914,218.196 266.914,217.002C 266.914,215.808 267.882,214.84 269.076,214.84 Z "/>
	<path fill="#FFC800" fill-opacity="1" stroke-width="0.2" stroke-linejoin="round" d="M 208.493,224.7C 209.687,224.7 210.655,225.668 210.655,226.862C 210.655,228.056 209.687,229.024 208.493,229.024C 207.299,229.024 206.331,228.056 206.331,226.862C 206.331,225.668 207.299,224.7 208.493,224.7 Z "/>
	<path fill="#FFC800" fill-opacity="1" stroke-width="0.2" stroke-linejoin="round" d="M 201.735,224.7C 202.929,224.7 203.897,225.668 203.897,226.862C 203.897,228.056 202.929,229.024 201.735,229.024C 200.541,229.024 199.573,228.056 199.573,226.862C 199.573,225.668 200.541,224.7 201.735,224.7 Z "/>
	<path fill="#FFFFFF" fill-opacity="1" stroke-width="0.2" stroke-linejoin="round" d="M 231.438,85.7318C 232.632,85.7318 233.6,86.6998 233.6,87.8938C 233.6,89.0879 232.632,90.056 231.438,90.056C 230.244,90.056 229.276,89.0879 229.276,87.8938C 229.276,86.6998 230.244,85.7318 231.438,85.7318 Z "/>
	<path fill="#FFFFFF" fill-opacity="1" stroke-width="0.2" stroke-linejoin="round" d="M 196.744,73.3687C 197.938,73.3687 198.906,74.3367 198.906,75.5307C 198.906,76.7248 197.938,77.6928 196.744,77.6928C 195.55,77.6928 194.582,76.7248 194.582,75.5307C 194.582,74.3367 195.55,73.3687 196.744,73.3687 Z "/>
	<path fill="#FFFFFF" fill-opacity="1" stroke-width="0.2" stroke-linejoin="round" d="M 195.215,96.1679C 196.409,96.1679 197.377,97.1359 197.377,98.33C 197.377,99.524 196.409,100.492 195.215,100.492C 194.021,100.492 193.053,99.524 193.053,98.33C 193.053,97.1359 194.021,96.1679 195.215,96.1679 Z "/>
	<path fill="#FFFFFF" fill-opacity="1" stroke-width="0.2" stroke-linejoin="round" d="M 192.021,91.855C 193.215,91.855 194.183,92.823 194.183,94.0171C 194.183,95.2111 193.215,96.1791 192.021,96.1791C 190.827,96.1791 189.859,95.2111 189.859,94.0171C 189.859,92.823 190.827,91.855 192.021,91.855 Z "/>
	<path fill="#FFC800" fill-opacity="1" stroke-width="0.2" stroke-linejoin="round" d="M 77.3763,248.845C 78.5704,248.845 79.5384,249.813 79.5384,251.007C 79.5384,252.201 78.5704,253.169 77.3763,253.169C 76.1823,253.169 75.2143,252.201 75.2143,251.007C 75.2143,249.813 76.1823,248.845 77.3763,248.845 Z "/>
	<path fill="#FFC800" fill-opacity="1" stroke-width="0.2" stroke-linejoin="round" d="M 72.8985,245.046C 74.0925,245.046 75.0605,246.014 75.0605,247.208C 75.0605,248.402 74.0925,249.37 72.8985,249.37C 71.7044,249.37 70.7364,248.402 70.7364,247.208C 70.7364,246.014 71.7044,245.046 72.8985,245.046 Z "/>
	<path fill="#FFC800" fill-opacity="1" stroke-width="0.2" stroke-linejoin="round" d="M 19.1786,12.9659C 20.3727,12.9659 21.3407,13.9339 21.3407,15.128C 21.3407,16.3221 20.3727,17.2901 19.1786,17.2901C 17.9845,17.2901 17.0165,16.3221 17.0165,15.128C 17.0165,13.9339 17.9845,12.9659 19.1786,12.9659 Z "/>
	<path fill="#000000" fill-opacity="1" stroke-width="0.2" stroke-linejoin="round" d="M 320.576,257.098L 322.552,259.395L 320.53,261.453L 326.325,259.34L 320.576,257.098 Z "/>
	<path fill="#000000" fill-opacity="1" stroke-width="0.2" stroke-linejoin="round" d="M 180.746,21.4106L 183.018,19.4057L 185.102,21.4014L 182.916,15.6335L 180.746,21.4106 Z "/>
	<line fill="none" stroke-width="0.640004" stroke-linejoin="round" stroke="#000000" stroke-opacity="1" x1="41.4555" y1="259.332" x2="322.608" y2="259.332"/>
	<line fill="none" stroke-width="0.640004" stroke-linejoin="round" stroke="#000000" stroke-opacity="1" x1="183.023" y1="266.954" x2="183.023" y2="156.775"/>
	<line fill="none" stroke-width="0.640004" stroke-linejoin="round" stroke="#FFFFFF" stroke-opacity="1" x1="183.023" y1="156.775" x2="183.023" y2="28.8031"/>
	<line fill="none" stroke-width="0.640004" stroke-linejoin="round" stroke="#000000" stroke-opacity="1" x1="183.023" y1="28.8031" x2="183.023" y2="18.3373"/>
	<g>
		<text transform="matrix(0.9999999403953552 0.0000000000000000 0.0000000000000000 0.9999999403953552 237.00 25.00)" xml:space="preserve">
			<tspan style=" font-family:Segoe UI; font-size:8.000000pt;" letter-spacing="0.00em" fill="#000000" fill-opacity="1" stroke-width="0.32" stroke-linejoin="round">fixed-wings</tspan>
		</text>
		<text transform="matrix(1.0000000000000000 0.0000000000000000 0.0000000000000000 1.0000000000000000 118.00 11.00)" xml:space="preserve">
			<tspan style=" font-family:Segoe UI; font-size:9.999166pt;" letter-spacing="0.00em" fill="#000000" fill-opacity="1" stroke-width="0.2" stroke-linejoin="round">flight time</tspan>
		</text>
		<text transform="matrix(1.0000000000000000 0.0000000000000000 0.0000000000000000 1.0000000000000000 121.00 240.00)" xml:space="preserve">
			<tspan style=" font-family:Segoe UI; font-size:8.000000pt;" letter-spacing="0.00em" fill="#000000" fill-opacity="1" stroke-width="0.2" stroke-linejoin="round">DJI Mavic Mini (h)</tspan>
		</text>
		<text transform="matrix(1.0000000000000000 0.0000000000000000 0.0000000000000000 1.0000000000000000 306.00 239.00)" xml:space="preserve">
			<tspan style=" font-family:Segoe UI; font-size:8.000000pt;" letter-spacing="0.00em" fill="#000000" fill-opacity="1" stroke-width="0.2" stroke-linejoin="round">DJI Agras T16 (g)</tspan>
		</text>
		<text transform="matrix(1.0000000000000000 0.0000000000000000 0.0000000000000000 1.0000000000000000 223.00 213.00)" xml:space="preserve">
			<tspan style=" font-family:Segoe UI; font-size:8.000000pt;" letter-spacing="0.00em" fill="#000000" fill-opacity="1" stroke-width="0.2" stroke-linejoin="round">DJI Matrice 600 (f)</tspan>
		</text>
		<text transform="matrix(1.0000000000000000 0.0000000000000000 0.0000000000000000 1.0000000000000000 212.00 276.00)" xml:space="preserve">
			<tspan style=" font-family:Segoe UI; font-size:8.000000pt;" letter-spacing="0.00em" fill="#000000" fill-opacity="1" stroke-width="0.2" stroke-linejoin="round">DJI Phantom 4 (j)</tspan>
		</text>
		<text transform="matrix(1.0000000000000000 0.0000000000000000 0.0000000000000000 1.0000000000000000 138.00 84.00)" xml:space="preserve">
			<tspan style=" font-family:Segoe UI; font-size:8.000000pt;" letter-spacing="0.00em" fill="#FFFFFF" fill-opacity="1" stroke-width="0.2" stroke-linejoin="round">Cumulus (b)</tspan>
		</text>
		<text transform="matrix(1.0000000000000000 0.0000000000000000 0.0000000000000000 1.0000000000000000 208.00 150.00)" xml:space="preserve">
			<tspan style=" font-family:Segoe UI; font-size:8.000000pt;" letter-spacing="0.00em" fill="#FFFFFF" fill-opacity="1" stroke-width="0.2" stroke-linejoin="round">Opterra (e)</tspan>
		</text>
		<text transform="matrix(1.0000000000000000 0.0000000000000000 0.0000000000000000 1.0000000000000000 143.00 144.00)" xml:space="preserve">
			<tspan style=" font-family:Segoe UI; font-size:8.000000pt;" letter-spacing="0.00em" fill="#FFFFFF" fill-opacity="1" stroke-width="0.2" stroke-linejoin="round">Ebee (d)</tspan>
		</text>
		<text transform="matrix(1.0000000000000000 0.0000000000000000 0.0000000000000000 1.0000000000000000 212.00 81.00)" xml:space="preserve">
			<tspan style=" font-family:Segoe UI; font-size:8.000000pt;" letter-spacing="0.00em" fill="#FFFFFF" fill-opacity="1" stroke-width="0.2" stroke-linejoin="round">Penguin BE (c)</tspan>
		</text>
		<text transform="matrix(1.0000000000000000 0.0000000000000000 0.0000000000000000 1.0000000000000000 66.00 311.00)" xml:space="preserve">
			<tspan style=" font-family:Segoe UI; font-size:8.000000pt;" letter-spacing="0.00em" fill="#000000" fill-opacity="1" stroke-width="0.2" stroke-linejoin="round">Nano-Hummingbird (l)</tspan>
		</text>
		<text transform="matrix(1.0000000000000000 0.0000000000000000 0.0000000000000000 1.0000000000000000 19.00 257.00)" xml:space="preserve">
			<tspan style=" font-family:Segoe UI; font-size:8.000000pt;" letter-spacing="0.00em" fill="#000000" fill-opacity="1" stroke-width="0.2" stroke-linejoin="round">Delfly II (k)</tspan>
		</text>
		<text transform="matrix(1.0000000000000000 0.0000000000000000 0.0000000000000000 1.0000000000000000 35.00 69.00)" xml:space="preserve">
			<tspan style=" font-family:Segoe UI; font-size:8.000000pt;" letter-spacing="0.00em" fill="#000000" fill-opacity="1" stroke-width="0.2" stroke-linejoin="round">Skye (a)</tspan>
		</text>
		<text transform="matrix(1.0000000000000000 0.0000000000000000 0.0000000000000000 1.0000000000000000 302.00 147.00)" xml:space="preserve">
			<tspan style=" font-family:Segoe UI; font-size:8.000000pt;" letter-spacing="0.00em" fill="#000000" fill-opacity="1" stroke-width="0.32" stroke-linejoin="round">rotary-wings</tspan>
		</text>
		<text transform="matrix(1.0000000000000000 0.0000000000000000 0.0000000000000000 1.0000000000000000 321.00 277.00)" xml:space="preserve">
			<tspan style=" font-family:Segoe UI; font-size:9.999166pt;" letter-spacing="0.00em" fill="#000000" fill-opacity="1" stroke-width="0.32" stroke-linejoin="round">M&amp;CE</tspan>
		</text>
		<text transform="matrix(1.0000000000000000 0.0000000000000000 0.0000000000000000 1.0000000000000000 17.00 187.00)" xml:space="preserve">
			<tspan style=" font-family:Segoe UI; font-size:8.000000pt;" letter-spacing="0.00em" fill="#000000" fill-opacity="1" stroke-width="0.32" stroke-linejoin="round">flapping-wings</tspan>
		</text>
	</g>
</svg>
